<svg width="52" height="50" fill="none" xmlns="http://www.w3.org/2000/svg"><path d="M35.975.806c.747-.565 1.75-.668 2.576-.192.826.476 1.239 1.396 1.122 2.324L37.29 18.123l12.863 8.412a2.234 2.234 0 01.974 2.396c-.218.922-.931 1.61-1.856 1.759l-15.208 2.447L30.033 48c-.258.9-1.01 1.566-1.952 1.653a2.335 2.335 0 01-2.287-1.214l-7.03-13.694-15.39.768a2.257 2.257 0 01-2.197-1.37c-.396-.858-.194-1.842.457-2.515L12.509 20.71 7.028 6.336a2.297 2.297 0 01.597-2.485c.69-.65 1.694-.753 2.566-.355l13.726 6.918L35.975.806z" fill="#FFC700"/></svg>