<svg width="35" height="40" fill="none" xmlns="http://www.w3.org/2000/svg"><path d="M15.59 13.455l5.777-4.091c.65-.446 1.54-.477 2.254-.06.74.434 1.168 1.234 1.095 2.018l-.508 7.172 4.565 5.974c.5.67.591 1.55.215 2.224-.391.701-1.178 1.067-1.982.942l-7.345-.991-5.764 4.133c-.65.446-1.54.476-2.254.059-.74-.433-1.168-1.234-1.095-2.017l.508-7.172-4.565-5.974c-.5-.67-.591-1.55-.215-2.225.391-.7 1.178-1.067 1.981-.941l7.333.949zm6.94-2.586c.07-.062.167-.04.222-.007a.22.22 0 01.107.2l-.53 7.538c-.02.23.046.44.194.63l4.795 6.28a.19.19 0 01.023.22c-.044.078-.127.097-.197.091L19.452 24.8a.935.935 0 00-.63.15l-6.073 4.295c-.07.062-.168.04-.222.008a.22.22 0 01-.107-.2l.53-7.538a.875.875 0 00-.195-.63l-4.81-6.254a.19.19 0 01-.022-.22c.043-.078.127-.098.197-.092l7.72 1.038a.935.935 0 00.629-.148l6.06-4.339z" fill="#9C63FF"/></svg>