<svg width="258" height="362" fill="none" xmlns="http://www.w3.org/2000/svg"><path d="M126.741 205.619l-7.612 31.73c-.931 3.854-1.606 7.683-1.868 11.633-.25 3.904-.243 7.784.203 11.692l5.904 52.481.676 9.743 19.489-1.316-.676-9.742-1.186-52.793c-.062-2.504.21-4.96.574-7.389.364-2.429 1.049-4.764 1.839-7.118l10.452-30.9 4.023-13.888-27.809-7.975-4.009 13.842zm-35.008-13.373L65.32 241.438c-2.695 4.988-4.324 10.404-4.504 15.929-.156 5.463.692 10.964 2.995 16.105l17.406 38.133 3.717 9.052 18.073-7.396-3.717-9.052-14.357-39.381c-.682-1.837-.711-3.848-.49-5.758.196-1.848 1.007-3.594 2.043-5.178l30.154-46.999 7.336-12.468-24.97-14.672-7.273 12.493z" fill="#3D248A"/><path d="M128.679 340.498l-.5-4.535-.113-6.888 13.774-.258.113 6.888-.678 8.733.097 4.791-19.45 3.511-4.507 1.149-2.292-9.013 4.507-1.148 9.049-3.23z" fill="#FF5784"/><path d="M116.057 359.869l24.85-5.049c.823-.15 1.339-.932 1.161-1.76a1.524 1.524 0 00-1.781-1.187l-24.849 5.049c-.823.15-1.34.932-1.162 1.76a1.524 1.524 0 001.781 1.187zm11.711-24.162c1.093.119 2.249.004 3.343.123a1.497 1.497 0 001.666-1.325 1.497 1.497 0 00-1.326-1.665c-1.093-.119-2.202-.001-3.295-.12-.807-.101-1.563.471-1.664 1.277-.152.851.421 1.606 1.276 1.71zm.142 5.124c1.128.313 2.25.722 3.429.99a1.472 1.472 0 001.794-1.078 1.47 1.47 0 00-1.079-1.792c-1.131-.265-2.253-.673-3.334-.983a1.55 1.55 0 00-1.838 1.027c-.244.797.23 1.593 1.028 1.836z" fill="#3D248A"/><path d="M93.41 337.401l-1.868-4.164-2.222-6.523 13.03-4.457 2.223 6.523 2.036 8.522 1.563 4.532-17.434 9.288-3.937 2.471-4.948-7.88 3.936-2.471 7.622-5.841z" fill="#FF5784"/><path d="M87.352 359.7l22.103-12.407c.738-.394.989-1.296.566-2.03a1.525 1.525 0 00-2.06-.586l-22.103 12.407c-.738.394-.989 1.297-.566 2.03a1.524 1.524 0 002.06.586zm3.728-26.561c1.078-.22 2.143-.684 3.22-.904a1.496 1.496 0 001.18-1.772 1.498 1.498 0 00-1.774-1.179c-1.077.22-2.096.672-3.173.893-.8.151-1.343.926-1.192 1.725.163.845.94 1.388 1.74 1.237zm1.695 4.789c1.17-.047 2.364-.001 3.568-.106a1.47 1.47 0 001.377-1.575 1.47 1.47 0 00-1.577-1.376c-1.158.093-2.351.047-3.475.082a1.551 1.551 0 00-1.435 1.541c.059.821.766 1.481 1.542 1.434z" fill="#3D248A"/><path d="M89.822 117.314c10.989-19.005 35.274-25.512 54.295-14.546 19.021 10.966 25.521 35.22 14.532 54.226l-68.827-39.68z" fill="#FF5784"/><path d="M161.458 37.715l8.666-11.983c.296-.37.222-.962-.223-1.258-.37-.296-.962-.222-1.259.222l-8.665 11.983c-.297.37-.223.962.222 1.258.444.221.963.148 1.259-.222zm-13.109-5.474l5.703-27.96c.074-.444-.223-.962-.667-1.036-.444-.074-.963.222-1.037.666l-5.703 27.96c-.074.444.222.962.666 1.036.445.148.963-.148 1.038-.666zm-14.962-2.367l-4.592-15.681c-.148-.444-.667-.74-1.111-.592-.444.148-.741.665-.592 1.11l4.592 15.68c.148.445.592.74 1.111.593.444-.148.74-.592.592-1.11zm-9.048 40.048c-3.904 8.365-1.09 18.728 7.988 19.36 1.543.105 3.223-.368 4.721-.947 3.404-1.368 5.537-3.893 7.126-6.944 1.543-2.947 2.542-6.366 3.767-9.628.182-.473-.045-.947-.499-1.157a.888.888 0 00-1.135.526c-1.225 3.209-2.224 6.576-3.677 9.47-1.407 2.682-3.268 4.945-6.218 6.155-1.225.473-2.632.894-3.949.789-7.852-.579-9.895-9.628-6.536-16.888.227-.42 0-.947-.408-1.157-.409-.21-.953 0-1.18.42z" fill="#3D248A"/><path d="M147.153 72.357c2.148-.074 4.592-.591 6.147-2.219 2.593-2.589 2.445-7.693-1.333-9.172-1.407-.592-2.962-.37-4.444-.222-.518 0-.889.444-.815.962 0 .517.445.887.963.813 1.259-.074 2.519-.37 3.704.148 2.592 1.036 2.444 4.512.74 6.362-1.259 1.257-3.185 1.627-4.888 1.701-.519 0-.889.444-.815.888-.148.37.297.74.741.74z" fill="#3D248A"/><path d="M150.624 57.829c0 3.846-12.295 13.167-25.479 12.5-11.924-.665-13.776-19.823 0-23.3 16.295-4.068 25.479 10.8 25.479 10.8z" fill="#3D248A"/><path d="M146.476 61.6c1.185-.073 2.444.149 3.629.37 3.037.666 5.407 3.7 3.037 6.658-2 2.441-9.777 3.329-6.962 8.137 1.926 3.328 6.74 2.885 9.851 2.219 7.48-1.775 12.813-8.063 13.924-15.312 1.111-7.249-5.111-14.72-12.147-16.273-6.073-1.332-13.85.74-15.406 7.397l4.074 6.805zm40.455 123.204c2.176-9.559 4.145-20.71 5.634-36.645a24.2 24.2 0 00-7.102-19.682c-6.839-6.813-16.983-15.995-25.737-20.292-6.191-3.012-11.719-3.546-15.103.494-5.775 6.856-4.224 13.892.501 20.168 4.505 6.006 11.908 11.335 18.204 15.178a22.705 22.705 0 0110.908 19.035c.14 9.949.351 21.565.351 21.565.021.487.386.889.873.869.487-.021.89-.386.87-.872 0 0-.211-11.617-.352-21.566a24.445 24.445 0 00-11.807-20.528c-6.081-3.713-13.337-8.839-17.696-14.713-4.14-5.604-5.655-11.806-.547-17.937 1.393-1.66 3.179-2.292 5.341-2.243 2.302.043 4.918.908 7.623 2.256 8.609 4.164 18.542 13.284 25.232 19.896 4.803 4.811 7.247 11.53 6.554 18.242-1.495 15.796-3.467 26.878-5.646 36.367a.894.894 0 00.673 1.086c.629.043 1.105-.255 1.226-.678z" fill="#3D248A"/><path d="M175.416 183.728c-5.755 1.649-10.713 5.436-13.054 11.121-.646 1.621-1.131 4.602-.36 6.586.26.808.715 1.458 1.385 1.883.67.425 1.468.671 2.544.492 1.976-.265 2.873-1.517 3.412-3.026.39-1.263.489-2.761.772-3.911.602-2.654 2.272-4.76 4.874-5.633.481-.143.712-.655.569-1.135-.143-.481-.655-.711-1.136-.569-3.236 1.042-5.291 3.685-6.011 6.957-.283 1.151-.341 2.516-.731 3.779-.288.931-.8 1.646-1.942 1.804-.594.036-1.014-.021-1.392-.21-.537-.384-.772-1.038-.899-1.806-.254-1.534.101-3.39.517-4.499 2.109-5.174 6.658-8.578 11.865-10.105.481-.143.712-.654.636-1.114-.076-.46-.567-.757-1.049-.614z" fill="#3D248A"/><path d="M173.827 190.3c-2.083 4.382-3.477 10.068-.692 14.493.777 1.258 1.728 2.425 3.15 3.009 2.446 1.044 5.616-.018 5.727-2.969.026-.793-.234-1.601-.735-2.337-.526-.891-1.36-1.73-1.774-2.512-.802-1.412-.815-3.018-1.049-4.619-.076-.46-.48-.803-1.008-.747a.895.895 0 00-.748 1.007c.238 1.821.324 3.667 1.218 5.253.367.696 1.022 1.407 1.589 2.164.409.563.731 1.171.766 1.765-.073 1.651-1.937 2.024-3.293 1.461-1.09-.482-1.683-1.392-2.342-2.323-2.443-3.883-1.055-8.843.818-12.78.21-.445.001-.946-.445-1.156-.404-.343-.972-.154-1.182.291z" fill="#3D248A"/><path d="M176.764 195.648c1.609 3.044 2.866 5.105 6.541 5.946.886.2 2.14.149 3.077-.29.764-.348 1.322-.976 1.523-1.861.139-.685-.096-1.34-.551-1.99-.475-.583-1.171-1.162-1.554-1.571-1.018-1.187-1.513-2.65-1.987-4.179-.143-.481-.634-.778-1.116-.635-.481.143-.779.634-.636 1.115.48 1.749 1.112 3.473 2.355 4.875.317.389.854.773 1.284 1.269.204.281.496.517.413.783-.056.419-.405.603-.819.766-.569.189-1.209.138-1.695.061-3.076-.656-4.042-2.483-5.355-5.071a.882.882 0 00-1.197-.369c-.349.184-.513.716-.283 1.151zm-82.361-5.613l37.203 22.772 26.917-13.184c4.371-14.725.171-22.858-8.058-30.905l-45.175-1.284-10.887 22.601zm52.396-116.702c-3.857 4.452-3.086 11.814.257 16.437 1.8 2.483 5.315 4.966 8.487 3.425 2.828-1.37 1.971-6.421 1.285-8.647-.171-.6-.428-1.541-.942-1.97-.172-.17.257.343.428.514.172.172.343.428.514.6a9.15 9.15 0 001.286 1.284c1.458 1.284 3.944 2.568 5.915 1.883 2.143-.77 2.057-2.91 1.114-4.708-.342-.6-.771-1.199-1.2-1.798a4.937 4.937 0 00-.685-.6c-.086-.085-.515-.17-.343-.256 2.743-.514 7.8 1.37 8.486-2.911.343-2.226-1.714-4.11-3.514-4.88-1.801-.77-3.858-.856-5.829-1.027-2.058-.171-4.201-.343-6.172 0l-9.087 2.654zm-22.545-4.966c-2.4-.599-5.229-.256-7.543.514-1.2.428-2.657 1.199-2.915 2.568-.685 3.34 4.458 3.853 6.601 3.425.257-.086-.514.257-.857.342-.686.257-1.029.343-1.715.685-1.886.77-4.714 2.397-4.029 4.88.429 1.798 3.344 1.284 4.544.942a28.111 28.111 0 001.457-.514c.171-.086.429-.342.429-.257-.086.257-.772 1.028-.858 1.284-.685.942-1.2 2.312-.943 3.596.258 1.113 1.286 1.284 2.315.942 1.286-.343 2.743-1.884 3.172-3.082.257-.685-.086-1.541-.258-2.14-.171-.942-.171-1.97-.257-2.911-.171-3.254.343-6.935 1.715-9.931l-.858-.343zm-26.916 59.585c-2.743 10.102-6.43 28.252-8.915 32.532-3 5.051-21.516 22.858-27.86 26.454-.428.257-.6.77-.343 1.198.258.429.772.6 1.2.343 6.515-3.681 25.46-21.916 28.46-27.139 2.572-4.28 6.343-22.772 9.087-32.96.17-.428-.172-.941-.6-1.113-.43-.085-.858.172-1.03.685z" fill="#3D248A"/><path d="M51.807 180.682c.324-.217.81-.268 1.375-.235.553.099 1.267.364 2.05.778 1.817 1.012 3.953 2.905 5.214 4.367.63.731 1.088 1.362 1.2 1.795.206.449-.075.948-.584 1.132-.509.184-.934-.099-1.139-.547-.137-.3-.446-.698-.823-1.247-1.18-1.378-3.168-3.039-4.813-3.951-.437-.216-.874-.431-1.243-.497-.185-.033-.265-.116-.381 0l-.104.05c-.313.151-.373.483-.34.833.113.432.306.947.591 1.479.88 1.463 2.313 3.024 3.324 3.754.173.1.426.282.518.299.381-.001.634.182.863.498.217.382.145.781-.191 1.064-.79.684-2.42 1.285-4.317 1.77-2.497.653-5.455 1.223-6.718 1.89a4.164 4.164 0 00-1.09.767c-.104.05-.115.117-.14.25-.011.066-.104.05-.023.133.068.15.252.183.425.282.357.133.634.182 1.003.248 1.949.28 7.32-.477 8.94-1.012.705-.217 1.41-.434 2.277-.486.196-.033.393-.067.497-.117a.85.85 0 01.393-.067l.277.049c.46.083.678.465.722.748-.024.133.02.416-.224.716-.604.716-1.902 1.583-3.385 2.417-2.015 1.151-4.32 2.318-5.144 3.201-.128.183-.349.35-.489.6a.328.328 0 00-.072.399c.08.083.265.116.45.149.369.066.75.066 1.235.015 2.425-.253 5.828-1.706 6.846-2.073.52-.251 1.042-.501 1.563-.751.208-.1.3-.084.416-.2.105-.05.43-.267.43-.267.3-.084.484-.051.657.049.264.116.425.282.481.498.08.083.205.449-.155.865-.989 1.266-2.94 3.115-4.428 5.047-.617.783-1.234 1.566-1.457 2.281.104-.05.3-.083.405-.133 2.673-1.102 8.19-4.787 14.283-12.215.233-.234.79-.683 1.555-1.234 1.726-1.133 4.715-2.934 7.704-4.736 2.99-1.801 5.979-3.602 7.73-4.869.66-.5 1.101-.833 1.333-1.066.257-.367.846-.467 1.26-.119.425.283.421.831.153 1.264-.244.3-.813.817-1.682 1.417-1.751 1.267-4.844 3.118-7.833 4.919-2.99 1.801-5.886 3.619-7.613 4.752-.649.434-1.078.701-1.206.884-7.315 8.927-13.894 12.696-16.16 13.116-1.478.285-1.912-.48-1.873-1.228.123-1.215.951-2.647 2.056-4.029.5-.666 1.093-1.316 1.674-1.899-1.631.602-4.06 1.404-5.908 1.623-.774.068-1.444.085-1.985-.08-.45-.149-.887-.365-1.116-.68-.55-.648-.603-1.413-.287-2.113.188-.516.548-.932.897-1.282.813-.816 2.712-1.85 4.52-2.901l.324-.217c-2.474.52-6.459.975-8.223.728a7.995 7.995 0 01-1.717-.513c-.437-.215-.85-.564-.976-.93-.353-.681-.222-1.413.267-2.013.488-.6 1.253-1.15 1.879-1.45 1.354-.651 4.417-1.271 7.018-1.974a20.717 20.717 0 002.22-.702c-1.171-.896-2.685-2.541-3.553-4.07-.502-.914-.82-1.795-.873-2.56-.13-1.397.302-2.213 1.24-2.663zm84.963-43.141c-1.029 1.37-2.143 2.654-3.172 4.024-3.515 4.708-7.029 9.503-10.801 13.954-.772.856-2.057 2.825-3.343 4.024-.686.599-1.372 1.113-1.972 1.199-.343.085-.514 0-.686-.086-.171-.086-.257-.257-.342-.428-.086-.171-.172-.343-.086-.599 0-.257.171-.6.171-.771v-1.969c-.085-1.798-.171-3.596-.171-5.393-.086-5.736-.086-11.472-.172-17.208-.085-4.281-.257-8.476 0-12.756 0-.514.429-.856.943-.856.515 0 .858.428.858.941-.343 4.195-.086 8.39 0 12.585.085 5.736.085 11.472.171 17.208 0 1.798.086 3.596.171 5.393v1.541l.6-.599c1.029-1.198 2.058-2.654 2.658-3.339 3.772-4.451 7.286-9.246 10.715-13.869 1.029-1.369 2.143-2.653 3.172-4.023.085-.171.6-1.028.943-1.456.257-.256.514-.428.685-.428.258-.085.515 0 .686.086.257.086.429.342.6.599.086.171.086.428.086.685v.514c.6 2.482.6 5.136.686 7.705l.257 7.448c.171 3.253.514 6.592.686 9.845 0 .514-.343.942-.858.942-.514 0-.942-.343-.942-.856-.172-3.254-.515-6.592-.686-9.846-.172-2.482-.172-4.965-.257-7.448-.172-2.311-.172-4.537-.6-6.763z" fill="#3D248A"/><path d="M247.815 105.434l-37.557-3.419 17.808-28.594 19.749 32.013z" fill="#FF5784"/><path d="M247.733 106.31c.292.027.653-.058.861-.391.208-.334.235-.626-.03-.945L228.885 72.85a1.122 1.122 0 00-.78-.484c-.292-.027-.542.126-.75.46l-17.808 28.594c-.138.222-.235.625-.081.874.153.25.376.388.779.485l37.488 3.531zm-36.045-5.104l34.345 3.122-17.992-29.38-16.353 26.258z" fill="#fff"/><path d="M43.206 293.885c5.537 2.812 11.927 4.83 18.913 5.931 46.43 7.275 115.777-9.6 147.894-32.895 16.613-12.045 25.814-27.88 23.343-42.799-1.619-9.905-8.519-19.321-21.639-26.902-.426-.245-.596-.795-.341-1.223a.86.86 0 011.193-.306c13.716 7.949 20.702 17.854 22.491 28.187 2.556 15.468-6.73 31.977-24.024 44.511-32.459 23.539-102.402 40.537-149.258 33.2-7.327-1.162-14.142-3.302-19.935-6.359-9.968 9.355-24.791 16.08-40.808 18.709-.51.061-.937-.244-1.022-.733-.085-.49.256-.918.767-1.04 15.42-2.568 29.732-8.927 39.444-17.853-8.008-4.586-13.886-11.006-16.101-18.771-1.449-5.197-.938-13.757 4.43-18.281 2.3-1.957 5.622-3.179 9.967-3.057 5.623.183 9.371 2.018 11.842 4.647 2.3 2.445 3.408 5.686 3.748 9.049.512 4.952-.766 10.21-2.385 13.818-1.874 4.402-4.856 8.437-8.52 12.167zm-1.619-.856c3.663-3.669 6.645-7.704 8.605-12.045 1.533-3.363 2.64-8.315 2.215-12.901-.256-2.996-1.278-5.87-3.323-8.01-2.215-2.384-5.537-3.913-10.564-4.096-13.034-.428-14.568 12.412-12.694 19.076 2.215 7.459 7.923 13.574 15.761 17.976z" fill="#3D248A"/></svg>