<svg width="244" height="394" fill="none" xmlns="http://www.w3.org/2000/svg"><path d="M206.995 112.905a2.878 2.878 0 011.416-1.93 3.31 3.31 0 012.501-.346l19.301 4.804c.833.208 1.598.744 2.116 1.495.453.735.687 1.554.508 2.409l-8.238 39.374a2.876 2.876 0 01-1.415 1.93c-.701.448-1.604.569-2.501.346l-19.302-4.804c-.833-.208-1.598-.744-2.116-1.495-.453-.735-.686-1.554-.508-2.409l8.238-39.374z" fill="#3D248A"/><path d="M211.287 116.331a1.79 1.79 0 01.859-1.192 2.023 2.023 0 011.528-.199l4.341 1.087c.519.13.997.456 1.297.907.299.45.406.986.303 1.482l-.87 4.184a1.791 1.791 0 01-.86 1.191 2.018 2.018 0 01-1.528.2l-4.34-1.087a2.216 2.216 0 01-1.297-.907 1.965 1.965 0 01-.304-1.482l.871-4.184z" fill="#fff"/><path d="M220.876 93.109c.106-.508.412-.928.86-1.192a2.016 2.016 0 011.527-.2l4.341 1.088c.519.13.998.455 1.297.906.3.451.407.987.304 1.483l-.871 4.184a1.785 1.785 0 01-.86 1.191 2.015 2.015 0 01-1.527.2l-4.341-1.087a2.222 2.222 0 01-1.297-.907 1.97 1.97 0 01-.303-1.483l.87-4.183z" fill="#00D5FF"/><path d="M208.845 129.056l-.663 3.186a2.22 2.22 0 00.341 1.679c.333.51.868.879 1.465 1.028l3.31.829c.597.15 1.225.072 1.727-.229a2.07 2.07 0 00.971-1.35l.663-3.186a2.228 2.228 0 00-.341-1.679 2.477 2.477 0 00-1.465-1.028l-3.311-.829c-.596-.15-1.224-.072-1.726.229a2.04 2.04 0 00-.971 1.35zm1.849.463a.382.382 0 01.176-.243.401.401 0 01.307-.045l3.311.829a.437.437 0 01.321.49l-.662 3.186a.383.383 0 01-.177.243.401.401 0 01-.307.045l-3.31-.829a.436.436 0 01-.322-.49l.663-3.186z" fill="#fff"/><path d="M226.422 108.578c.168-.808.642-1.494 1.39-1.904.708-.42 1.598-.519 2.425-.312l9.445 2.366a3.623 3.623 0 012.061 1.435c.473.716.668 1.569.5 2.377l-1.885 9.064c-.168.808-.642 1.494-1.39 1.904-.709.42-1.599.519-2.425.312l-9.445-2.366a3.622 3.622 0 01-2.062-1.436c-.477-.693-.667-1.568-.499-2.376l1.885-9.064z" fill="#C2DE0B"/><path d="M225.478 108.342l-1.885 9.063c-.213 1.026.011 2.139.648 3.057a4.623 4.623 0 002.676 1.865l9.444 2.366a4.274 4.274 0 003.148-.407 3.645 3.645 0 001.793-2.446l1.885-9.063c.213-1.026-.011-2.139-.648-3.057-.598-.908-1.574-1.589-2.676-1.865l-9.444-2.366a4.274 4.274 0 00-3.148.407c-.942.545-1.579 1.419-1.793 2.446zm1.85.463a1.977 1.977 0 01.982-1.339 2.334 2.334 0 011.706-.239l9.445 2.365c.59.148 1.135.514 1.442 1.028.351.501.474 1.106.356 1.674l-1.886 9.063a1.979 1.979 0 01-.982 1.34 2.344 2.344 0 01-1.706.239l-9.444-2.366c-.591-.148-1.135-.514-1.443-1.027a2.156 2.156 0 01-.355-1.675l1.885-9.063z" fill="#C2DE0B"/><path d="M82.66 239.653l10.198 31.871c.77 2.428 1.424 4.841 1.724 7.363.299 2.522.496 5.076.324 7.691l-3.492 55.151-1.145 10.194 21.346.658 1.146-10.194 8.66-54.998c.652-4.096.82-8.146.708-12.212-.112-4.066-.707-8.086-1.57-12.075l-7.043-32.841-3.841-14.349-30.869 9.345 3.854 14.396z" fill="#3D248A"/><path d="M118.901 231.461L153.4 281.44c1.165 1.73 2.133 3.53 2.428 5.457.325 1.993.386 4.081-.261 5.963l-13.583 40.361-3.569 9.261 19.721 8.375 3.569-9.261 16.91-38.948c2.263-5.186 2.937-10.913 2.471-16.615-.448-5.746-2.444-11.435-5.563-16.721l-30.587-52.113-8.44-13.233-26.101 14.286 8.506 13.209z" fill="#3D248A"/><path d="M108.738 371.668l9.522 3.269 4.733 1.138-2.51 9.37-4.732-1.139-15.571-2.254-4.871-1.187-.468-14.013.192-7.141 14.499.107-.192 7.141-.602 4.709z" fill="#C2DE0B"/><path d="M122.561 388.682l-25.953-4.875c-.86-.144-1.681.385-1.876 1.231a1.45 1.45 0 001.197 1.782l25.953 4.875c.86.144 1.681-.385 1.876-1.231.198-.795-.337-1.638-1.197-1.782zm-13.242-25.116c-1.143.183-2.307.025-3.454.16-.847.113-1.505.898-1.407 1.725a1.557 1.557 0 001.733 1.342c1.146-.135 2.307-.026 3.504-.165.847-.112 1.455-.894 1.357-1.721a1.524 1.524 0 00-1.733-1.341zm-.588 5.447c-1.187.335-2.32.716-3.507 1.051a1.546 1.546 0 00-1.15 1.857c.197.822 1.029 1.3 1.871 1.09 1.189-.287 2.37-.72 3.606-1.059.842-.21 1.345-1.085 1.098-1.902-.248-.818-1.079-1.297-1.918-1.037z" fill="#3D248A"/><path d="M145.513 368.444l8.353 6.29 4.284 2.671-4.987 7.921-4.284-2.671-14.5-7.392-4.405-2.763 3.361-13.278 2.131-6.621 14.045 5.018-2.132 6.621-1.866 4.204z" fill="#C2DE0B"/><path d="M153.619 389.161l-23.587-13.093c-.786-.418-1.718-.2-2.135.518-.417.718-.121 1.627.665 2.044l23.587 13.094c.787.418 1.719.2 2.136-.518.405-.67.121-1.627-.666-2.045zm-5.114-28.19c-1.151-.212-2.228-.747-3.368-1.005-.846-.178-1.692.331-1.822 1.131-.131.8.458 1.646 1.304 1.825 1.14.257 2.228.747 3.417 1.017.846.179 1.643-.343 1.773-1.143.141-.847-.409-1.633-1.304-1.825zm-2.239 5.007c-1.235-.086-2.431-.113-3.666-.199-.869-.087-1.58.511-1.612 1.341-.033.83.639 1.554 1.508 1.64 1.224.133 2.48.127 3.764.226.869.087 1.591-.557 1.574-1.401.032-.83-.689-1.567-1.568-1.607z" fill="#3D248A"/><path d="M149.301 136.737c-10.678-19.162-35.702-25.084-55.945-13.24-20.243 11.845-27.983 36.936-17.305 56.099l73.25-42.859z" fill="#C2DE0B"/><path d="M196.814 108.848l-10.126-3.523c-.511-.167-1.004.1-1.23.571-.198.515.046.989.509 1.187l10.126 3.523c.511.167 1.004-.1 1.23-.571.198-.515-.028-1.064-.509-1.187zm6.278-8.334L188.31 86.04c-.36-.34-.962-.324-1.328.048-.367.373-.385.965-.025 1.304l14.782 14.474c.36.339.962.324 1.328-.049.396-.328.414-.919.025-1.303zm8.45-6.75l-3.304-11.396c-.123-.495-.698-.752-1.179-.56-.511.15-.804.731-.634 1.195l3.303 11.396c.123.495.698.753 1.179.56.481-.194.757-.7.635-1.195zm-71.822 3.541c.624 8.164-4.798 15.725-12.775 12.83-1.34-.478-2.573-1.484-3.607-2.46-2.483-2.365-3.476-5.28-3.844-8.436-.418-3.294-.145-6.858-.092-10.404-.002-.519-.417-.933-.924-.984a.837.837 0 00-.927.856c-.028 3.615-.275 7.248.123 10.59.409 3.578 1.618 6.876 4.445 9.567 1.219 1.172 2.702 2.346 4.311 2.943 9.208 3.382 15.865-5.015 15.136-14.492-.067-.49-.482-.903-1.009-.906-.482.016-.903.406-.837.896z" fill="#3D248A"/><path d="M119.761 88.017c-1.678-.823-3.57-1.985-4.252-3.76-1.108-2.454.136-5.752 3.154-5.648 1.383.038 2.533.873 3.766 1.5.519.228 1.031.045 1.273-.34.196-.486-.034-.997-.452-1.263-1.456-.725-2.902-1.69-4.536-1.757-4.299-.178-6.354 4.48-4.813 8.026.941 2.216 3.119 3.751 5.318 4.803.519.23 1.03.046 1.198-.371.066-.38-.136-.96-.656-1.19z" fill="#3D248A"/><path d="M120.846 73.858c-1.435 3.562 7.206 17.552 20.446 22.68 11.999 4.58 20.967-12.356 8.688-21.579-14.467-10.836-29.134-1.1-29.134-1.1z" fill="#3D248A"/><path d="M124.144 79.98c-1.155-.593-2.496-.94-3.763-1.255-3.282-.715-6.793 1.08-5.545 4.897 1.073 3.169 8.5 7.43 3.875 10.693-3.18 2.27-7.817-.27-10.671-2.265-6.795-4.962-9.743-13.204-8.113-20.485 1.629-7.28 10.662-11.536 18.271-9.888 6.565 1.431 13.545 6.801 12.582 13.723l-6.636 4.58zm50.136 72.607c-9.104 5.351-19.744 11.008-35.388 17.844-6.703 2.981-14.237 2.949-20.431-.011-8.709-4.103-20.77-10.552-27.447-17.278-2.16-2.188-3.787-4.389-4.471-6.505-.65-1.98-.462-3.99.757-5.868 4.78-6.977 11.505-7.72 18.406-5.62 7.22 2.151 14.507 7.323 20.021 11.857 6.499 5.403 15.651 6.987 24.257 4.244 10.162-3.273 22.041-7.049 22.041-7.049.501-.147.829-.678.639-1.129a.82.82 0 00-1.133-.536s-11.879 3.777-22.041 7.05c-7.962 2.554-16.474 1.071-22.481-3.897-5.636-4.716-13.242-9.939-20.64-12.183-7.717-2.294-15.246-1.387-20.661 6.427-3.073 4.594-1.023 9.711 3.81 14.59 6.87 6.886 19.108 13.428 27.993 17.624 6.708 3.17 14.848 3.169 22.052.041 15.787-6.878 26.482-12.623 35.674-17.927.467-.282.635-.838.374-1.268-.296-.565-.864-.688-1.331-.406z" fill="#3D248A"/><path d="M171.834 144.612c.024-5.602 2.116-11.194 6.683-14.998.99-.78 2.744-1.752 4.352-2.02.804-.135 1.527-.126 2.066.27.359.263.537.655.612 1.289.171 1.169-.457 1.953-1.244 2.506-1.091.764-2.5 1.323-3.569 1.986-3.066 1.806-5.077 4.763-5.225 8.218-.004.519.374.941.897.919.522-.023.966-.421.971-.939.122-2.836 1.807-5.221 4.228-6.66 1.069-.664 2.539-1.265 3.69-2.072 1.393-.977 2.347-2.333 2.042-4.353-.132-1.111-.648-1.866-1.227-2.32-.618-.512-1.399-.737-2.282-.719-2.168-.027-5.05 1.392-6.485 2.57-5.012 4.202-7.369 10.323-7.357 16.502-.004.519.434.898.956.876.483-.08.888-.536.892-1.055z" fill="#3D248A"/><path d="M177.471 142.512c3.354-3.127 7.998-6.21 12.61-5.126 1.087.274 2.275.563 3.015 1.513.959 1.14 1.125 3.095-.514 3.726-.567.224-1.312.056-1.996-.155-.926-.3-1.852-.601-2.637-.828-1.853-.341-3.835.185-5.634.582-.484.081-.852.597-.795 1.076.057.478.559.817 1.044.736 1.637-.371 3.295-.842 4.947-.533.907.141 1.992.676 3.039.891.947.2 1.774.224 2.563-.07 2.995-1.15 3.083-4.577 1.324-6.624-1-1.199-2.408-1.679-3.939-2.074-5.195-1.279-10.507 2.012-14.369 5.582-.386.357-.411.979-.111 1.286.502.339 1.067.375 1.453.018z" fill="#3D248A"/><path d="M182.31 144.069c2.942.458 5.073.789 6.696 3.559.22.453.459 1.067.434 1.692.017.422-.067.828-.537 1.07-.346.156-.63.007-.913-.142-.628-.255-1.173-.654-1.659-.835-1.782-.749-3.672-.728-5.623-.665-.528.023-.938.484-.942 1.007-.004.524.44.907.968.885 1.647-.111 3.272-.12 4.811.538.588.197 1.315.729 2.044 1 .729.271 1.522.237 2.175-.134a2.927 2.927 0 001.439-2.135c.171-1.074-.144-2.329-.605-3.135-1.924-3.34-4.378-3.879-7.929-4.431a.982.982 0 00-1.103.772c-.085.406.236.875.744.954zm-37.822 70.058l-38.823 23.837-28.088-13.8c-4.563-15.413-.18-23.927 8.408-32.35l47.142-1.344 11.361 23.657zM118.645 91.292c2.151 5.832-1.371 12.346-6.414 15.184-2.713 1.522-7.123 2.293-9.686-.53-2.288-2.514.454-6.839 1.967-8.61.394-.483 1.002-1.246 1.671-1.42.234-.084-.383.207-.617.29-.234.085-.5.249-.733.333a9.062 9.062 0 01-1.755.632c-1.924.557-4.867.663-6.562-.838-1.834-1.656-.947-3.61.66-4.87.565-.408 1.214-.777 1.863-1.147.35-.127.468-.169.903-.258.117-.042.574.066.436-.089-2.524-1.68-8.237-2.142-7.312-6.426.494-2.221 3.237-3.073 5.308-3.002 2.072.072 4.141.893 6.157 1.598 2.101.741 4.288 1.52 6.111 2.703l8.003 6.45zm23.23 3.963c2.648.5 5.368 2.078 7.407 3.831 1.046.936 2.221 2.309 1.958 3.715-.583 3.451-5.962 1.653-7.959.299-.226-.195.42.47.733.703.594.546.906.779 1.467 1.406 1.607 1.563 3.837 4.352 2.199 6.388-1.118 1.504-3.859-.273-4.938-1.128-.453-.39-.906-.78-1.273-1.131-.14-.157-.301-.513-.334-.433-.011.281.386 1.311.374 1.591.332 1.192.328 2.712-.421 3.808-.684.935-1.786.64-2.692-.139-1.165-.894-2.046-2.993-2.021-4.313.002-.759.674-1.414 1.076-1.903.532-.812.924-1.78 1.369-2.63 1.414-2.99 2.3-6.689 2.061-10.122l.994.058zm35.37 64.712c7.833.292 15.45.188 18.877-.526.516-.091.816-.578.737-1.092-.078-.514-.558-.801-1.074-.71-3.427.714-10.849.768-18.487.426-.504-.035-.987.376-1.034.881.135.581.534 1.054.981 1.021z" fill="#3D248A"/><path d="M214.971 170.143c-.116.029-.639.1-1.106.218-1.806.393-5.14 1.409-9.458 2.492-8.752 2.197-21.394 4.952-33.349 5.269-8.141.195-16.006-.634-22.22-3.487-.45-.245-.656-.79-.462-1.256.194-.466.722-.658 1.234-.488 5.986 2.791 13.567 3.512 21.42 3.33 11.899-.363 24.424-3.088 32.999-5.181 5.018-1.259 8.641-2.287 10.214-2.622.583-.147.928-.114 1.1-.098 5.541 1.174 10.32-1.158 13.331-5.194 4.666-6.179 5.362-16.371-1.416-24.568-.328-.395-.3-.998.116-1.282.362-.329.934-.234 1.262.161 7.378 8.941 6.638 20.098 1.483 26.877-3.494 4.514-8.978 7.143-15.148 5.829zm-110.882 11.859c.06-.458.06-.916.121-1.349.06-1.705.06-3.411.182-5.116.06-1.196.181-2.367 0-3.563-.061-.51.242-.993.727-1.07.484-.076.969.255 1.09.764.243 1.324.121 2.647 0 3.971-.121 1.705-.06 3.411-.182 5.116 0 .56-.06 1.094-.121 1.654v.382c.061.128.061.28.121.357 0 .229-.06.432-.181.61-.122.179-.364.459-.909.408-1.273-.128-2.908-1.171-3.696-1.553-2.666-1.324-5.15-2.749-7.634-4.149-.728-.407-1.455-.763-2.182-1.171-.12.458-.12.942-.181 1.4-.061.764-.122 1.502-.182 2.266-.121.967-.364 1.934-.485 2.901-.06.509-.485.866-1.03.815-.485-.051-.848-.509-.848-1.018.121-.993.363-1.986.484-2.953.122-.713.122-1.451.182-2.163.06-.866.121-1.731.546-2.571.06-.229.242-.56.424-.688.181-.101.363-.203.727-.178.121 0 .363.077.606.204.181.102.545.331.606.382.727.407 1.454.789 2.18 1.171 2.485 1.374 4.909 2.799 7.574 4.123.425.153 1.273.687 2.061 1.018zm-14.239-6.083c-.06.076-.06.203-.06.203s.06-.076.06-.203z" fill="#3D248A"/><path d="M220.455 138.21c-.447-.717-.894-1.613-1.163-2.42-.358-1.164-.358-2.419.179-3.315.447-.717.895-1.076 1.521-1.255.537-.179 1.073-.089 1.7.09 1.341.448 2.683 1.792 3.399 2.599.358.358 1.52 1.792 1.878 2.15.358.359.448.896.179 1.345-.358.358-.894.448-1.342.179-.447-.359-1.789-1.882-2.147-2.33-.447-.538-1.252-1.344-2.146-1.882-.358-.179-.716-.358-.984-.269-.179.09-.269.179-.448.359-.268.537-.179 1.165 0 1.881.358 1.345 1.253 2.599 1.879 3.406.358.537.715.985 1.073 1.433.09.18.358.449.537.538.179.179.179.448.179.538 0 .269-.09.448-.179.627s-.358.359-.716.448c-.179 0-.447 0-.805-.179-.357-.179-.894-.807-1.073-.896-.716-.538-1.431-1.165-2.326-1.255-.716-.089-1.252-.089-1.431.269-.269.359-.179.896.089 1.524.537 1.254 1.342 2.15 2.326 3.046 1.074 1.076 2.147 2.061 2.952 3.316.268.358.179.627.089.807-.089.358-.357.627-.894.627-.089 0-.179 0-.268-.09-.09 0-.358-.179-.358-.179-.179-.09-.358-.179-.447-.179-.448-.269-.984-.448-1.432-.628-.626-.268-1.699-.537-2.594-.537-.626 0-1.342.089-1.521.806-.089.18 0 .269 0 .448.09.269.269.538.358.807.805 1.344 2.415 2.33 3.668 3.047a6.462 6.462 0 001.789.806c.537.09.805.627.626 1.165-.089.538-.626.807-1.163.627-.805-.179-1.521-.537-2.236-.896-1.61-.896-3.489-2.15-4.383-3.763-.448-.807-.895-1.882-.537-2.778.447-1.165 1.342-1.703 2.505-1.882.894-.179 1.878 0 2.773.179l-.269-.269c-1.073-1.075-2.147-2.24-2.683-3.674-.537-1.434-.448-2.599.179-3.316.536-.717 1.699-1.165 3.22-.896.089-.269.268-.179.447-.179z" fill="#fff"/><path d="M69.1 267.073c-22.9-2.509-49.916 12.994-63.065 31.006-6.083 8.423-7.246 16.578-4.92 23.478 3.488 10.306 14.58 17.923 28.178 19.356 10.018 1.076 19.59-1.344 29.34-3.405 28.447-6.183 56.446-21.148 84.892-32.529 28.267-11.291 56.893-18.908 86.77-10.664.447.179.984-.179 1.163-.627.179-.448-.179-.986-.626-1.165-30.325-8.424-59.397-.717-88.023 10.664-28.356 11.291-56.266 26.256-84.623 32.439-9.571 2.061-18.964 4.481-28.804 3.406-12.702-1.434-23.258-8.424-26.478-18.192-2.147-6.452-1.074-13.979 4.651-21.776 12.792-17.564 39.092-32.618 61.366-30.199.536.09.984-.269.984-.806 0-.538-.358-.986-.805-.986z" fill="#3D248A"/></svg>