<svg width="43" height="61" fill="none" xmlns="http://www.w3.org/2000/svg"><path d="M20.532 36.6c7.636 0 13.826-6.242 13.826-13.943 0-7.7-6.19-13.943-13.826-13.943S6.706 14.957 6.706 22.657c0 7.7 6.19 13.943 13.826 13.943z" fill="#FF5784"/><path d="M43 22.657h-4.148c0-10.178-8.227-18.474-18.32-18.474V0C32.907 0 43 10.178 43 22.657z" fill="#3D248A"/><path fill-rule="evenodd" clip-rule="evenodd" d="M40.788 52.843V61H0v-8.157a20.558 20.558 0 015.807-14.36c2.212-2.301 5.323-3.626 8.572-3.626h12.098c3.111 0 6.153 1.185 8.296 3.346l.07.07c3.663 3.695 5.945 8.854 5.945 14.57z" fill="#3D248A"/></svg>