<svg width="93" height="70" fill="none" xmlns="http://www.w3.org/2000/svg"><path d="M20.893 45.694c7.77 0 14.07-6.218 14.07-13.889 0-7.67-6.3-13.888-14.07-13.888-7.77 0-14.07 6.218-14.07 13.888 0 7.671 6.3 13.89 14.07 13.89z" fill="#00D5FF"/><path d="M43.756 31.805h-4.22c0-10.138-8.372-18.402-18.643-18.402V9.236c12.593 0 22.863 10.139 22.863 22.57z" fill="#3D248A"/><path d="M72.388 45.694c7.77 0 14.07-6.218 14.07-13.889 0-7.67-6.3-13.888-14.07-13.888-7.77 0-14.07 6.218-14.07 13.888 0 7.671 6.3 13.89 14.07 13.89z" fill="#FFC700"/><path fill-rule="evenodd" clip-rule="evenodd" d="M41.505 61.875V70H0v-8.125a20.255 20.255 0 015.91-14.306c2.32-2.291 5.416-3.61 8.722-3.61h12.311c3.166 0 6.19 1.18 8.442 3.333l.07.07c3.729 3.75 6.05 8.888 6.05 14.513zm51.495 0V70H51.495v-8.125c0-5.625 2.321-10.764 6.05-14.514l.07-.07c2.251-2.221 5.276-3.333 8.442-3.333h12.31c3.307 0 6.402 1.25 8.724 3.611A20.255 20.255 0 0193 61.875z" fill="#3D248A"/><path d="M53.746 31.805h-4.221c0-12.43 10.27-22.569 22.863-22.569v4.167c-10.27 0-18.642 8.264-18.642 18.402z" fill="#3D248A"/><path d="M43.756 31.806h-4.22C39.536 14.306 54.238 0 72.388 0v4.167c-15.828 0-28.632 12.43-28.632 27.639z" fill="#3D248A"/></svg>