<svg width="83" height="58" fill="none" xmlns="http://www.w3.org/2000/svg"><path d="M49.206 26.813H2.073v29.07h47.133v-29.07z" fill="#3D248A"/><path d="M51.279 58H0V24.696h51.279V58zM4.147 53.767h42.985V28.928H4.147v24.838z" fill="#3D248A"/><path d="M80.927 2.117H25.639v53.766h55.288V2.117z" fill="#FF5784"/><path d="M83 58H23.566V0H83v58zm-55.287-4.234h51.14V4.234h-51.14v49.532z" fill="#FF5784"/><path d="M58.466 10.796h-25.57v6.42h25.57v-6.42zm0 14.958h-25.57v6.421h25.57v-6.42zm0 15.029h-25.57v6.421h25.57v-6.42zm17.347-29.987h-8.984v6.42h8.984v-6.42zm0 14.958h-8.984v6.421h8.984v-6.42zm0 15.029h-8.984v6.421h8.984v-6.42z" fill="#fff"/></svg>