<svg width="92" height="62" fill="none" xmlns="http://www.w3.org/2000/svg"><ellipse cx="45.5" cy="58.5" rx="21.5" ry="3.5" fill="#E1E1E1"/><path d="M43.619 5.217c.635-1.762 3.127-1.762 3.762 0l3.804 10.548a2 2 0 001.817 1.32l11.206.358c1.873.06 2.643 2.43 1.163 3.579l-8.855 6.876a2 2 0 00-.695 2.137l3.123 10.768c.522 1.8-1.495 3.264-3.044 2.212l-9.277-6.297a2 2 0 00-2.246 0L35.1 43.015c-1.55 1.052-3.566-.413-3.044-2.212l3.123-10.768a2 2 0 00-.695-2.137l-8.855-6.876c-1.48-1.15-.71-3.52 1.162-3.579l11.207-.358a2 2 0 001.817-1.32L43.62 5.216z" fill="#FFC700"/><path d="M73 9l6-6m-6 34.5l6 6M73 24h18.5m-73-15l-6-6m6 34.5l-6 6m6-19.5H0" stroke="#3D248A" stroke-width="2"/></svg>