<svg width="66" height="62" fill="none" xmlns="http://www.w3.org/2000/svg"><path d="M33.5 45C40.383 40.458 45 32.081 45 22.5S40.383 4.543 33.5 0C26.617 4.543 22 12.919 22 22.5S26.617 40.458 33.5 45z" fill="#FF5784"/><path d="M33.395 46.546c-6.392.875-13.915-1.773-19.733-7.591-5.818-5.818-8.466-13.341-7.59-19.733 6.391-.876 13.915 1.773 19.732 7.59 5.818 5.818 8.467 13.342 7.591 19.734z" fill="#FFC700"/><path d="M51.63 38.248c-5.396 5.397-12.251 7.917-18.121 7.394-.524-5.87 1.996-12.725 7.394-18.123 5.397-5.397 12.252-7.917 18.122-7.393.523 5.87-1.997 12.724-7.394 18.122z" stroke="#000" stroke-width="2"/><ellipse cx="33.5" cy="58.5" rx="21.5" ry="3.5" fill="#E1E1E1"/></svg>