<svg width="65" height="58" fill="none" xmlns="http://www.w3.org/2000/svg"><path fill-rule="evenodd" clip-rule="evenodd" d="M22 14.556c4.235 0 7.649 3.456 7.649 7.746 0 4.29-3.414 7.746-7.649 7.746-4.235 0-7.649-3.456-7.649-7.746 0-4.29 3.414-7.746 7.649-7.746zM26.893.562a21.567 21.567 0 00-9.787 0l-1.069 4.956c-1.151.417-2.22.958-3.248 1.583L8.307 4.85C5.716 6.977 3.619 9.6 2.179 12.64l3.167 3.956a21.506 21.506 0 00-.823 3.582L0 22.302c0 3.332.74 6.663 2.18 9.662l5.016-.042a16.896 16.896 0 002.262 2.874L8.307 39.71a22.034 22.034 0 008.8 4.29l3.084-3.998a17.52 17.52 0 003.618 0L26.893 44c3.208-.75 6.25-2.207 8.8-4.29l-1.15-4.914a16.896 16.896 0 002.26-2.874l5.018.042A22.414 22.414 0 0044 22.302l-4.523-2.166c-.165-1.207-.412-2.415-.823-3.581l3.167-3.957a22.749 22.749 0 00-6.086-7.746L31.21 7.1a19.54 19.54 0 00-3.248-1.583L26.893.562z" fill="#FF5784"/><path fill-rule="evenodd" clip-rule="evenodd" d="M53 9.94c2.31 0 4.172 1.885 4.172 4.225S55.31 18.39 53 18.39c-2.31 0-4.172-1.886-4.172-4.225 0-2.34 1.862-4.226 4.172-4.226zm2.67-7.633a11.77 11.77 0 00-5.34 0l-.582 2.703a9.863 9.863 0 00-1.772.863L45.53 4.646a12.284 12.284 0 00-3.342 4.248l1.727 2.159a11.726 11.726 0 00-.449 1.953L41 14.165c0 1.817.404 3.634 1.189 5.27l2.736-.023c.36.568.763 1.09 1.234 1.568l-.628 2.68a12.02 12.02 0 004.8 2.34l1.682-2.18c.65.067 1.323.067 1.974 0L55.669 26a11.877 11.877 0 004.8-2.34l-.628-2.68c.471-.477.875-1 1.234-1.568l2.736.023A12.225 12.225 0 0065 14.165l-2.467-1.182a9.855 9.855 0 00-.449-1.953l1.727-2.158a12.408 12.408 0 00-3.32-4.226l-2.467 1.227a10.66 10.66 0 00-1.772-.863l-.583-2.703z" fill="#3D248A"/><ellipse cx="31.5" cy="54.5" rx="21.5" ry="3.5" fill="#E1E1E1"/></svg>