<svg width="106" height="87" fill="none" xmlns="http://www.w3.org/2000/svg"><path d="M85.436 16.584H19.794v4.066h65.642v-4.066zm2.033 69.708H17.76V43.708h4.066v38.518h61.522V43.708h4.12v42.584z" fill="#fff"/><path d="M105.176 45.794H0l18.67-29.21h67.836l18.67 29.21zm-97.74-4.12h90.25L84.26 20.705H20.918L7.436 41.674z" fill="#fff"/><path d="M65.588 19.42l-3.798-1.552c.481-1.23.749-2.514.749-3.798 0-5.51-4.494-9.95-9.95-9.95-5.458 0-9.951 4.44-9.951 9.95 0 1.337.267 2.621.749 3.798l-3.799 1.552a14.245 14.245 0 01-1.07-5.35C38.518 6.313 44.831 0 52.588 0c7.757 0 14.07 6.313 14.07 14.07 0 1.872-.374 3.638-1.07 5.35zm9.416 44.991h-9.576v4.708h9.576v-4.708z" fill="#fff"/></svg>