<svg width="97" height="72" fill="none" xmlns="http://www.w3.org/2000/svg"><path d="M58.452 59.438L42.444 43.43 32.129 53.801c-3.551 3.551-8.286 5.524-13.303 5.524-5.016 0-9.751-1.973-13.302-5.524C1.973 50.251 0 45.516 0 40.5c0-5.017 1.973-9.751 5.524-13.302l.113-.113c3.55-3.551 8.285-5.524 13.302-5.524 5.017 0 9.751 1.973 13.302 5.524L42.5 37.343l19.559-19.56 3.044 3.044-19.616 19.56 16.008 16.007-3.043 3.044zM18.939 25.9c-3.89 0-7.497 1.522-10.259 4.228l-.112.112C5.806 33.002 4.34 36.61 4.34 40.5c0 3.89 1.522 7.497 4.228 10.259 2.762 2.761 6.369 4.227 10.258 4.227 3.89 0 7.497-1.522 10.259-4.227l10.371-10.372-10.315-10.258A14.419 14.419 0 0018.94 25.9z" fill="#fff"/><path d="M33.989 51.885l-3.044-3.044 19.559-19.56-13.584-13.64 3.044-3.043 13.584 13.64 10.371-10.371c7.328-7.328 19.277-7.328 26.605 0 7.327 7.327 7.327 19.277 0 26.605l-.113.112c-3.55 3.551-8.286 5.524-13.302 5.524-5.017 0-9.752-1.973-13.303-5.524L53.548 32.27l-19.56 19.616zm22.603-22.603L66.85 39.484c2.762 2.762 6.37 4.228 10.259 4.228 3.889 0 7.496-1.522 10.258-4.228l.113-.113c5.637-5.636 5.637-14.88 0-20.517-5.636-5.636-14.88-5.636-20.517 0L56.592 29.282zm8.116 42.613a8.953 8.953 0 01-6.37-2.65 8.953 8.953 0 01-2.648-6.369c0-2.423.958-4.678 2.649-6.37a8.953 8.953 0 016.37-2.648c2.423 0 4.677.958 6.368 2.649a8.953 8.953 0 012.65 6.37 8.953 8.953 0 01-2.65 6.369 8.953 8.953 0 01-6.369 2.649zm0-13.697c-1.24 0-2.424.507-3.325 1.353-.902.845-1.353 2.085-1.353 3.325 0 1.24.507 2.424 1.353 3.326.901.902 2.085 1.353 3.325 1.353 1.24 0 2.424-.508 3.326-1.353.902-.846 1.352-2.086 1.352-3.326 0-1.24-.507-2.423-1.352-3.325-.846-.902-2.03-1.353-3.326-1.353z" fill="#fff"/><path d="M33.82 18.009a8.954 8.954 0 01-6.37-2.65c-3.494-3.494-3.494-9.243 0-12.738 3.495-3.495 9.244-3.495 12.739 0 3.495 3.495 3.495 9.244 0 12.739-1.691 1.747-3.946 2.649-6.37 2.649zm0-13.697c-1.184 0-2.424.45-3.326 1.353a4.661 4.661 0 000 6.651c.902.902 2.086 1.353 3.326 1.353 1.24 0 2.423-.508 3.325-1.353a4.661 4.661 0 000-6.651c-.902-.902-2.085-1.353-3.325-1.353z" fill="#fff"/></svg>