<svg width="71" height="72" fill="none" xmlns="http://www.w3.org/2000/svg"><path d="M21.767 71.792c-4.646 0-9.097-1.81-12.471-5.184L.639 57.952 18.832 39.76l6.75 6.75a3.735 3.735 0 002.69 1.124 3.735 3.735 0 002.689-1.125L45.779 31.69c1.467-1.467 1.467-3.913 0-5.38l-6.798-6.7L57.174 1.417l8.657 8.656a17.698 17.698 0 014.841 15.895 17.639 17.639 0 01-4.841 9.047L34.238 66.608a17.64 17.64 0 01-9.048 4.842c-1.125.245-2.299.342-3.423.342zM5.92 57.952l6.016 6.016a13.95 13.95 0 0012.52 3.814 13.981 13.981 0 007.14-3.814L63.19 32.373a13.791 13.791 0 003.814-7.14 13.95 13.95 0 00-3.814-12.52L57.174 6.7l-12.91 12.91 4.107 4.108c2.935 2.934 2.935 7.727 0 10.662l-14.77 14.818a7.51 7.51 0 01-5.33 2.2 7.51 7.51 0 01-5.33-2.2l-4.109-4.108-12.91 12.862zm24.764-30.36l-9.614-9.613-2.628 2.628 9.613 9.613 2.629-2.628zm1.426-17.166L22.498.812l-2.628 2.63 9.614 9.613 2.628-2.628z" fill="#fff"/></svg>