<svg width="35" height="40" viewBox="0 0 35 40" fill="none" xmlns="http://www.w3.org/2000/svg">
<path d="M15.5902 13.4549L21.3673 9.36385C22.0168 8.91753 22.9071 8.88744 23.6207 9.30467C24.3617 9.73796 24.7887 10.5383 24.7156 11.3217L24.2079 18.4938L28.7732 24.4676C29.2726 25.1382 29.3641 26.0178 28.9876 26.6925C28.5966 27.3933 27.81 27.7593 27.0065 27.6337L19.6608 26.6428L13.8967 30.7758C13.2472 31.2221 12.3569 31.2522 11.6433 30.835C10.9023 30.4017 10.4753 29.6013 10.5484 28.818L11.0561 21.6458L6.4908 15.6721C5.99142 15.0015 5.89985 14.1219 6.27636 13.4471C6.66735 12.7464 7.45401 12.3803 8.25749 12.5059L15.5902 13.4549ZM22.5292 10.8693C22.6001 10.8075 22.6969 10.8297 22.7518 10.8618C22.8342 10.9099 22.8601 10.9939 22.8586 11.0619L22.3288 18.5998C22.3098 18.8296 22.3746 19.0396 22.5232 19.2298L27.3181 25.5098C27.3859 25.5839 27.3699 25.6778 27.341 25.7297C27.2975 25.8075 27.2136 25.8273 27.1443 25.8212L19.4517 24.7995C19.2162 24.7651 18.9921 24.8405 18.8228 24.9481L12.7492 29.2444C12.6784 29.3062 12.5815 29.284 12.5267 29.2519C12.4443 29.2038 12.4184 29.1198 12.4199 29.0518L12.9497 21.5139C12.9687 21.2841 12.9039 21.0741 12.7552 20.8839L7.94594 14.6299C7.87809 14.5558 7.89408 14.4619 7.92304 14.41C7.96648 14.3321 8.05034 14.3123 8.11971 14.3184L15.8397 15.3561C16.0753 15.3906 16.2994 15.3151 16.4686 15.2076L22.5292 10.8693Z" fill="#9C63FF"/>
</svg>
