<svg width="52" height="50" viewBox="0 0 52 50" fill="none" xmlns="http://www.w3.org/2000/svg">
<path d="M35.9753 0.806126C36.7217 0.240808 37.7252 0.138056 38.5512 0.614253C39.3772 1.09045 39.7898 2.00954 39.6727 2.93768L37.2906 18.1234L50.1536 26.5346C50.9569 27.0501 51.3468 28.0085 51.1283 28.9306C50.9098 29.8527 50.1966 30.5419 49.2718 30.69L34.0642 33.1367L30.0327 48.0004C29.7749 48.8998 29.0223 49.5664 28.081 49.6525C27.1396 49.7386 26.2516 49.2791 25.7935 48.4386L18.7647 34.7445L3.37333 35.5133C2.4547 35.5601 1.55003 35.0385 1.17678 34.1421C0.780792 33.285 0.982634 32.301 1.63378 31.6283L12.5093 20.7103L7.02751 6.33598C6.69359 5.46225 6.95751 4.46158 7.62527 3.85091C8.31575 3.20094 9.31917 3.09819 10.1906 3.49579L23.9172 10.4135L35.9753 0.806126Z" fill="#FFC700"/>
</svg>
