<svg width="23" height="22" viewBox="0 0 23 22" fill="none" xmlns="http://www.w3.org/2000/svg">
<path d="M7.93514 0.987172C8.0065 0.572689 8.30716 0.218563 8.73317 0.104635C9.15919 -0.00929423 9.59698 0.147351 9.86642 0.47069L14.472 6.17371L21.7169 7.30814C22.1318 7.37967 22.4865 7.68022 22.6007 8.10589C22.715 8.53156 22.5584 8.9688 22.2349 9.23781L16.529 13.8357L15.3975 21.0729C15.3261 21.4874 15.0255 21.8416 14.5995 21.9555C14.1735 22.0694 13.7357 21.9127 13.4662 21.5894L8.86069 15.8864L1.61575 14.752C1.20083 14.6804 0.846198 14.3799 0.73192 13.9542C0.617641 13.5286 0.774193 13.0913 1.0977 12.8223L6.80368 8.22443L7.93514 0.987172Z" fill="#FFC700"/>
</svg>
