<svg width="55" height="56" fill="none" xmlns="http://www.w3.org/2000/svg"><path d="M28.64 1.475C14.227 1.28 2.223 12.99 1.792 27.662 1.363 42.282 12.67 54.356 27.08 54.55c9.295.125 18.05-4.816 22.964-12.965l-11.067-6.81c-2.432 4.074-6.834 6.52-11.457 6.457-7.18-.097-12.859-6.134-12.644-13.444.215-7.31 6.242-13.19 13.423-13.094l.388-13.219h-.049z" fill="#3D248A"/><path d="M26.57 54.599c14.408.347 26.537-11.235 27.123-25.9.584-14.616-10.593-26.81-25.001-27.156-9.294-.224-18.101 4.625-23.101 12.72l10.994 6.929c2.476-4.049 6.903-6.447 11.525-6.336 7.18.173 12.793 6.27 12.501 13.577-.292 7.308-6.382 13.124-13.561 12.95l-.529 13.215.05.001z" fill="#3D248A"/></svg>