<svg width="493" height="311" fill="none" xmlns="http://www.w3.org/2000/svg"><path d="M110.22 144.558c-8.972-15.54-28.753-20.856-44.251-11.859-15.498 8.996-20.8 28.829-11.827 44.369l56.078-32.51zm60.667 115.523l5.914-.715c2.345-.512 4.588.92 5.098 3.271l.918 4.192-4.18.92-10.299 3.476-4.18.92-6.424-11.553-2.651-5.725 11.42-5.418 2.651 5.725 1.733 4.907z" fill="#FF5784"/><path d="M186.692 268.669l-20.699 6.747c-.509.205-.815.818-.713 1.329.204.511.815.818 1.325.716l20.698-6.748c.51-.204.816-.817.714-1.329-.204-.613-.816-.92-1.325-.715zm-18.15-16.153c-.917.613-2.039 1.022-2.957 1.636-.509.306-.611.92-.305 1.431.305.511 1.019.613 1.427.307.918-.614 2.039-1.023 2.957-1.636.51-.307.612-1.022.306-1.431-.306-.512-.918-.614-1.428-.307zm1.836 4.907c-.918.818-1.734 1.636-2.651 2.351-.408.409-.51 1.023-.102 1.534.408.409 1.019.511 1.529.102.918-.818 1.733-1.636 2.651-2.453.408-.409.51-1.023.102-1.534-.408-.409-1.02-.409-1.529 0z" fill="#3D248A"/><path d="M209.225 222.971l4.282-4.192c1.53-1.84 4.181-2.147 6.016-.613l3.263 2.658-2.753 3.271-5.914 9.099-2.753 3.374-12.133-5.112-5.608-2.863 5.71-11.348 5.608 2.863 4.282 2.863z" fill="#FF5784"/><path d="M226.864 220.006l-12.235 18.095c-.306.511-.204 1.125.306 1.431.51.307 1.121.205 1.427-.306l12.236-18.096c.306-.511.204-1.124-.306-1.431-.408-.307-1.02-.204-1.428.307zm-24.063-1.636c-.306 1.022-.917 2.045-1.325 3.067-.204.511.102 1.125.612 1.329.509.205 1.121-.102 1.325-.613.408-1.023 1.02-2.045 1.326-3.067.204-.511-.102-1.125-.714-1.329-.51-.205-1.122.102-1.224.613zm4.385 2.76c-.204 1.125-.306 2.352-.612 3.476-.102.614.204 1.125.816 1.227.611.102 1.121-.204 1.223-.818.204-1.124.408-2.351.612-3.578a1.06 1.06 0 00-.816-1.227c-.509 0-1.121.409-1.223.92zM85.75 106.936c2.752 5.929 1.02 13.495-5.404 13.904-1.122.102-2.244-.307-3.263-.716-2.447-1.022-3.977-2.863-5.098-5.112-1.224-2.351-2.04-5.111-3.06-7.769-.101-.307-.509-.512-.815-.409-.306.102-.51.511-.408.818 1.02 2.658 1.836 5.52 3.06 7.871 1.325 2.454 3.058 4.601 5.811 5.623 1.224.511 2.55.818 3.773.716 7.34-.511 9.584-8.894 6.423-15.744-.102-.307-.51-.409-.816-.307-.203.409-.305.818-.204 1.125z" fill="#3D248A"/><path d="M68.416 106.936c-1.427-.102-3.059-.307-4.078-1.431-1.428-1.534-1.53-4.499.612-5.316 1.02-.41 2.039-.205 3.058-.103.306 0 .612-.204.714-.613 0-.307-.204-.614-.612-.614-1.223-.102-2.447-.306-3.568.205-2.957 1.227-3.06 5.214-1.02 7.361 1.224 1.329 3.16 1.738 4.894 1.738.306 0 .612-.205.612-.614 0-.306-.204-.613-.612-.613zM78.918 240.35v41.2c0 .614.51 1.022 1.02 1.022.611 0 1.02-.511 1.02-1.022v-41.2c0-.613-.51-1.022-1.02-1.022s-1.02.511-1.02 1.022z" fill="#3D248A"/><path d="M79.02 237.079l22.024 44.982c.306.512.917.716 1.427.512.51-.307.714-.921.51-1.432l-22.024-44.982c-.305-.511-.917-.716-1.427-.511-.51.204-.714.817-.51 1.431z" fill="#3D248A"/><path d="M79.02 236.056l-22.023 44.983c-.306.511 0 1.125.51 1.431.51.307 1.12 0 1.427-.511l22.023-44.983c.306-.511 0-1.124-.51-1.431-.51-.204-1.12 0-1.427.511zM149.068.92v37.213c0 .511.408.92.917.92.51 0 .918-.409.918-.92V.92a.915.915 0 00-.918-.92.915.915 0 00-.917.92zm75.043 252.005l15.193 31.079c.306.511.917.715 1.427.511.51-.307.714-.92.51-1.431l-15.192-31.079c-.306-.511-.918-.716-1.428-.511-.612.306-.815.92-.51 1.431zm74.636-60.727l44.965 91.806c.306.511.918.715 1.428.511.509-.307.713-.92.509-1.431l-44.965-91.908c-.305-.511-.917-.716-1.427-.511-.51.307-.714.92-.51 1.533zm-104.408-1.022l-22.432 45.903c-.306.511 0 1.124.51 1.431.51.307 1.121 0 1.427-.511l22.432-45.903c.306-.511 0-1.124-.51-1.431-.51-.205-1.224 0-1.427.511zm-39.561 80.867l-5.404 11.041c-.306.511 0 1.124.509 1.431.51.307 1.122 0 1.428-.511l5.404-11.041c.306-.512 0-1.125-.51-1.432-.51-.204-1.122 0-1.427.512z" fill="#3D248A"/><path d="M298.747 191.176l-44.965 91.805c-.306.512 0 1.125.51 1.432.51.306 1.122 0 1.427-.511l44.965-91.806c.306-.511 0-1.124-.509-1.431-.51-.205-1.122 0-1.428.511zM121.64 209.68c-3.773 2.454-26.306 16.153-51.898 12.064-8.565-1.329-13.663-4.907-16.722-9.099-7.035-9.814-2.55-23.616-2.55-23.616.103-.307.307-.409.613-.409h67.09c11.216 0 21.514 6.134 27.02 15.949 8.667 15.539 20.596 37.213 20.596 37.213.102.102.102.306.102.511 0 .204-.204.306-.306.409l-17.231 9.098c-.306.103-.612.103-.816-.204L121.64 209.68zm-69.946-19.731c-.713 2.352-3.466 13.7 2.447 22.083 2.855 3.987 7.75 7.258 15.907 8.587 27.53 4.396 51.49-12.268 51.49-12.268.102-.102.306-.102.51-.102.204 0 .306.102.408.307l26 41.915 16.212-8.485-20.291-36.702c-5.2-9.405-15.09-15.233-25.898-15.233H51.694v-.102zm142.033 24.843l-37.726-19.731c-.306-.205-.408-.511-.306-.818.204-.307.51-.409.816-.307l38.235 20.038c.306.102.408.511.306.818l-6.015 14.517c-.102.204-.204.307-.408.307-.204.102-.306 0-.51 0l-30.283-16.255c-.306-.205-.407-.512-.306-.818.204-.307.51-.409.816-.307l29.671 15.948 5.71-13.392zM65.561 96.406c0 3.17 9.992 10.734 20.8 10.223 9.687-.511 11.216-16.255 0-19.015-13.255-3.272-20.8 8.792-20.8 8.792z" fill="#3D248A"/><path d="M69.028 99.575c-1.02 0-1.937.102-2.957.307-2.447.613-4.384 3.067-2.447 5.418 1.631 1.943 7.953 2.761 5.71 6.645-1.632 2.658-5.506 2.352-8.055 1.738-6.118-1.431-10.4-6.645-11.318-12.472-.917-5.93 4.18-12.064 9.89-13.29 4.895-1.023 11.318.715 12.542 6.134l-3.365 5.52z" fill="#3D248A"/><path d="M55.671 105.914c-5.71.306-10.604 1.431-15.09 5.316-4.996 4.396-5.71 12.574.611 16.255 4.589 2.658 11.012 1.431 15.193-1.534 1.427-1.022 2.855-2.147 3.976-3.578.306-.511.612-.92.816-1.431.102-.205.408-1.022.306-.716-.408 1.943-.51 3.987.816 5.623 2.854 3.578 8.564 1.227 9.89-2.454 1.53-4.396-.714-7.974-2.447-11.859l-14.071-5.622z" fill="#3D248A"/><path d="M82.895 133.21v.613c-.102.818-.408 1.84-1.122 2.556-.51.511-1.121.92-1.835.92-1.632 0-2.651-.92-3.263-2.249-.714-1.84-.612-4.396-.306-5.725a.766.766 0 01.714-.511c.306.102.51.409.51.715-.306 1.227-.408 3.374.204 5.01.407.92 1.02 1.533 2.039 1.533.51 0 .918-.306 1.121-.715.306-.511.51-1.125.612-1.636 0-.409 0-.818-.102-1.227 0-.204-.204-.409-.204-.613v-.409a1.4 1.4 0 01.306-.409c.102-.102.306-.102.612 0 .204.102.408.204.612.409.306.204.51.613.713.818.612.511 1.122 1.124 1.938 1.329.51.204 1.121.204 1.631.102.204-.102.51-.204.612-.409.204-.204.204-.511.102-.92-.204-1.125-.918-1.636-1.632-2.454-.203-.306-.203-.613.102-.92.306-.204.612-.204.918.102.816.921 1.53 1.636 1.835 2.965.204.818 0 1.432-.305 1.943-.306.409-.816.715-1.326.818-.714.204-1.631.102-2.345-.205-.816-.307-1.53-.818-2.141-1.431z" fill="#fff"/><path d="M76.98 180.953l50.778-11.553c.306-.102.713.103.713.512.102.306-.102.715-.509.715l-51.083 11.655c-.204 0-.408 0-.51-.103 0 0-18.659-17.277-26.102-31.078-1.631-3.067-2.753-5.93-2.957-8.384-.306-2.658.306-4.907 2.141-6.542 6.73-6.134 14.071-3.476 20.393 2.146 8.259 7.361 14.886 19.629 16.11 21.878l41.906-3.373c.306 0 .611.204.713.613 0 .307-.204.613-.611.716l-42.416 3.373c-.204 0-.51-.102-.612-.306 0 0-6.933-13.904-16.008-21.878-5.812-5.112-12.541-7.77-18.761-2.147-1.53 1.329-1.937 3.271-1.733 5.418.306 2.352 1.325 5.112 2.855 7.974 6.933 12.575 23.45 28.319 25.694 30.364zm127.147-3.885H127.86v4.6h76.267v-4.6zm11.42-32.51h-50.165l-11.522 32.51h50.267l11.42-32.51z" fill="#3D248A"/><path d="M128.471 157.235c1.122-4.601 3.977-8.69 8.361-10.735.918-.409 2.549-.818 3.977-.613.714.102 1.325.306 1.733.818.204.306.306.715.306 1.226-.102 1.023-.816 1.534-1.631 1.841-1.02.409-2.243.511-3.263.715-2.753.716-4.894 2.556-5.71 5.419-.102.306.102.715.408.817.306.103.714-.102.816-.408.713-2.352 2.549-3.885 4.792-4.499 1.019-.306 2.243-.409 3.365-.818 1.223-.511 2.243-1.329 2.447-2.964.102-.92-.102-1.636-.51-2.147-.408-.511-.918-.92-1.632-1.125-1.733-.511-4.282-.102-5.607.511-4.793 2.249-7.852 6.645-9.075 11.655-.102.307.102.716.408.716.408.102.714-.103.815-.409z" fill="#3D248A"/><path d="M133.366 156.519c3.364-1.738 7.647-3.169 11.113-1.125.918.512 1.734 1.023 2.142 1.943.611 1.227.305 2.965-1.224 3.067-.51 0-1.122-.307-1.631-.614-.714-.408-1.326-.92-1.938-1.226-1.427-.716-3.058-.716-4.588-.92-.306 0-.612.204-.714.613 0 .307.204.613.612.716 1.428.102 2.855.102 4.079.715.713.307 1.427 1.023 2.243 1.431.612.409 1.325.614 2.039.512 2.447-.205 3.161-2.863 2.243-4.908-.51-1.226-1.631-1.942-2.651-2.555-3.874-2.25-8.667-.818-12.337 1.124-.306.205-.408.511-.306.818.306.409.612.511.918.409z" fill="#3D248A"/><path d="M136.934 158.87c2.243 1.023 3.977 1.841 4.589 4.601.101.409.203 1.022 0 1.533-.102.409-.306.716-.714.818-.306.102-.612-.102-.816-.409-.408-.306-.816-.818-1.121-1.124-1.224-1.023-2.753-1.432-4.181-1.84-.306-.103-.714.102-.714.408-.102.307.102.716.408.716 1.326.307 2.651.716 3.773 1.534.408.306.917.92 1.427 1.329.51.306 1.02.511 1.632.409.713-.205 1.223-.614 1.529-1.33.306-.817.306-1.84.102-2.555-.816-3.067-2.651-4.09-5.302-5.316-.306-.103-.714 0-.816.306-.306.409-.102.716.204.92zm-41.498-30.567c1.835-2.454 4.282-3.579 6.627-3.476 2.447.102 4.793 1.533 6.526 3.987 3.874 5.52 3.569 13.188 3.976 19.629 0 .306.306.613.612.613s.612-.307.612-.613c-.306-6.748-.204-14.62-4.18-20.345-2.04-2.862-4.793-4.396-7.546-4.498-2.752-.102-5.608 1.125-7.749 3.987-.204.307-.102.716.102.92.408.102.816.102 1.02-.204zm56.385 10.734a73.637 73.637 0 01-7.036-9.712c-.204-.307-.611-.409-.815-.204-.306.204-.408.613-.204.817 2.141 3.374 4.588 6.85 7.137 9.815.204.306.612.306.918.102.204-.204.204-.613 0-.818zm11.011-3.885c-1.529-7.667-3.568-15.13-4.69-22.798 0-.306-.408-.613-.713-.511-.306 0-.612.409-.51.716 1.019 7.769 3.161 15.232 4.69 22.9a.767.767 0 00.714.511c.306-.204.509-.511.509-.818zm12.134-1.329c1.02-4.294 2.345-8.587 3.772-12.779.102-.307-.101-.716-.407-.818-.306-.102-.714.102-.816.409-1.428 4.192-2.753 8.588-3.773 12.882-.102.306.102.715.51.715.306.102.612-.102.714-.409z" fill="#3D248A"/><path d="M189.954 157.439c-.51-.204-1.223-.102-1.835.204-.714.409-1.529 1.227-1.937 2.352-.408 1.124-.408 2.249-.102 3.067.204.613.611 1.124 1.223 1.329.51.204 1.224.102 1.836-.205.713-.409 1.529-1.226 1.937-2.351.408-1.125.408-2.249.102-3.067-.204-.613-.612-1.125-1.224-1.329zm-.408 1.125c.204.102.408.306.51.613a3.141 3.141 0 01-.102 2.147c-.306.818-.815 1.431-1.325 1.738-.306.102-.51.204-.714.102a1.047 1.047 0 01-.51-.613 3.14 3.14 0 01.102-2.147c.306-.818.816-1.431 1.326-1.738.204-.102.509-.205.713-.102z" fill="#fff"/><path d="M408.458 227.264c2.243-11.041 9.38-33.021 32.118-41.711 10.4-3.987 24.368 1.125 22.839 14.62-.51 4.6-2.957 8.485-6.118 11.756-3.059 3.272-6.933 6.032-10.298 8.383-5.71 4.09-12.745 8.486-18.761 13.802-5.913 5.214-10.91 11.143-12.541 18.402a.767.767 0 01-.714.511.769.769 0 01-.51-.716c1.734-7.463 6.832-13.699 12.95-19.117 6.015-5.316 13.153-9.815 18.862-13.904 3.365-2.351 7.036-5.009 10.095-8.281 2.957-3.169 5.302-6.747 5.811-11.041 1.428-12.37-11.521-16.971-21.106-13.29-27.427 10.53-31.608 40.791-32.219 46.311-.102.614-.102.92-.102.92-.102.512-.612.512-.714.512 0 0-.51-.103-.51-.614 0-9.61-1.427-14.108-4.078-17.686-1.53-2.045-3.671-2.454-5.71-1.636-3.263 1.329-6.22 5.521-6.22 11.246 0 9.201 3.161 18.913 8.667 26.274.204.306.102.715-.102.92-.306.204-.714.102-.918-.102-5.608-7.566-8.972-17.584-8.972-27.092 0-6.236 3.364-10.939 7.035-12.37 2.549-1.023 5.302-.512 7.239 2.044 2.04 2.863 3.365 6.134 3.977 11.859z" fill="#3D248A"/><path d="M410.599 252.516c-.204-19.118 16.416-42.018 32.832-49.788.305-.102.407-.511.305-.817-.102-.307-.509-.409-.815-.307-16.824 7.974-33.75 31.385-33.546 50.912 0 .307.306.613.612.613s.612-.306.612-.613zm-10.298-22.594c1.325 5.112 2.345 9.917 2.957 15.131 0 .307.306.613.713.511.306 0 .612-.307.51-.716-.611-5.316-1.631-10.223-2.957-15.335-.102-.306-.407-.511-.713-.409-.408.103-.612.409-.51.818z" fill="#3D248A"/><path d="M418.348 251.903c-.204.204-.204.613 0 .817.204.205.51.307.816.103 0 0 8.87-5.521 20.188-.512 2.855 1.227 4.69.921 5.812 0 1.02-.92 1.427-2.453 1.121-4.293-.407-2.454-2.039-5.316-4.792-6.85-2.957-1.738-6.525-1.431-10.094.102-4.996 2.045-10.094 6.645-13.051 10.633zm2.753-1.432c3.569-1.431 10.604-3.067 18.863.614 2.141.92 3.67.92 4.486.204.816-.613.918-1.84.714-3.169-.306-2.147-1.835-4.601-4.181-6.032-2.651-1.533-5.811-1.227-8.972.102-3.977 1.841-8.055 5.01-10.91 8.281z" fill="#00D5FF"/><path d="M394.591 253.027c.204.102.51.102.714-.102.204-.205.204-.511.102-.716 0 0-3.977-9.098-12.542-9.303-2.243-.102-4.078.716-5.2 1.738-.917.818-1.427 1.942-1.325 2.965.102 1.022.714 2.147 2.141 2.965 1.631.92 3.263 1.124 5.098 1.124 1.632 0 3.365-.204 5.098-.204 2.243 0 4.181.715 5.914 1.533zm-1.122-1.84c-1.427-2.454-4.894-6.85-10.604-7.054-1.937-.102-3.466.613-4.384 1.533-.51.512-.816 1.227-.816 1.841.102.715.612 1.431 1.53 1.942 1.427.818 2.957 1.022 4.486 1.022 1.631 0 3.365-.204 5.2-.204 1.53 0 3.161.409 4.588.92zM340.245 27.092H231.147c-.51 0-1.02.409-1.02 1.022v143.842c0 .511.408 1.023 1.02 1.023h109.098c.51 0 1.02-.409 1.02-1.023V28.012c0-.511-.51-.92-1.02-.92zm-108.079 1.942h107.162v141.9H232.166v-141.9zm178.739-1.636h-59.138c-.51 0-1.019.41-1.019 1.023v143.842c0 .511.407 1.022 1.019 1.022h59.138c.51 0 1.019-.409 1.019-1.022V28.319c0-.512-.509-.92-1.019-.92zm-58.22 1.943h57.2v141.9h-57.2v-141.9zM492.27 294.227H.612c-.306 0-.612.307-.612.613v14.62c0 .307.306.613.612.613H492.27c.306 0 .612-.306.612-.613v-14.62c0-.306-.306-.613-.612-.613zm-.612 14.517H1.224v-13.29h490.434v13.29z" fill="#3D248A"/><path d="M351.971 40.484h58.934c.408 0 .612-.306.612-.613 0-.409-.306-.613-.612-.613h-58.934c-.408 0-.612.306-.612.613s.306.613.612.613zm59.546 8.895c0 .409-.306.613-.612.613h-58.934c-.408 0-.612-.307-.612-.613 0-.41.306-.614.612-.614h58.934c.408 0 .612.205.612.614zm-59.546 10.223h58.934c.408 0 .612-.307.612-.613 0-.41-.306-.614-.612-.614h-58.934c-.408 0-.612.307-.612.614 0 .306.306.613.612.613zm0 9.508h58.934c.408 0 .612-.307.612-.614 0-.409-.306-.613-.612-.613h-58.934c-.408 0-.612.306-.612.613 0 .41.306.614.612.614zm0 9.61h58.934c.408 0 .612-.307.612-.614 0-.409-.306-.613-.612-.613h-58.934c-.408 0-.612.306-.612.613s.306.614.612.614zm-.204 9.61h58.934c.408 0 .612-.307.612-.614 0-.409-.306-.613-.612-.613h-58.934c-.408 0-.612.306-.612.613-.102.307.204.614.612.614zm.204 9.507h58.934c.408 0 .612-.307.612-.613 0-.41-.306-.614-.612-.614h-58.934c-.408 0-.612.307-.612.614 0 .306.306.613.612.613z" fill="#3D248A"/><path d="M150.087 56.33c3.977 0 7.24 3.272 7.24 7.26 0 3.986-3.263 7.258-7.24 7.258-3.976 0-7.239-3.272-7.239-7.259-.102-3.987 3.161-7.258 7.239-7.258z" fill="#FFC700"/><path d="M179.656 62.362c0-16.357-13.255-29.647-29.569-29.647s-29.569 13.29-29.569 29.647h59.138z" fill="#3D248A"/><path d="M391.328 258.752h38.134l-9.585 26.172h-18.964l-9.585-26.172z" fill="#FFC700"/><path d="M340.653 154.065c-14.376-7.974-24.369-10.018-34.259-19.015-9.176-8.383-13.765-19.322-16.823-30.67-.102-.307-.408-.511-.816-.409-.306.102-.51.409-.408.818 3.161 11.655 7.851 22.798 17.232 31.283 9.992 9.099 19.984 11.144 34.463 19.118.305.204.713.102.917-.205.102-.306 0-.715-.306-.92z" fill="#3D248A"/><path d="M318.222 142.717c-1.428-10.427-2.141-21.468-1.428-31.998 0-.409-.204-.716-.611-.716-.408 0-.714.204-.714.613-.714 10.633 0 21.674 1.427 32.204 0 .306.408.613.714.511.408.102.714-.205.612-.614zm-19.781-16.663c-4.996-1.432-12.031-.512-16.721 1.431-.306.102-.51.511-.306.818.102.306.51.511.815.306 4.487-1.84 11.216-2.76 15.906-1.431.306.102.714-.102.816-.409 0-.204-.204-.613-.51-.715z" fill="#3D248A"/><path d="M328.214 93.646c1.02 2.76.306 6.849-2.345 9.814-2.651 3.067-6.628 4.396-9.686 3.885-1.02-2.76-.306-6.748 2.447-9.815 2.549-2.964 6.525-4.293 9.584-3.884z" fill="#00D5FF"/><path d="M300.481 85.57c4.486-.205 10.094 2.35 13.662 7.156 3.569 4.907 4.079 10.836 2.345 14.721-4.384.205-10.094-2.351-13.662-7.259-3.569-4.702-4.181-10.734-2.345-14.619zm-39.562 24.74c4.487-.205 10.095 2.351 13.663 7.156 3.569 4.907 4.079 10.837 2.345 14.722-4.384.204-10.094-2.352-13.662-7.259-3.467-4.703-4.079-10.735-2.346-14.619zm3.671-21.47c3.671-2.35 9.89-2.76 15.498-.306 5.608 2.556 9.177 7.463 9.687 11.757-3.671 2.351-9.891 2.76-15.499.204-5.506-2.453-9.176-7.36-9.686-11.654zm40.785 18.505c1.529 2.045 1.937 5.623.51 8.792-1.428 3.169-4.385 5.214-7.036 5.52-1.529-2.044-1.937-5.622-.51-8.792 1.428-3.067 4.385-5.213 7.036-5.52zm-11.93 46.311c-.204-3.271 1.734-7.36 5.506-9.814 3.773-2.556 8.463-2.862 11.522-1.533.204 3.169-1.734 7.258-5.506 9.814-3.773 2.556-8.463 2.862-11.522 1.533z" fill="#00D5FF"/><path d="M290.896 84.956c2.141 1.533 3.569 4.805 3.161 8.28-.408 3.477-2.549 6.34-4.996 7.361-2.039-1.533-3.569-4.804-3.161-8.28.408-3.374 2.651-6.237 4.996-7.361zm46.189 32.305c.611 3.17-.816 7.463-4.181 10.428-3.466 2.965-8.055 3.885-11.317 2.863-.612-3.169.815-7.463 4.282-10.428 3.365-2.965 7.953-3.885 11.216-2.863zm-70.864 37.009c-2.549-3.578-3.058-9.61-.509-14.824 2.549-5.316 7.647-8.69 12.031-9.099 2.447 3.579 3.059 9.508.51 14.824-2.549 5.214-7.545 8.588-12.032 9.099z" fill="#00D5FF"/><path d="M327.5 187.905H142.644v3.782H327.5v-3.782z" fill="#3D248A"/><path d="M102.063 232.785H58.016v7.667h44.047v-7.667z" fill="#00D5FF"/></svg>