<svg width="316" height="167" fill="none" xmlns="http://www.w3.org/2000/svg"><path d="M214.68 7.752c1.932-2.185 4.284-4.118 5.879-6.555a.547.547 0 00-.168-.756.546.546 0 00-.755.168c-1.596 2.353-3.948 4.286-5.795 6.387a.647.647 0 00.084.84c.252.168.588.168.755-.084zm4.368 7.563c4.367-1.093 8.818-2.605 13.269-3.362.336-.084.504-.336.42-.672-.084-.336-.336-.504-.672-.42-4.451.84-8.986 2.269-13.353 3.445-.336.084-.504.42-.42.673.168.252.504.42.756.336zm-.84 8.151c3.023.756 6.215 1.764 9.154 2.689.336.084.588-.084.756-.336.084-.336-.084-.589-.336-.757-2.939-.924-6.131-1.932-9.238-2.689-.336-.084-.588.084-.672.42-.168.253 0 .589.336.673zM106.76 22.373c-2.772.925-5.795 1.429-8.399 2.69-.252.167-.42.504-.252.756.169.252.504.42.756.252 2.604-1.26 5.543-1.765 8.231-2.605.336-.084.42-.42.336-.757 0-.252-.336-.42-.672-.336zm0-8.655c-4.367-1.26-8.987-2.185-13.186-3.697-.336-.084-.588.084-.756.336-.084.336.084.588.336.756 4.284 1.513 8.903 2.521 13.27 3.698.336.084.588-.085.672-.42.168-.337 0-.589-.336-.673zm4.871-6.638c-2.268-2.185-4.451-4.622-6.551-6.89-.252-.253-.588-.253-.84 0-.252.251-.252.587 0 .84 2.1 2.352 4.368 4.79 6.635 6.974.252.252.588.252.84 0 .168-.336.084-.672-.084-.924zm79.236 104.909c12.025 4.81 29.806 7.37 43.405 2.355 3.567-1.316 8.342-3.647 12.039-6.846 2.564-2.148 4.553-4.655 5.369-7.425 1.467-4.783-2.78-8.409-6.205-9.804-6.13-2.552-16.074-2.05-23.067 2.681-.258.159-.358.575-.164.757.158.259.574.358.756.165 6.624-4.533 16.116-5.057 21.941-2.647 1.56.628 3.285 1.701 4.422 3.244 1.097 1.432 1.754 3.216 1.102 5.229-.821 2.582-2.705 4.86-5.046 6.926-3.626 3.046-8.29 5.336-11.745 6.611-13.3 4.968-30.781 2.361-42.578-2.343a.574.574 0 00-.78.288c.123.334.246.669.551.809zm112.272-79.624v7.008c0 .46.344.805.804.805a.785.785 0 00.803-.804v-7.01a.785.785 0 00-.803-.803.785.785 0 00-.804.804zm12.057 10.455h-7.005a.785.785 0 00-.803.805c0 .46.344.804.803.804h7.005c.46 0 .804-.345.804-.804 0-.46-.459-.805-.804-.805zm-12.057 4.94v7.01c0 .46.344.804.804.804a.785.785 0 00.803-.804v-7.01a.785.785 0 00-.803-.803.785.785 0 00-.804.804zm-3.33-4.94h-7.005a.785.785 0 00-.804.805c0 .46.344.804.804.804h7.005a.785.785 0 00.803-.804.785.785 0 00-.803-.805zm-188.565 87.133v10.221c0 .67.502 1.173 1.172 1.173.67 0 1.173-.503 1.173-1.173v-10.221c0-.671-.503-1.173-1.173-1.173s-1.172.502-1.172 1.173zm17.584 15.247h-10.216c-.669 0-1.172.503-1.172 1.173 0 .671.503 1.173 1.172 1.173h10.216c.67 0 1.172-.502 1.172-1.173 0-.67-.67-1.173-1.172-1.173zm-17.584 7.205v10.221c0 .671.502 1.173 1.172 1.173.67 0 1.173-.502 1.173-1.173v-10.221c0-.67-.503-1.173-1.173-1.173s-1.172.503-1.172 1.173zm-4.857-7.205H96.172c-.67 0-1.172.503-1.172 1.173 0 .671.502 1.173 1.172 1.173h10.215c.67 0 1.173-.502 1.173-1.173 0-.67-.503-1.173-1.173-1.173zm-46.894-11.101c-15.745-1.158-33.437-5.713-43.502-18.78-5.249-6.864-8.585-16.27-3.656-24.546 2.107-3.563 4.143-6.973 7.018-9.996 3.426-3.416 7.956-6.416 12.25-8.507 14.403-6.957 31.592-7.724 48.621-5.14 25.677 3.89 51.287 15.338 67.101 24.765.305.14.604.094.821-.176.141-.305.094-.605-.176-.822-15.966-9.497-41.729-21.016-67.593-24.9-17.293-2.613-34.705-1.764-49.33 5.276-4.518 2.172-9.159 5.213-12.656 8.782-2.951 2.988-5.058 6.55-7.2 10.19C6.01 98.867 9.44 108.872 15 116.065c10.223 13.325 28.296 18.056 44.305 19.243.34.065.557-.205.622-.546.14-.305-.094-.598-.434-.663zm85.732-76.853c-2.604 0-5.039-1.428-6.383-3.697-3.695-6.386-10.498-18.15-15.369-26.554a4.709 4.709 0 010-4.706 4.728 4.728 0 014.115-2.353h8.399c1.007 0 1.847-.84 1.847-1.848 0-1.009-.84-1.849-1.847-1.849h-8.399c-3.023 0-5.795 1.597-7.223 4.202a8.355 8.355 0 000 8.403c4.872 8.403 11.674 20.167 15.37 26.554 1.931 3.36 5.627 5.462 9.574 5.462v-3.614h-.084zm47.451-37.31h7.055a4.83 4.83 0 014.115 2.353 4.709 4.709 0 010 4.706c-4.871 8.487-11.757 20.252-15.453 26.638-1.26 2.185-3.611 3.613-6.215 3.613v3.698c3.864 0 7.475-2.017 9.407-5.378 3.695-6.387 10.498-18.151 15.453-26.638a8.35 8.35 0 000-8.403c-1.512-2.605-4.283-4.202-7.223-4.202h-7.055c-1.007 0-1.847.84-1.847 1.849 0 .924.756 1.764 1.763 1.764z" fill="#3D248A"/><path d="M180.919 10.861h-34.518l8.65-7.227h17.217l8.651 7.227zM170 99.598h-12.093l3.023-29.83h6.047L170 99.597z" fill="#FF5784"/><path d="M133.383 10.861h60.721l-15.201 61.595-14.949 7.563-15.454-7.563-15.117-61.595z" fill="#3D248A"/><path d="M182.178 108.59h-35.777l8.986-15.462h17.889l8.902 15.462z" fill="#FF5784"/><path d="M183.69 106.237h-39.977v15.377h39.977v-15.377zm-99.108-8.451A10.541 10.541 0 0074 108.374a10.541 10.541 0 0010.582 10.588 10.541 10.541 0 0010.582-10.588c0-5.882-4.787-10.588-10.582-10.588zm0 1.092a9.394 9.394 0 019.406 9.412 9.393 9.393 0 01-9.406 9.411 9.393 9.393 0 01-9.406-9.411c0-5.126 4.199-9.412 9.406-9.412zm224.205-14.092a4.786 4.786 0 00-4.787 4.79c0 2.605 2.1 4.79 4.787 4.79a4.786 4.786 0 004.787-4.79c0-2.69-2.099-4.79-4.787-4.79zm0 1.176a3.585 3.585 0 013.611 3.614 3.585 3.585 0 01-3.611 3.613 3.586 3.586 0 01-3.611-3.613c.084-2.017 1.679-3.614 3.611-3.614zm-62.588-33.176c2.268 0 4.199 1.849 4.199 4.201 0 2.27-1.847 4.202-4.199 4.202-2.267 0-4.199-1.849-4.199-4.202a4.16 4.16 0 014.199-4.201z" fill="#3D248A"/><path d="M162.526 30.104l-3.36 3.193c-.755.673-1.931.673-2.603-.084-.672-.756-.672-1.932.084-2.605l6.467-6.218c.504-.504 1.344-.672 2.015-.336.672.252 1.092.924 1.092 1.68v22.437c0 1.008-.84 1.849-1.847 1.849a1.865 1.865 0 01-1.848-1.85V30.105z" fill="#fff"/></svg>