<svg width="677" height="588" fill="none" xmlns="http://www.w3.org/2000/svg"><path d="M507.183 292.254c28.277-6.558 54.015 19.235 72.883 41.294 18.859 22.047 38.325 50.738 29.473 78.368-8.425 26.297-44.388 27.231-67.927 41.668-17.074 10.471-29.417 27.605-49.276 30.214-24.865 3.266-53.235 3.355-70.919-14.427-18.351-18.452-25.497-48.946-16.332-73.303 8.192-21.769 40.847-18.609 57.157-35.193 19.931-20.266 17.252-62.198 44.941-68.621z" fill="#FFC700"/><path d="M52.766 362.052c-8.154-41.251-8.943-83.732 4.19-124.436 13.836-42.879 35.837-84.984 72.705-113.883 37.098-29.077 85.363-51.18 132.642-47.073 45.778 3.977 68.462 57.209 112.647 68.38 51.423 13.001 111.328-23.133 158.205.098 49.323 24.443 107.57 73.447 95.304 125.534-14.16 60.139-114.061 63.99-151.915 114.881-25.364 34.099 13.826 95.981-22.564 119.692-37.594 24.496-85.825-16.811-130.732-19.807-32.253-2.152-63.3 6.729-95.566 4.71-42.745-2.673-91.086 5.966-124.456-18.472-33.89-24.818-42.546-69.59-50.46-109.624z" fill="#fff"/><path d="M512.262 441.115c0-1.26-.498-2.467-1.395-3.379a4.797 4.797 0 00-3.371-1.395h-53.234a4.815 4.815 0 00-3.371 1.395 4.764 4.764 0 00-1.395 3.379c0 1.261.498 2.468 1.395 3.38a4.801 4.801 0 003.371 1.395h53.234a4.82 4.82 0 003.371-1.395 4.765 4.765 0 001.395-3.38z" fill="#fff"/><path d="M277.526 419.241c0-2.628-2.135-4.774-4.762-4.774h-33.085c-2.633 0-4.762 2.146-4.762 4.774 0 2.629 2.135 4.775 4.762 4.775h33.085a4.758 4.758 0 004.762-4.775zm-163.968 12.351c0-2.629-2.134-4.775-4.765-4.775h-7.554c-2.632 0-4.765 2.146-4.765 4.775a4.774 4.774 0 004.765 4.774h7.554c2.631-.026 4.765-2.145 4.765-4.774z" fill="#E1E1E1"/><path d="M487.887 414.493c0-2.628-2.134-4.774-4.765-4.774h-7.554c-2.632 0-4.765 2.146-4.765 4.774 0 2.629 2.133 4.775 4.765 4.775h7.554c2.631-.027 4.765-2.146 4.765-4.775z" fill="#fff"/><path d="M234.914 447.707a4.847 4.847 0 00-1.396-3.38 4.8 4.8 0 00-3.371-1.394h-62.093a4.816 4.816 0 00-3.371 1.394 4.801 4.801 0 00-1.396 3.38c0 1.261.507 2.468 1.396 3.38a4.8 4.8 0 003.371 1.395h62.093c1.261 0 2.471-.51 3.371-1.395a4.847 4.847 0 001.396-3.38z" fill="#E1E1E1"/><path d="M368.499 233.931H257.937v34.616h110.562v-34.616z" fill="#00D5FF"/><path d="M490.989 290.439h-56.38v30.891h56.38v-30.891z" fill="#FF5784"/><path d="M308.929 327.408h-78.333v64.327h78.333v-64.327z" fill="#FFC700"/><path d="M402.617 324.138c8.276-13.612 5.467-29.919-6.274-36.406-11.74-6.487-27.98-.706-36.257 12.905l42.531 23.501z" fill="#FF5784"/><path d="M406.406 270.311s-10.678 4.507-17.846-2.041c-7.549-6.911-3.362-11.701-.529-12.004 8.331-.849 18.375 14.045 18.375 14.045zm-47.425 67.739l-12.149 23.22c-2.906 5.558-5.005 11.438-6.095 17.541-1.09 6.043-1.332 12.206-.565 18.37l.807 6.325.464 5.457 10.919-.95-.465-5.456-.282-6.366c-.222-4.951.383-9.862 1.614-14.611 1.231-4.668 3.25-9.114 5.853-13.257l13.965-22.169 4.037-7.033-14.067-8.103-4.036 7.032zm19.246 13.044l.295 20.525c.086 6.069 1.721 11.742 4.91 16.371 3.11 4.538 7.426 8.237 12.812 10.276l6.773 2.576 4.915 2.145 4.99-10.226-4.916-2.145-6.466-3.224c-3.046-1.514-5.314-3.998-6.898-6.877-1.521-2.772-2.061-6.05-1.787-9.452l1.661-20.613.263-8.209-16.289.644-.263 8.209z" fill="#3D248A"/><path d="M342.665 419.542l-.489-2.836-.326-3.854 7.701-.646.326 3.854-.022 5.266.228 2.68-11.296 2.861-2.476.813-1.619-4.966 2.477-.814 5.496-2.358z" fill="#FF5784"/><path d="M335.6 431.467l14.647-4.008a.848.848 0 00.588-1.034.827.827 0 00-1.029-.582l-14.647 4.008a.847.847 0 00-.588 1.034.827.827 0 001.029.582zm6.064-14.904c.666.04 1.332-.081 1.998-.04a.865.865 0 00.888-.789.852.852 0 00-.787-.889c-.646-.04-1.312.101-1.978.061a.824.824 0 00-.888.788c-.06.424.303.829.767.869zm.303 3.031c.686.142 1.392.344 2.079.465a.83.83 0 10.282-1.637c-.686-.121-1.352-.303-2.038-.444-.444-.102-.888.202-.989.646a.842.842 0 00.666.97z" fill="#3D248A"/><path d="M419.275 406.402l-2.515-.965-3.216-1.613 4.105-7.178 3.215 1.613 4.114 2.62 2.237 1.121-4.521 11.473-.845 2.608-4.861-1.012.844-2.607 1.443-6.06z" fill="#FF5784"/><path d="M424.928 418.805l5.397-14.558c.156-.442-.029-.891-.44-1.002-.41-.11-.872.167-1.028.61l-5.398 14.557c-.156.442.03.891.44 1.002.411.111.873-.167 1.029-.609zm-8.838-13.214c.418-.559.712-1.196 1.13-1.756.285-.393.231-.902-.084-1.151-.342-.242-.833-.129-1.133.255-.406.542-.685 1.189-1.103 1.748-.3.384-.258.91.084 1.152.315.249.806.136 1.106-.248zm2.719 1.424c.51-.531 1.078-1.05 1.572-1.591.333-.366.349-.883.056-1.169-.309-.296-.811-.237-1.145.129-.494.541-1.022 1.035-1.532 1.565-.337.339-.365.874-.083 1.178.293.285.811.236 1.132-.112zm-59.142-70.056l18.668 13.702 15.398.748 1.897-9.317-32.31-11.114-3.653 5.981zm28.523-18.09l-10.538-6.304c-.169-.095-.243-.303-.184-.52a.647.647 0 01.382-.452l15.073-4.945c.251-.085.496.088.522.352.026.264-.151.558-.401.644l-13.9 4.567 10.645 6.387c.169.095.243.303.184.52a.607.607 0 01-.413.447l-13.086 3.119 9.61 5.653c.169.095.243.303.184.52-.059.217-.202.386-.413.446l-13.49 3.892c-.25.086-.496-.087-.513-.382-.026-.265.15-.558.401-.644l12.254-3.525-9.694-5.701c-.169-.095-.243-.302-.184-.519.058-.217.21-.418.413-.447l13.148-3.108zm-23.15-30.294c-4.339 2.647-7.992 3.314-11.019 2.688-2.805-.586-5.046-2.284-6.781-4.487-2.644-3.374-4.117-7.901-4.521-11.579a.492.492 0 00-.565-.445.493.493 0 00-.444.566c.404 3.84 1.958 8.569 4.723 12.085 1.876 2.385 4.339 4.203 7.366 4.85 3.229.687 7.144.02 11.765-2.809a.5.5 0 00.162-.707.496.496 0 00-.686-.162zm-24.661-18.318c-.201-3.172-1.029-6.77-3.047-9.296-.343-.424-1.07-1.212-1.796-1.556-.646-.303-1.312-.303-1.837.283a2.083 2.083 0 00-.544 1.273c-.081.627.04 1.294.181 1.839.484 1.839 1.171 3.618 1.594 5.457a.523.523 0 00.606.384.522.522 0 00.383-.607c-.444-1.859-1.13-3.637-1.614-5.496a4.782 4.782 0 01-.182-1.233c0-.344.081-.687.303-.95.182-.202.424-.162.666-.04.585.282 1.17.929 1.433 1.273 1.897 2.364 2.644 5.759 2.825 8.73.02.283.262.485.545.465a.488.488 0 00.484-.526z" fill="#3D248A"/><path d="M338.217 272.061c-.403-.95-.787-1.92-1.352-2.809a4.718 4.718 0 00-2.482-1.9c-.707-.202-1.413-.182-1.978.122-.605.323-1.11.97-1.271 2.081-.142.97.181 1.981.787 2.91.827 1.293 2.199 2.425 3.309 2.991.424.222 1.171.505 1.857.546.565.04 1.07-.101 1.413-.465a.489.489 0 00-.02-.707.487.487 0 00-.707.02c-.141.161-.383.182-.625.161-.525-.02-1.11-.262-1.453-.424-.989-.505-2.18-1.495-2.907-2.627-.444-.707-.746-1.475-.625-2.203.101-.687.363-1.132.747-1.334.363-.182.787-.161 1.231-.04.746.222 1.473.768 1.917 1.455.525.829.888 1.738 1.271 2.647a.513.513 0 00.666.283c.202-.161.343-.444.222-.707z" fill="#3D248A"/><path d="M331.537 270.929c-.444-.06-.908-.141-1.372-.08-1.574.161-2.24 1.879-1.897 3.253.262 1.092 1.776 2.829 3.37 3.618 1.191.565 2.402.606 3.249-.283a.49.49 0 00-.02-.708.487.487 0 00-.706.021c-.545.565-1.312.424-2.079.06-1.312-.646-2.603-2.041-2.825-2.93-.202-.808.081-1.9 1.029-2.001.363-.04.747.041 1.11.081a.501.501 0 00.565-.424.494.494 0 00-.424-.607zm.309 11.4c.626 3.577 2.28 6.992 4.016 10.145 4.056 7.396 13.986 19.744 31.241 15.076a.532.532 0 00.363-.627.531.531 0 00-.626-.364c-16.629 4.487-26.175-7.457-30.09-14.57-1.675-3.072-3.31-6.366-3.915-9.842a.48.48 0 00-.585-.404c-.263.041-.444.303-.404.586zm57.306-14.891c-3.413 3.738-4.043 7.258-3.026 9.862 1.041 2.652 3.753 4.436 7.19 4.629 1.162.073 2.373-.217 3.462-.603 2.543-.868 4.116-2.507 5.327-4.484 1.138-1.905 1.936-4.123 2.856-6.269a.501.501 0 00-.266-.675.506.506 0 00-.678.265c-.92 2.098-1.67 4.292-2.784 6.148-1.089 1.785-2.494 3.255-4.769 4.051-.969.338-2.058.603-3.075.53-2.978-.192-5.399-1.687-6.295-4.002-.92-2.339-.242-5.449 2.833-8.801a.523.523 0 00-.024-.723c-.242-.145-.557-.121-.751.072zm17.495 2.889s-7.435-6.611-9.521-8.933c-6.17-6.897 5.599-13.043 8.772-3.645 1.766 5.181.928 9.273.749 12.578z" fill="#3D248A"/><path d="M401.513 276.204c3.532-1.859 7.866-4.587 9.473-8.245.782-1.798.212-4.385-2.305-3.294-1.966.869-2.981 2.749-3.911 4.527-.994 1.879-3.257 7.012-3.257 7.012zm20.458 70.41c4.282-6.961 5.08-17.6 2.703-26.996-2.635-10.348-9.368-20.34-18.202-24.275-4.205-1.863-8.388-.373-9.544 4.009-1.141 4.378 1.495 8.966 5.307 11.901 5.817 4.457 8.739 6.418 10.962 11.733 2.525 6.021 3.522 12.747 1.58 18.082a.624.624 0 00.273.715c.244.155.505.071.595-.185 2.032-5.591 1.012-12.624-1.625-18.93-2.316-5.546-5.311-7.626-11.369-12.277-3.418-2.622-5.863-6.691-4.84-10.611 1.014-3.898 4.744-5.16 8.46-3.509 8.509 3.78 14.973 13.447 17.494 23.413 2.31 9.1 1.549 19.418-2.611 26.172-.138.21-.058.542.154.744.24.234.525.223.663.014zm-13.036.952c-.645-.057-1.327-.095-1.972-.209-1.04-.171-2.008-.532-2.761-1.33-1.201-1.235-.681-3.381.717-4.141.825-.456 1.918-.399 2.797-.285 1.363.171 2.833.513 4.142.95.268.095.412.38.322.646a.506.506 0 01-.645.322 20.517 20.517 0 00-3.945-.892c-.681-.095-1.523-.19-2.151.152-.843.474-1.201 1.766-.466 2.526.609.627 1.38.893 2.205 1.026.914.152 1.883.171 2.743.266a.522.522 0 01.395.228.555.555 0 01.107.342c0 .076-.036.19-.089.304-.054.076-.18.209-.216.266-.089.133-.179.285-.286.418-.323.455-.664.873-1.022 1.272-.251.285-.52.57-.789.855-.538.589-1.417 1.634-1.793 2.698-.197.588-.269 1.158.09 1.633.107.133.286.19.466.19.251.019.52-.038.735-.114.591-.228 1.111-.665 1.595-1.159.556-.55 1.058-1.158 1.542-1.652.323-.323.61-.665.915-.988.018-.019.233-.285.287-.323.251-.209.484-.114.555-.095a.576.576 0 01.269.228.552.552 0 01.072.418.73.73 0 01-.233.399c-.09.095-.251.209-.323.304-.269.38-.502.779-.735 1.178-.376.645-.843 1.348-1.111 2.108-.234.627-.305 1.292.053 1.957.09.152.215.19.359.171.161 0 .341-.057.502-.133.986-.399 1.596-1.501 2.187-2.375.251-.361.502-.741.699-1.14.072-.152.144-.322.234-.474.035-.076.143-.304.179-.323a.487.487 0 01.609-.171c.036.019.431.171.287.646-.305 1.063-.878 2.26-1.111 3.457-.216 1.026-.162 2.051.699 2.887.412.399.896.247 1.345-.057.573-.399 1.093-1.045 1.362-1.538 1.255-2.356 1.847-5.338.986-7.903-.125-.38-.269-.969-.502-1.482-.107-.247-.233-.474-.394-.588a.522.522 0 01-.144-.722c.162-.228.484-.304.718-.133.304.209.573.589.77 1.026.234.531.395 1.177.538 1.576.951 2.85.341 6.136-1.057 8.719-.395.741-1.256 1.767-2.17 2.185-.735.342-1.506.323-2.169-.342-1.076-1.064-1.255-2.317-1.04-3.609-.466.57-.986 1.064-1.632 1.33-.771.304-1.685.341-2.151-.513-.52-.931-.448-1.881-.126-2.793l.054-.114c-.484.437-1.004.817-1.578 1.026-.394.152-.95.228-1.416.133-.376-.076-.717-.247-.95-.57-.574-.76-.574-1.672-.233-2.602.43-1.197 1.398-2.394 1.99-3.04.251-.285.52-.57.789-.855.287-.361.609-.759.896-1.177zm-79.763-73.003a1.76 1.76 0 00-.989.384c-1.19 1.051-.928 2.688-.08 3.86.706.99 2.018 1.697 3.229 1.697.524 0 .989-.161 1.473-.263a.515.515 0 00.404-.586c-.061-.282-.323-.464-.586-.404-.444.081-.847.243-1.291.243-.908 0-1.857-.546-2.382-1.273-.545-.748-.827-1.819-.06-2.506a.802.802 0 01.363-.142.53.53 0 00.484-.545.548.548 0 00-.565-.465zm85.377-17.215c1.716-1.94 3.815-3.658 5.268-5.82a.502.502 0 00-.142-.707.5.5 0 00-.706.141c-1.433 2.122-3.491 3.82-5.187 5.719a.509.509 0 00.041.708.53.53 0 00.726-.041zm3.895 6.71c3.915-.991 7.891-2.284 11.847-3.032.282-.06.464-.323.403-.586-.06-.283-.323-.465-.585-.404-3.976.728-7.972 2.041-11.907 3.031a.505.505 0 00-.363.627c.06.283.343.444.605.364zm-.787 7.275c2.684.666 5.51 1.556 8.153 2.404a.529.529 0 00.646-.323.53.53 0 00-.323-.647c-2.664-.848-5.489-1.758-8.213-2.425a.509.509 0 00-.606.364c-.101.283.061.546.343.627z" fill="#3D248A"/><path d="M195.987 307.167c-6.28-19.265-24.732-31.925-41.194-28.265-16.463 3.661-24.725 22.262-18.445 41.527l59.639-13.262z" fill="#00D5FF"/><path d="M146.901 260.69s9.87 5.217 17.576-1.148c8.117-6.719 4.589-11.88 1.869-12.344-8.001-1.321-19.445 13.492-19.445 13.492zm27.855 77.848l8.586 39.763.48 2.502 3.905 24.239.663 5.38 9.986-3.333-.663-5.38-2.192-24.81-.383-3.264-5.742-40.89-1.384-7.821-14.676 5.786 1.42 7.828zm-28.491-1.114l-.546 33.582-.201 2.635-5.386 31.79-1.095 5.195 10.306 4.385 1.095-5.195L158.152 379l.722-4.548 2.965-32.938.426-8.088-15.58-4.063-.42 8.061z" fill="#3D248A"/><path d="M138.586 424.795l3.735 3.872 1.779 1.491-3.485 4.58-1.779-1.491-6.636-4.417-1.835-1.536 3.524-7.974 1.906-3.805 6.329 2.733-1.906 3.805-1.632 2.742z" fill="#00D5FF"/><path d="M141.692 436.85l-11.447-8.595c-.341-.268-.886-.1-1.189.332-.312.455-.271 1.023.07 1.292l11.448 8.595c.34.268.886.1 1.188-.332.313-.455.271-1.023-.07-1.292zm-.702-16.276c-.613-.146-1.136-.458-1.74-.625-.423-.111-.907.22-1.094.719-.187.498.022.977.446 1.087.612.146 1.145.485 1.766.609.424.111.908-.221 1.095-.719.159-.483-.041-.983-.473-1.071zm-1.52 2.696c-.67-.044-1.339-.04-1.999-.106-.447-.045-.909.336-1.032.823-.122.488.13.95.567.969.679.071 1.374.051 2.044.095.428.04.89-.341 1.004-.855.114-.467-.147-.908-.584-.926zm46.022-92.262l-21.63 11.23-14.454-1.999 1.239-10.286 33.394-5.992 1.451 7.047zm-21.922-72.037c2.605 3.611 2.889 6.845 1.756 9.203-1.13 2.332-3.647 3.74-6.558 3.779-.994.021-2.019-.335-2.923-.709-2.121-.916-3.338-2.529-4.17-4.421-.895-1.971-1.376-4.267-2.009-6.473-.087-.279-.355-.418-.627-.309a.58.58 0 00-.335.68c.651 2.257 1.176 4.581 2.065 6.601.928 2.096 2.294 3.868 4.662 4.897 1.016.43 2.155.817 3.291.805 3.336-.041 6.191-1.73 7.498-4.377 1.28-2.624 1.066-6.278-1.825-10.304-.163-.234-.469-.25-.702-.064-.251.136-.286.458-.123.692zm-16.981 1.493s7.778-6.309 10.012-8.553c6.609-6.665-3.872-13.514-7.916-4.156-2.246 5.177-1.903 9.368-2.096 12.709z" fill="#3D248A"/><path d="M150.87 266.47c-3.171-2.078-7.013-5.083-8.144-8.889-.548-1.871.286-4.473 2.571-3.229 1.784.988 2.546 2.953 3.238 4.812.741 1.964 2.335 7.306 2.335 7.306zm-31.091 93.444c-.207 1.361-.737 2.618-2.034 3.517-.794.566-1.477.431-2.03-.027-.682-.588-1.113-1.786-1.25-2.617-.422-2.907.05-6.38 1.75-9.118.234-.387.576-1.02.963-1.522.309-.413.665-.755 1-.916.253-.115.522-.001.595.261.072.262-.091.58-.35.714-.178.089-.36.301-.531.535-.359.466-.674 1.063-.902 1.431-1.56 2.497-1.949 5.636-1.562 8.269.086.552.332 1.302.734 1.813.304.39.686.63 1.175.293 1.027-.726 1.385-1.748 1.51-2.837.156-1.247.023-2.593.08-3.736.014-.492.416-.598.454-.611.091-.024.375-.071.488.281.01.022.035.275.059.362.033.171.028.356.06.527.052.443.158.876.269 1.29.255.998.456 2.233 1.208 2.814.125.086.267.176.404.223.127.025.26.031.371-.112.517-.6.658-1.293.651-1.996-.011-.806-.201-1.626-.336-2.354-.084-.449-.168-.898-.289-1.335-.034-.109-.142-.254-.193-.367-.08-.181-.103-.33-.083-.45a.88.88 0 01.192-.415.765.765 0 01.309-.187c.075-.026.305-.064.464.194.035.048.144.358.154.381.171.384.33.807.507 1.171.277.591.535 1.301.858 1.962.277.591.613 1.151 1.058 1.466.151.112.372.217.616.244.165.012.336.004.472-.113.465-.424.583-1.04.583-1.658-.006-1.156-.463-2.379-.758-3.076-.135-.336-.286-.675-.436-1.014a15.666 15.666 0 01-.514-1.482c-.039-.152-.093-.307-.126-.478-.024-.087-.1-.226-.108-.31a.72.72 0 01.215-.659.59.59 0 01.42-.164c.792.052 1.657.201 2.514.205.773.007 1.538-.131 2.272-.667.88-.631.967-2.037.366-2.67-.451-.46-1.244-.512-1.862-.53a18.38 18.38 0 00-3.773.227c-.267.051-.475-.155-.473-.443.003-.288.224-.574.486-.606a18.957 18.957 0 013.965-.251c.815.036 1.802.168 2.393.779 1 1.041.783 3.328-.641 4.368-.923.664-1.893.865-2.858.881-.608.005-1.224-.075-1.814-.129.142.481.289.943.474 1.392.135.335.286.674.436 1.013.32.784.826 2.182.828 3.461-.001 1.01-.272 1.967-1.009 2.626-.3.27-.661.406-1.018.418a2.023 2.023 0 01-1.215-.383c-.429-.311-.773-.791-1.083-1.326l.012.126c.005.991-.224 1.977-.972 2.84-.677.794-1.476.596-2.066.151-.532-.414-.841-1.011-1.079-1.676zm114.581-81.637c.422-.302.826-.622 1.211-.942.29-.249.579-.516.869-.783.753-.658 4.596-4.166 7.35-5.809.766-.46 1.451-.757 1.98-.858.491-.102.901-.006 1.158.214.293.239.47.585.534.966a2.79 2.79 0 01-.175 1.426c-.163.413-.884 1.289-1.854 2.306-1.203 1.266-2.808 2.817-4.103 4.028.038-.017.094-.035.133-.052.911-.313 1.851-.372 2.755.164.831.482.766 1.403.442 2.176-.283.647-.787 1.164-1.364 1.626 1.283-.199 2.517-.02 3.535 1.097.637.678.613 1.455.272 2.191-.441.916-1.481 1.751-2.225 2.157-2.615 1.355-5.881 1.925-8.65.946-.39-.132-1.024-.303-1.542-.563-.425-.205-.793-.481-.99-.791a.546.546 0 01.154-.721c.23-.16.547-.083.709.154.107.164.329.294.569.406.481.241 1.078.394 1.45.526 2.526.903 5.473.347 7.839-.886.497-.264 1.15-.761 1.563-1.352.314-.447.479-.933.097-1.354-.819-.879-1.812-.947-2.832-.744-1.171.218-2.39.78-3.451 1.072-.455.139-.612-.261-.63-.297a.505.505 0 01.188-.612c.019-.018.248-.124.325-.177.153-.088.323-.14.476-.228.4-.193.783-.441 1.148-.689.881-.584 1.989-1.184 2.413-2.172.062-.162.123-.342.147-.504.004-.145-.01-.29-.158-.364-.627-.37-1.287-.307-1.932-.081-.74.261-1.468.721-2.118 1.091-.401.23-.803.459-1.186.725-.096.071-.214.232-.31.321-.155.143-.289.213-.402.23a.65.65 0 01-.411-.078.687.687 0 01-.217-.274c-.035-.073-.103-.309.111-.559.039-.054.309-.267.328-.285.329-.303.695-.605 1.004-.908.697-.677 4-3.704 6.095-5.917.834-.874 1.476-1.606 1.638-1.966.081-.197.145-.468.135-.739-.014-.181-.046-.362-.174-.472-.055-.037-.111-.038-.186-.039-.113-.002-.227.033-.378.067-.417.121-.894.367-1.448.685-2.697 1.608-6.463 5.044-7.197 5.685-.289.249-.579.516-.868.783-.406.356-.848.693-1.289 1.013-.135.088-.269.195-.422.283-.077.053-.193.178-.27.213a.565.565 0 01-.637-.027.573.573 0 01-.214-.4c-.067-.869-.056-1.845-.179-2.769-.106-.833-.345-1.613-.946-2.236-.71-.751-2.016-.408-2.511.435-.357.628-.29 1.496-.216 2.166.129 1.322.387 2.717.762 3.988a.52.52 0 01-.339.646c-.266.086-.562-.062-.628-.334a22.619 22.619 0 01-.813-4.187c-.086-.887-.108-1.99.367-2.815.813-1.399 2.949-1.875 4.115-.666.746.787 1.073 1.768 1.23 2.801.128.724.145 1.412.163 2.063zm-97.021 48.436l.467-1.008c.884-1.967 3.115-2.836 5.074-1.907.954.464 2.014.976 3.019 1.439 1.165.557 2.461.613 3.625.128 1.165-.486 2.047-1.459 2.501-2.716.315-.954 1.052-1.723 1.914-2.05.912-.378 1.898-.312 2.8.155.796.421 1.593.841 2.335 1.214 2.176 1.119 4.717.24 5.741-2.029.14-.302.277-.655.469-.959.513-1.11 1.454-1.936 2.577-2.221 1.123-.286 2.374-.079 3.34.634.109.095.214.141.323.237 1.18.855 2.642 1.154 4.018.761 1.376-.394 2.465-1.374 3.069-2.735.462-1.108 1.403-1.934 2.474-2.218a3.84 3.84 0 013.284.537c.75.521 1.5 1.043 2.195 1.516a3.438 3.438 0 002.866.451 3.244 3.244 0 002.126-1.958 228.794 228.794 0 001.247-2.972c.091-.251-.03-.595-.241-.687-.266-.14-.519-.032-.659.27 0 0-.599 1.461-1.247 2.972-.275.705-.87 1.221-1.533 1.392a2.262 2.262 0 01-2.033-.33c-.696-.473-1.446-.995-2.195-1.516-1.232-.853-2.692-1.103-4.068-.709-1.376.393-2.514 1.424-3.118 2.786-.464 1.058-1.354 1.882-2.425 2.166a3.81 3.81 0 01-3.183-.589c-.108-.096-.214-.142-.322-.238-1.234-.903-2.749-1.2-4.176-.805-1.428.395-2.568 1.377-3.221 2.789a5.483 5.483 0 01-.47.96c-.793 1.715-2.773 2.426-4.421 1.537-.742-.372-1.592-.841-2.335-1.213a4.108 4.108 0 00-3.576-.18 4.245 4.245 0 00-2.452 2.665c-.366.955-1.049 1.773-1.96 2.151a3.369 3.369 0 01-2.849-.104c-.954-.465-2.013-.976-3.019-1.439-2.436-1.161-5.227-.125-6.345 2.346l-.466 1.009c-.091.251-.022.597.241.687.214.142.518.033.609-.219z" fill="#3D248A"/><path d="M144.954 290.843c-2.095-2.762-4.199-4.279-6.15-4.959-4.521-1.656-8.278.984-9.628 1.921-7.699 5.393-11.9 15.124-13.676 24.916-1.805 9.799-1.195 19.624.622 25.263 1.241 3.791 2.696 8.521 5.088 11.866.162.232.471.324.636.142.205-.153.199-.491.037-.723-2.32-3.208-3.704-7.801-4.895-11.527-1.774-5.496-2.322-15.107-.572-24.669 1.75-9.562 5.816-19.116 13.369-24.368 1.242-.878 4.724-3.391 8.896-1.856 1.783.637 3.697 2.04 5.63 4.569.162.233.46.289.665.136.146-.141.17-.484-.022-.711z" fill="#3D248A"/><path d="M147.313 291.097c2.554 3.39 1.51 6.727-1.051 9.883-4.05 4.973-11.85 9.445-16.389 12.95-9.031 6.986-8.494 18.748-8.27 22.568.169 2.696.309 6.043 1.442 8.552.125.248.412.37.645.242.234-.103.344-.404.243-.653-1.084-2.41-1.196-5.607-1.361-8.178-.22-3.671-.793-15.007 7.891-21.714 4.562-3.531 12.431-8.078 16.55-13.102 2.883-3.535 3.938-7.296 1.065-11.108-.171-.223-.48-.269-.688-.091-.209.127-.248.453-.077.651zm24.417-12.78c1.955-3.495 6.899-3.902 10.478-2.239 4.058 1.866 9.777 4.479 20.698 9.467 2.508 1.154 5.866 1.391 9.592.984 5.497-.611 11.88-2.579 17.525-5.056.258-.102.369-.407.258-.645a.533.533 0 00-.664-.271c-5.534 2.443-11.806 4.411-17.23 4.988-3.541.373-6.714.17-9.076-.882-10.883-4.988-16.639-7.601-20.697-9.468-4.022-1.832-9.556-1.255-11.77 2.681-.147.238-.037.543.185.679.258.068.553 0 .701-.238zm26.258 24.636a36.929 36.929 0 0029.651-8.856c3.693-3.258 6.777-5.972 6.777-5.972a.493.493 0 00.034-.713.49.49 0 00-.712-.034s-3.084 2.715-6.777 5.972a35.917 35.917 0 01-28.838 8.619c.034 0-.135.984-.135.984z" fill="#3D248A"/><path d="M204.392 417.819l5.751.25 2.456-.125 1.201 5.401-2.456.125-8.244 1.252-2.531.129-3.895-7.761-1.699-3.848 6.677-2.211 1.698 3.849 1.042 2.939z" fill="#00D5FF"/><path d="M215.492 424.357l-14.817 1.614c-.451.04-.703.51-.578 1.001.136.513.612.873 1.063.833l14.818-1.615c.45-.04.702-.51.577-1.001-.136-.513-.612-.872-1.063-.832zm-12.429-11.133c-.549.297-1.165.423-1.724.699-.386.199-.466.739-.202 1.2.263.461.791.653 1.177.454.548-.297 1.193-.41 1.73-.727.387-.199.466-.739.202-1.2-.287-.425-.814-.617-1.183-.426zm.822 2.991c-.507.402-.977.836-1.496 1.218-.351.257-.374.816-.072 1.229.302.413.849.567 1.173.298.535-.39 1.012-.852 1.519-1.254.335-.25.358-.809.028-1.234-.292-.393-.8-.515-1.152-.257zm116.705-98.442h22.907c.262 0 .525-.207.525-.483s-.197-.482-.525-.482H320.59c-.263 0-.525.206-.525.482s.197.483.525.483zm0 10.5h22.907c.262 0 .525-.207.525-.483s-.197-.482-.525-.482H320.59c-.263 0-.525.206-.525.482s.197.483.525.483zm-.008 10.467h11.454a.488.488 0 00.492-.483.488.488 0 00-.492-.483h-11.454a.488.488 0 00-.492.483c-.033.276.197.483.492.483zm65.222-147.868l8.412 11.127-13.66.977 5.248-12.104zm-272.487 81.981l8.413 11.126-13.661.977 5.248-12.103z" fill="#3D248A"/><path d="M274.171 256.241l40.627 24.561-38.484 21.195-2.143-45.756z" fill="#FF5784"/><path d="M200.41 252.769l4.193 4.435c.184.212.184.532-.017.709a.5.5 0 01-.705-.035l-4.511-4.754a.48.48 0 010-.674l4.511-4.754a.5.5 0 01.705-.035c.201.177.201.497.017.709l-4.193 4.399zm-9.668 0l4.193 4.435c.184.212.184.532-.017.709a.5.5 0 01-.705-.035l-4.511-4.754a.48.48 0 010-.674l4.511-4.754a.5.5 0 01.705-.035c.201.177.201.497.017.709l-4.193 4.399zm-9.685 0l4.192 4.435c.185.212.185.532-.016.709a.5.5 0 01-.705-.035l-4.511-4.754a.479.479 0 010-.674l4.511-4.754a.5.5 0 01.705-.035c.201.177.201.497.016.709l-4.192 4.399zm267.661 126.247H219.019c-.49 0-.98-.424-.98-.991v-70.424c0-.283.245-.495.49-.495s.49.212.49.495v70.424h229.699V218.986H219.019v60.799a.504.504 0 01-.49.496.504.504 0 01-.49-.496v-60.799c0-.566.49-.99.98-.99h229.699c.49 0 .98.424.98.99v159.039c0 .567-.49.991-.98.991zm-327.612-81.615c5.264 5.751 10.649 11.202 16.631 16.294.24.18.539.18.718-.059.18-.24.18-.54-.06-.719-5.922-5.033-11.247-10.424-16.512-16.175a.543.543 0 00-.718-.06c-.239.179-.239.479-.059.719z" fill="#3D248A"/><path d="M333.368 291.11c2.632-1.378 4.666-3.414 7.059-5.212 2.154-1.617 4.427-3.055 6.521-4.732.24-.18.24-.48.06-.719-.179-.24-.478-.24-.718-.06-2.094 1.677-4.367 3.115-6.521 4.733-2.333 1.737-4.307 3.714-6.88 5.092-.239.12-.359.419-.179.659.119.299.419.359.658.239zm78.133 42.655c4.786 2.156 9.751 4.253 14.358 6.769.239.12.538.06.658-.18.119-.239.06-.539-.18-.659-4.606-2.516-9.632-4.612-14.418-6.769-.239-.12-.538 0-.658.24-.119.179 0 .479.24.599zM188.41 289.014c1.795-3.655 3.889-7.369 6.282-10.664.179-.239.119-.539-.12-.719-.239-.179-.538-.119-.718.12-2.393 3.355-4.487 7.129-6.341 10.784-.12.239 0 .539.239.659.239.179.538.059.658-.18zm-23.65-59.363c1.115-2.127 1.927-4.591 3.329-6.49.143-.211.095-.536-.114-.759-.219-.198-.51-.201-.677-.007-1.432 1.928-2.248 4.437-3.392 6.593-.118.228-.026.566.204.739.237.194.532.152.65-.076zm-7.298-2.599c-.413-4.079-.583-8.28-1.221-12.35-.038-.291-.282-.513-.507-.504-.247-.006-.403.222-.349.51.632 4.05.812 8.227 1.203 12.29.032.271.249.521.487.551.247.007.409-.202.387-.497zm-7.405 2.353c-1.4-2.581-3.03-5.216-4.56-7.703-.149-.245-.425-.332-.632-.199-.19.13-.217.437-.063.703 1.524 2.466 3.131 5.085 4.525 7.646.131.249.42.376.611.247.206-.134.251-.445.119-.694zm159.582 85.07c-14.411-.194-26.415 11.516-26.846 26.187-.43 14.621 10.877 26.694 25.288 26.888 9.295.125 18.051-4.816 22.964-12.965l-11.067-6.811c-2.432 4.075-6.834 6.52-11.457 6.458-7.181-.097-12.859-6.134-12.644-13.444.215-7.311 6.242-13.19 13.423-13.094l.388-13.219h-.049z" fill="#3D248A"/><path d="M309.639 314.475c-14.411-.194-26.415 11.516-26.846 26.187-.43 14.621 10.877 26.694 25.288 26.888 9.295.125 18.051-4.816 22.964-12.965l-11.067-6.811c-2.432 4.075-6.834 6.52-11.457 6.458-7.181-.097-12.859-6.134-12.644-13.444.215-7.311 6.242-13.19 13.423-13.094l.388-13.219h-.049z" fill="#3D248A"/><path d="M269.893 356.529c-.24-1.917-1.077-3.894-1.675-5.691-.359-1.078-.838-2.156-1.197-3.175-1.017-2.576-2.273-5.032-3.23-7.668-.12-.24.059-.539.299-.659.239-.12.538.06.658.3.957 2.576 2.213 5.092 3.23 7.608.419 1.078.838 2.156 1.197 3.235.778 2.216 1.854 4.852 1.854 7.309a.548.548 0 01-.179.419.465.465 0 01-.479.12c-.059 0-.179-.06-.299-.18-.119-.12-.299-.419-.419-.539l-.717-.719c-1.197-1.258-2.154-2.696-3.231-4.014-2.034-2.456-4.068-4.912-6.282-7.249-1.376-1.497-2.812-3.534-4.606-4.673.119.6.418 1.678.538 2.037a54.934 54.934 0 002.154 5.991c2.034 4.913 4.786 10.005 5.743 15.217.06.299-.06.419-.12.479a.327.327 0 01-.299.18c-.06 0-.179 0-.359-.06-.059 0-.179-.12-.239-.24-.179-.18-.419-.599-.598-.779l-.898-1.078c-1.435-1.618-2.871-3.235-4.247-4.853a281.299 281.299 0 00-10.41-11.981c-.359-.36-1.555-1.797-2.572-2.516-.18-.12-.3-.18-.419-.3 0 .06.06.12.06.18.119.24.239.539.299.779.359 1.797.837 3.594 1.316 5.391 1.914 6.83 5.982 14.558 5.803 21.747 0 .24-.12.359-.179.419-.12.12-.3.12-.479.12-.06 0-.18-.06-.239-.18-.06-.06-.18-.239-.24-.359-.359-.36-1.136-1.318-1.436-1.678-1.615-2.156-3.23-4.433-4.786-6.589-2.692-3.775-5.384-7.609-7.897-11.563a.572.572 0 01.18-.718.571.571 0 01.718.179c2.453 3.894 5.145 7.728 7.837 11.503 1.496 2.156 3.171 4.433 4.786 6.589.18.18.479.599.778.959-.299-6.71-4.009-13.839-5.803-20.129-.479-1.797-1.017-3.654-1.376-5.452a6.391 6.391 0 00-.299-.718c-.12-.24-.18-.48-.18-.659 0-.24.06-.42.18-.6.059-.119.239-.179.359-.239.179-.06.418-.06.658 0 .239.06.598.239.897.479 1.077.779 2.393 2.277 2.752 2.696 3.59 3.894 7.059 7.968 10.469 12.041 1.376 1.678 2.752 3.235 4.188 4.853.12.12.18.239.299.359-1.196-4.493-3.529-8.866-5.264-13.06a52.532 52.532 0 01-2.154-6.11c-.12-.419-.479-1.797-.598-2.277-.06-.179-.24-.539-.299-.718-.06-.18-.06-.3 0-.36.059-.18.119-.299.299-.359.119-.06.239-.12.478 0 2.393 1.018 4.188 3.534 5.923 5.391 2.154 2.397 4.248 4.793 6.282 7.309 1.077 1.318 2.034 2.696 3.23 3.954 0 .12.12.24.24.299zm-13.7-105.197c4.666-9.345 13.64-17.972 23.81-20.907 2.453-.719 4.846-.659 7.359-.839.299 0 .478-.24.478-.539 0-.3-.239-.48-.538-.48-2.572.18-5.085.12-7.598.839-10.41 2.995-19.623 11.862-24.409 21.447-.119.24 0 .539.24.659.239.18.538.06.658-.18zm68.022-22.106c-3.291 0-6.462.839-9.333 2.516-1.974 1.138-3.949 2.456-5.624 4.074-1.256 1.198-2.273 2.516-2.991 4.074-3.709 7.907.598 14.258 6.401 19.829 2.992 2.876 6.82 5.452 8.495 9.405 1.616 3.835.778 8.328.18 12.282-.06.299.12.539.419.599.299.059.538-.12.598-.42.658-4.133 1.496-8.806-.239-12.82-1.735-4.074-5.624-6.829-8.735-9.765-5.504-5.212-9.692-11.203-6.222-18.631.658-1.438 1.615-2.636 2.752-3.774 1.615-1.558 3.47-2.816 5.385-3.954 2.692-1.558 5.743-2.337 8.854-2.396.299 0 .478-.24.478-.48.12-.359-.119-.539-.418-.539zm3.948.419c-2.034 3.774-.897 7.968 1.675 11.203 2.513 3.175 6.521 5.452 10.17 5.631 3.411.12 6.581-1.258 9.214-3.474 3.948-3.295 6.88-8.327 8.076-12.641.06-.239-.06-.539-.359-.599-.239-.06-.538.06-.598.36-1.197 4.133-4.008 8.986-7.777 12.161-2.453 2.097-5.385 3.415-8.556 3.295-3.41-.12-7.059-2.277-9.452-5.272-2.333-2.936-3.35-6.65-1.556-10.065.12-.239.06-.539-.179-.659-.239-.299-.538-.179-.658.06zm46.844 10.244c-10.709-.059-21.897 8.807-22.614 19.95-.359 5.391.897 11.083 3.589 15.815.12.24.419.3.658.18.239-.12.299-.419.18-.659-2.633-4.553-3.769-10.064-3.47-15.276.718-10.664 11.426-19.111 21.597-19.051.299 0 .478-.24.478-.479.06-.24-.119-.48-.418-.48zm-121.028 24.503c.718-3.295 2.931-6.051 5.145-8.507 7.538-8.207 19.204-9.406 29.494-6.171 10.23 3.176 19.025 12.94 23.392 22.466.12.239.419.359.658.239.239-.119.359-.419.239-.659-4.486-9.705-13.52-19.709-23.99-22.944-10.649-3.295-22.734-2.037-30.511 6.47-2.333 2.576-4.666 5.511-5.384 8.986a.498.498 0 00.359.599c.299-.06.538-.18.598-.479zm208.803 16.373c-1.317 8.33 5.823 16.869 13.865 18.257 4.506.764 9.151-.555 13.518-1.596 3.328-.833 6.378-1.25 8.389-4.166.138-.208.069-.555-.139-.694-.208-.139-.555-.069-.693.139-1.872 2.638-4.784 2.985-7.834 3.749-4.229 1.041-8.666 2.36-13.102 1.596-7.557-1.319-14.281-9.371-13.034-17.146.07-.278-.138-.556-.415-.556-.208-.069-.486.139-.555.417zm-3.328 46.164c-.901-2.5-1.455-6.318-.693-9.442.485-2.013 1.525-3.748 3.397-4.72 1.525-.764 3.189-1.111 4.853-1.388 1.664-.278 3.327-.209 4.991.138 1.941.417 3.882 1.181 5.408 2.361 4.02 3.193 5.546 9.51 5.13 14.439 0 .278.208.486.485.555.277 0 .485-.208.554-.486.486-5.206-1.178-11.87-5.476-15.272-1.664-1.319-3.744-2.152-5.823-2.568-1.734-.348-3.605-.417-5.339-.139-1.802.277-3.535.694-5.13 1.527-2.149 1.111-3.327 3.124-3.882 5.415-.762 3.332-.208 7.358.763 9.996.069.278.346.417.624.278.069-.139.208-.417.138-.694zm36.604-8.608c-2.981.277-7.141-.903-9.844-3.263-1.733-1.527-2.912-3.54-2.635-5.901.07-.416.278-.763.555-1.11.555-.625 1.248-1.111 1.733-1.528 3.466-2.776 6.863-3.679 10.953-1.666.278.139.555 0 .694-.208.138-.278 0-.555-.208-.694-4.437-2.222-8.181-1.25-11.993 1.805-.486.416-1.318.972-1.872 1.666-.416.486-.763 1.041-.832 1.666-.277 2.777.97 5.068 2.981 6.803 2.911 2.499 7.348 3.818 10.537 3.54.278 0 .486-.277.486-.555-.07-.416-.278-.555-.555-.555zm-65.166-3.054c5.685-.278 8.874-3.61 10.33-8.192 2.218-6.595.901-15.828-.624-21.381-.069-.278-.347-.417-.624-.347-.277.069-.416.347-.347.625 1.526 5.414 2.773 14.369.624 20.756-1.386 4.165-4.229 7.22-9.428 7.497-.277 0-.485.278-.485.556 0 .277.277.486.554.486zm-143.71 55.7l-.658.659c-1.376 1.019-2.752 1.977-4.128 2.936-3.53 2.456-6.76 5.272-10.41 7.488-.538.3-1.076.839-1.615 1.139-.478.239-.957.419-1.495.299-.24-.06-.419-.18-.479-.299-.12-.18-.18-.42-.12-.719.06-.24.24-.54.419-.839.239-.36.538-.719.598-1.019.778-1.857 1.556-3.774 2.513-5.571 2.214-4.313 4.726-8.447 6.94-12.76.119-.24.419-.36.658-.24.239.12.359.419.239.659-2.213 4.313-4.726 8.447-6.94 12.76-.897 1.798-1.675 3.655-2.453 5.512-.179.359-.538.899-.837 1.378 0 .06-.06.06-.06.12.239-.06.539-.18.778-.36.478-.299.897-.659 1.316-.958 3.649-2.217 6.88-5.033 10.35-7.489a174.883 174.883 0 004.128-2.935c.299-.24.837-.779 1.196-1.139.24-.239.479-.359.658-.359.24-.06.419.06.539.18.06.12.179.239.12.539-.599 3.594-1.975 7.069-3.351 10.424-.299.659-.598 1.378-.897 2.037 3.41-1.857 6.641-4.913 9.572-7.309a47.306 47.306 0 003.171-2.876c.239-.239.658-.838.957-1.198.239-.239.419-.419.539-.479.239-.06.418 0 .538.12.06.06.239.239.179.539-.059 2.516-1.495 5.811-2.333 8.088-.598 1.617-1.137 3.235-1.854 4.792-.12.24-.419.36-.658.24-.24-.12-.359-.42-.24-.659.718-1.498 1.257-3.115 1.855-4.673.658-1.857 1.735-4.373 2.154-6.53-.18.18-.3.419-.419.479a50.802 50.802 0 01-3.231 2.936c-3.35 2.756-7.059 6.29-10.948 8.027-.239.12-.419.06-.479 0-.179-.06-.239-.179-.299-.419 0-.06 0-.18.06-.359.06-.18.299-.48.359-.659l1.077-2.516c1.137-2.756 2.333-5.871 2.991-8.987z" fill="#fff"/><path d="M262.355 277.332c-1.855 1.857-3.171 4.014-4.487 6.29-8.256 14.917.957 30.912 13.64 39.479.239.18.538.12.718-.12.179-.239.119-.539-.12-.718-12.264-8.268-21.298-23.724-13.281-38.162 1.196-2.216 2.513-4.313 4.307-6.11.18-.18.18-.539 0-.719-.239-.12-.598-.12-.777.06z" fill="#3D248A"/><path d="M271.209 322.143l-1.496-7.189c-.06-.299.12-.539.419-.599.299-.06.538.12.598.42l1.616 7.788c.059.119 0 .299-.12.419s-.239.18-.359.18h-8.435c-.3 0-.479-.24-.479-.48 0-.299.239-.479.479-.479h7.777v-.06zm71.254-110.901c.333-9.946 8.985-18.044 17.864-19.214 5.154-.639 9.986.731 14.974 2.667a.55.55 0 00.642-.297.74.74 0 00-.331-.719c-5.063-1.93-10.132-3.364-15.436-2.714-9.255 1.199-18.312 9.657-18.65 20.1-.029.333.232.561.469.626.162.07.44-.116.468-.449z" fill="#3D248A"/><path d="M341.587 210.551l6.614-4.541c.2-.176.519-.039.702.19.182.229.08.56-.119.737l-7.099 4.819c-.136.091-.284.102-.37.028a.665.665 0 01-.342-.298l-3.718-8.694c-.109-.235-.007-.566.204-.663.211-.096.53.041.639.276l3.489 8.146zm136.056 121.212c-4.419 27.662-12.573 57.735-31.224 81.981-21.927 28.587-61.088 35.447-79.101 13.459-.132-.192-.48-.188-.695.009-.215.196-.246.506-.113.698 18.34 22.41 58.248 15.463 80.594-13.632 18.754-24.403 27-54.748 31.521-82.566.031-.31-.102-.502-.389-.46-.286.043-.614.279-.593.511z" fill="#3D248A"/><path d="M367.819 424.121l1.226 13.25c.021.233-.186.548-.414.629-.289.043-.475-.072-.558-.344l-1.339-13.872a.817.817 0 01.134-.47c.104-.158.217-.198.393-.2l10.446.02c.238.036.435.267.393.463-.031.313-.248.51-.6.515l-9.681.009z" fill="#3D248A"/></svg>