<svg width="634" height="214" fill="none" xmlns="http://www.w3.org/2000/svg"><path d="M287.377 51.396s-10.044 4.98-17.376-1.065c-7.729-6.361-3.983-11.286-1.281-11.712 8.017-1.3 18.657 12.777 18.657 12.777zm-42.275 68.227l-8.083 35.313-.336 1.612-4.69 25.704-1.148 5.208 10.249 2.498 1.149-5.208 6.7-25.225.319-1.024 10.829-34.509 2.065-7.607-15.018-4.395-2.036 7.633zm23.149 13.591l8.473 19.737.028.055 11.735 27.918 1.796 4.98 9.99-3.952-1.796-4.981-8.921-29.026-.061-.149-6.471-20.524-2.724-7.336-14.774 5.942 2.725 7.336z" fill="#3D248A"/><path d="M229.921 198.207l.398-2.82.857-3.743 7.201 1.393-.856 3.743-1.6 4.988-.591 2.607-11.146-.22-2.5.128.014-5.143 2.5-.128 5.723-.805z" fill="#FF5784"/><path d="M220.002 207.559l14.725.013c.454.002.817-.378.859-.85.043-.473-.331-.839-.785-.84l-14.725-.014c-.453-.001-.816.379-.859.851-.001.452.364.848.785.84zm9.806-12.366c.588.228 1.262.272 1.859.473.412.148.893-.105 1.057-.539.165-.434-.056-.918-.468-1.066-.596-.202-1.236-.265-1.832-.466-.413-.148-.885.077-1.049.511-.174.461.021.938.433 1.087zm-.543 2.907c.587.318 1.156.691 1.778.99.394.202.883.013 1.1-.404a.821.821 0 00-.337-1.116c-.595-.29-1.165-.663-1.726-.974-.394-.203-.874-.041-1.117.369-.225.445-.092.932.302 1.135z" fill="#3D248A"/><path d="M301.709 193.867l5.755-.132 2.479-.28.823 5.097-2.479.28-8.374 1.733-2.552.296-3.35-7.174-1.432-3.571 6.863-2.551 1.432 3.571.835 2.731z" fill="#FF5784"/><path d="M312.592 199.825l-14.474 2.418c-.446.075-.713.511-.641.957a.87.87 0 00.977.7l14.475-2.417c.445-.076.712-.512.64-.958a.87.87 0 00-.977-.7zm-12.113-10.415c-.555.296-1.173.463-1.728.759-.382.214-.523.73-.293 1.132.23.403.742.575 1.124.361.555-.296 1.173-.463 1.753-.771.382-.214.498-.718.268-1.12-.242-.429-.742-.575-1.124-.361zm.82 2.906c-.527.411-1.042.847-1.544 1.246-.356.265-.41.769-.156 1.159a.844.844 0 001.145.221c.54-.385 1.041-.847 1.593-1.269.355-.265.397-.795.131-1.147-.292-.404-.814-.475-1.169-.21zm-55.412-73.835l21.962 14.185 11.832-1.816.095-10.528-32.245-8.569-1.644 6.728zm27.011-18.793l-11.926-5.92c-.182-.07-.289-.301-.261-.47.036-.21.159-.364.362-.42l15.296-4.882a.437.437 0 01.573.342.562.562 0 01-.35.639L262.48 93.47l12.06 5.984c.183.07.29.3.254.51-.035.211-.158.366-.362.422l-13.439 3.084 10.866 5.291c.182.07.289.301.254.511a.495.495 0 01-.362.422l-13.763 3.855c-.258.092-.521-.076-.574-.342-.052-.267.092-.547.343-.597l12.486-3.481-10.953-5.348c-.183-.069-.29-.3-.254-.511.035-.21.165-.407.362-.421l13.5-3.16zm-27.971-28.775c-4.933.422-8.332-.617-10.562-2.498-2.075-1.768-3.148-4.24-3.567-6.952-.643-4.123.3-8.774 1.711-12.176a.49.49 0 00-.264-.656.509.509 0 00-.645.277c-1.493 3.553-2.445 8.392-1.787 12.718.456 2.925 1.631 5.612 3.909 7.52 2.395 2.032 5.987 3.172 11.243 2.725a.53.53 0 00.472-.528.459.459 0 00-.51-.43zM232.25 43.977c1.319-2.83 2.344-6.36 1.841-9.443-.084-.525-.302-1.536-.759-2.16-.4-.562-.961-.825-1.661-.552-.424.162-.783.486-1.061.885-.368.511-.584 1.135-.721 1.671-.46 1.809-.725 3.655-1.246 5.464a.458.458 0 00.325.587c.266.075.52-.112.594-.361.52-1.81.786-3.655 1.259-5.49.104-.36.235-.772.438-1.147.162-.299.395-.56.708-.685.261-.087.438.038.575.238.365.512.531 1.336.584 1.748.476 2.908-.523 6.163-1.761 8.844-.111.262-.015.537.237.637.238.125.513.013.648-.236z" fill="#3D248A"/><path d="M229.652 44.486c.113-1.002.239-2.029.205-3.043-.035-1.015-.509-2.068-1.188-2.745-.504-.49-1.092-.766-1.707-.766-.652.011-1.395.36-2.069 1.262-.581.788-.769 1.815-.724 2.867.083 1.49.704 3.07 1.342 4.048.251.388.738.965 1.299 1.291.465.276.964.377 1.428.203.263-.088.388-.376.316-.639-.073-.263-.35-.376-.613-.289-.201.088-.416-.025-.608-.126-.441-.263-.812-.715-1.018-1.016-.57-.877-1.114-2.255-1.194-3.583-.043-.827.07-1.603.519-2.204.421-.55.841-.813 1.261-.85.382-.025.752.201 1.057.49.514.527.878 1.329.912 2.118.037.952-.086 1.916-.195 2.855a.486.486 0 00.415.54.453.453 0 00.562-.413z" fill="#3D248A"/><path d="M224.601 40.447c-.356-.251-.699-.527-1.11-.678-1.4-.541-2.768.673-3.132 2.027-.301 1.066.141 3.26 1.117 4.642.735 1.029 1.729 1.582 2.869 1.182.263-.087.389-.376.316-.639-.072-.264-.35-.377-.613-.29-.727.263-1.307-.202-1.778-.867-.804-1.13-1.217-2.923-.974-3.826.227-.815.97-1.616 1.815-1.302.326.139.61.352.895.566.226.15.523.113.683-.125a.465.465 0 00-.088-.69zm-4.434 9.99c-1.182 3.442-1.41 7.19-1.443 10.748-.068 5.002.118 14.98 7.448 21.918 4.868 4.603 12.944 7.869 26.253 7.38a.507.507 0 00.498-.518c.002-.29-.198-.494-.484-.481-12.961.475-20.809-2.638-25.583-7.128-7.12-6.696-7.222-16.37-7.149-21.207.04-3.457.262-7.078 1.388-10.42.089-.278-.047-.544-.316-.62-.231-.09-.499.062-.612.328zm50.317-1.055c-3.077 3.82-3.45 7.292-2.29 9.812 1.161 2.52 3.925 4.148 7.217 4.173 1.13.006 2.27-.357 3.308-.748 2.397-.966 3.817-2.652 4.851-4.652.972-1.93 1.593-4.142 2.353-6.261a.523.523 0 00-.308-.654.468.468 0 00-.612.3c-.763 2.087-1.353 4.264-2.294 6.159-.914 1.792-2.212 3.303-4.348 4.189-.906.384-1.949.708-2.946.694-2.893-.012-5.307-1.358-6.348-3.582-1.044-2.258-.578-5.334 2.158-8.766.185-.21.133-.51-.079-.7a.44.44 0 00-.662.036zm17.146 1.944s-7.557-6.056-9.72-8.218c-6.361-6.393 4.569-12.995 8.222-4.006 2.003 4.968 1.461 9.007 1.498 12.224z" fill="#3D248A"/><path d="M283.044 57.282c3.287-1.997 7.269-4.873 8.595-8.531.637-1.8-.075-4.284-2.429-3.093-1.85.94-2.711 2.836-3.494 4.615-.805 1.865-2.672 7.01-2.672 7.01zm34.452 58.235c2.679-10.927-.497-21.692-5.881-28.972-5.928-8.037-15.649-13.49-25.287-12.23-4.582.602-8.053 4.242-7.674 8.908.38 4.631 4.402 7.385 8.985 7.991 6.998.9 10.394 1.089 14.273 4.743 4.399 4.129 7.584 9.748 7.525 15.678a.493.493 0 00.485.507.512.512 0 00.51-.489c.053-6.228-3.242-12.117-7.843-16.436-4.047-3.806-7.563-4.056-14.838-5.01-4.097-.536-7.785-2.917-8.116-7.055-.35-4.121 2.754-7.332 6.826-7.848 9.303-1.195 18.629 4.107 24.343 11.831 5.219 7.058 8.303 17.537 5.69 28.135a.501.501 0 00.376.605c.277.055.563-.1.626-.358z" fill="#3D248A"/><path d="M308.862 118.926c-.587.219-1.163.462-1.774.633-.972.252-1.95.33-2.944-.059-1.565-.622-2.07-2.725-1.223-3.986.492-.737 1.448-1.13 2.266-1.369a22.216 22.216 0 013.949-.833c.274-.04.513.172.567.443a.488.488 0 01-.421.555c-1.253.119-2.575.419-3.752.799-.621.205-1.384.447-1.771 1.016-.514.747-.235 2.068.704 2.453.794.306 1.584.228 2.337.02.852-.225 1.676-.615 2.46-.868a.507.507 0 01.42.038.584.584 0 01.285.576c-.007.093-.068.24-.076.333-.027.161-.033.312-.06.473-.08.542-.172 1.06-.297 1.564-.086.367-.206.72-.292 1.087-.194.744-.489 2.04-.33 3.12.088.611.273 1.146.79 1.435.146.079.322.055.495-.027.229-.079.443-.24.581-.394.404-.428.657-1.052.855-1.68.239-.706.378-1.453.576-2.081.139-.421.223-.846.341-1.258.01-.034.076-.332.096-.401.121-.295.364-.291.441-.298a.515.515 0 01.345.103c.125.09.206.2.243.33a.734.734 0 01-.017.453c-.039.137-.121.294-.151.397-.05.439-.089.902-.106 1.355-.018.72-.121 1.54-.027 2.325.09.669.31 1.276.899 1.709.136.113.278.076.386.024.152-.071.258-.181.374-.325.667-.761.701-1.992.819-2.996.051-.439.101-.878.108-1.297-.006-.175-.012-.349-.007-.5.008-.093 0-.326.01-.36.064-.357.338-.398.449-.391.055.004.451-.006.523.464.203 1.06.239 2.377.567 3.526.278.995.772 1.887 1.877 2.283.525.196.888-.154 1.125-.592.321-.597.469-1.378.472-1.913.029-2.593-.791-5.495-2.646-7.463-.275-.285-.666-.752-1.087-1.116-.194-.175-.409-.34-.608-.364a.566.566 0 01-.451-.587.455.455 0 01.548-.407c.355.069.738.302 1.101.605.433.388.87.892 1.144 1.177 2.061 2.167 2.99 5.344 2.96 8.204-.014.836-.29 2.064-.881 2.818-.486.586-1.136.894-1.985.584-1.395-.496-2.083-1.563-2.48-2.798-.14.689-.382 1.337-.805 1.834-.52.572-1.276.989-2.068.416-.849-.636-1.222-1.497-1.344-2.447.01-.034-.014-.082-.016-.141-.21.604-.499 1.156-.892 1.549a2.486 2.486 0 01-1.155.695c-.36.082-.725.048-1.073-.114-.831-.437-1.213-1.264-1.347-2.238-.154-1.231.135-2.702.37-3.525.086-.367.206-.72.292-1.087.147-.514.229-.997.311-1.481zm-87.923-76.412c-.301-.125-.668-.189-1.006-.076-1.511.4-2.046 1.954-1.908 3.348.138 1.167.864 2.385 1.909 2.901.432.227.898.278 1.37.429a.504.504 0 00.622-.35c.088-.276-.047-.54-.314-.616-.4-.113-.818-.14-1.202-.34-.744-.39-1.301-1.295-1.417-2.16-.102-.892.161-1.946 1.135-2.208.113-.038.247 0 .38.038.254.101.53-.012.666-.262.102-.301-.019-.59-.235-.704zm73.658-4.294c1.53-1.99 3.433-3.774 4.702-5.945a.54.54 0 00-.183-.691.515.515 0 00-.68.176c-1.244 2.142-3.121 3.897-4.627 5.828a.496.496 0 00.073.697.51.51 0 00.715-.066zm4.147 6.308c3.73-1.194 7.497-2.673 11.272-3.586a.488.488 0 00.35-.614.49.49 0 00-.607-.364c-3.802.942-7.596 2.423-11.326 3.616-.245.07-.393.362-.32.641.098.222.386.377.631.307zm-.382 7.042c2.643.509 5.441 1.264 8.04 1.944a.479.479 0 00.589-.343.503.503 0 00-.344-.604c-2.629-.707-5.425-1.433-8.098-1.968a.473.473 0 00-.558.397.477.477 0 00.371.574zm175.748-1.35s-7.939 6.618-15.892 2.456c-8.382-4.377-6.104-9.694-3.765-10.626 6.915-2.765 19.657 8.17 19.657 8.17zm-25.049 70.59l.657 34.037.062 1.656 1.536 24.515.118 5.346 10.334.287-.119-5.345.496-24.453.068-1.062 2.157-33.81.173-7.897-15.325-1.139-.157 7.865zm22.407 8.154l9.846 19.94c.39.795.736 1.629.753 2.527.029.932-.01 1.894-.324 2.799l-8.406 22.529-2.118 5.014 9.536 3.793 2.118-5.014 10.279-21.808c1.201-2.549 1.755-5.309 1.876-8.019.119-2.769-.422-5.467-1.395-8.057l-8.011-20.873-3.089-7.065-14.166 7.136 3.101 7.098z" fill="#3D248A"/><path d="M452.228 195.849l-.252-2.489-.034-3.783 7.451-.192.034 3.783-.402 4.799.034 2.632-10.534 1.999-2.442.647-1.204-4.942 2.442-.647 4.907-1.807z" fill="#FFC700"/><path d="M445.339 206.508l13.522-2.895a.817.817 0 00.638-.98.815.815 0 00-.962-.652l-13.522 2.895a.817.817 0 00-.638.98c.093.459.546.74.962.652zm6.386-13.252c.592.062 1.221-.006 1.813.055a.83.83 0 00.91-.738.81.81 0 00-.713-.915c-.592-.061-1.195.008-1.788-.054a.827.827 0 00-.908.712.8.8 0 00.686.94zm.08 2.795c.611.168 1.217.389 1.856.533a.81.81 0 00.978-.601.801.801 0 00-.578-.985c-.613-.142-1.22-.363-1.805-.53a.853.853 0 00-1.001.574.844.844 0 00.55 1.009z" fill="#3D248A"/><path d="M477.269 194.705l4.026 3.158 2.082 1.321-2.756 4.418-2.082-1.321-7.096-3.579-2.141-1.366 2.097-7.264 1.276-3.635 6.938 2.31-1.275 3.635-1.069 2.323z" fill="#FFC700"/><path d="M481.282 205.41l-11.849-6.736c-.395-.213-.887-.063-1.126.356-.24.42-.115.926.281 1.14l11.848 6.735c.396.214.887.063 1.127-.356.239-.419.114-.926-.281-1.139zm-2.448-14.663c-.587-.084-1.126-.351-1.707-.462-.431-.075-.884.233-.976.683-.092.449.186.903.617.978.58.11 1.126.351 1.732.468.431.075.859-.239.951-.689.099-.475-.186-.903-.617-.978zm-1.152 2.581c-.632-.012-1.246.008-1.878-.004-.444-.023-.828.328-.871.787-.042.46.281.841.725.863.625.038 1.271-.001 1.928.017.444.022.835-.355.852-.82a.808.808 0 00-.756-.843zm-27.209-73.674l22.967 8.83 10.263-4.038-2.262-9.808-31.043-1.579.075 6.595zm7.802-68.116c-1.909 4.185-1.471 7.482.135 9.59 1.615 2.14 4.457 3.074 7.456 2.437 1.019-.218 1.994-.789 2.812-1.35 1.942-1.37 2.874-3.224 3.359-5.285.475-1.992.512-4.16.724-6.277a.553.553 0 00-.433-.577.487.487 0 00-.543.417c-.221 2.087-.267 4.224-.692 6.169-.424 1.845-1.256 3.504-2.982 4.75-.73.535-1.596 1.042-2.468 1.219-2.626.5-5.099-.272-6.493-2.107-1.404-1.866-1.699-4.805-.001-8.532.12-.233-.013-.56-.236-.665-.263-.126-.557-.044-.638.212zm16.072-1.464s-8.094-4.095-10.505-5.662c-7.099-4.641 1.212-12.88 6.443-5.306 2.91 4.18 3.317 8.01 4.062 10.968z" fill="#3D248A"/><path d="M471.559 56.322c2.502-2.493 5.432-5.934 5.81-9.575.17-1.788-1.017-3.943-2.863-2.378-1.449 1.233-1.801 3.154-2.107 4.952-.308 1.881-.84 7.001-.84 7.001zm26.867 61.162c7.095-7.401 9.471-17.556 8.48-26.036-1.081-9.35-6.353-18.482-14.61-22.24-3.952-1.793-8.387-.569-10.203 3.341-1.794 3.906.165 8.104 3.565 10.837 5.142 4.14 7.785 5.958 9.217 10.78 1.627 5.436 1.615 11.485-1.124 16.188a.516.516 0 00.166.69.489.489 0 00.672-.148c2.87-4.943 2.912-11.286 1.205-16.994-1.497-5.028-4.191-6.98-9.55-11.295-3.018-2.42-4.85-6.114-3.258-9.575 1.597-3.437 5.506-4.468 8.959-2.897 7.952 3.6 12.978 12.416 14.004 21.393.955 8.199-1.348 18.053-8.219 25.22a.518.518 0 00.013.718.48.48 0 00.683.018zm-68.03 6.276c9.91-1.921 17.281-8.29 20.925-15.1a25.966 25.966 0 003.012-9.935.467.467 0 00-.451-.52.53.53 0 00-.532.475c-.302 3.307-1.301 6.567-2.89 9.527-3.517 6.562-10.651 12.705-20.201 14.563-.262.057-.466.319-.413.591a.464.464 0 00.55.399zm12.036-26.592c-2.467 7.226-6.66 14.176-12.154 17.999a.51.51 0 00-.143.689c.142.226.43.272.656.125 5.667-3.959 10.005-11.088 12.537-18.526.088-.27-.031-.555-.286-.622a.52.52 0 00-.61.335z" fill="#3D248A"/><path d="M489.397 116.133c-.565-.094-1.156-.164-1.716-.307-.918-.245-1.754-.632-2.394-1.4-.988-1.215-.324-3.168.996-3.783.768-.361 1.766-.233 2.554-.073 1.214.268 2.508.666 3.633 1.15a.532.532 0 01.26.664.503.503 0 01-.645.271c-1.08-.48-2.308-.848-3.456-1.086-.586-.12-1.351-.279-1.928-.002-.79.359-1.194 1.49-.621 2.228.495.608 1.155.907 1.873 1.087.806.211 1.672.279 2.437.438.203.04.285.146.344.249a.434.434 0 01.059.351.635.635 0 01-.118.288c-.053.07-.176.16-.228.23-.103.115-.183.233-.285.349-.335.394-.668.764-1.044 1.106-.253.253-.527.479-.78.731-.529.504-1.393 1.401-1.824 2.333-.23.502-.347 1.012-.069 1.48.08.13.237.167.394.204.225.042.458.011.647-.049.542-.156 1.037-.538 1.534-.944.547-.453 1.033-.984 1.507-1.393.301-.273.604-.571.905-.845.025-.022.228-.229.278-.275a.508.508 0 01.533-.057.472.472 0 01.23.24.585.585 0 01.032.399.877.877 0 01-.165.284c-.1.091-.296.224-.396.316-.26.326-.522.677-.762 1.029-.374.565-.866 1.17-1.158 1.84-.258.549-.381 1.134-.117 1.748.057.128.168.162.282.171a.97.97 0 00.444-.089c.923-.299 1.541-1.266 2.139-2.011.26-.327.517-.628.734-.983.082-.142.164-.284.244-.401.052-.07.162-.26.187-.283.255-.277.519-.157.606-.101.043.028.394.204.216.636-.363.937-.99 2.002-1.296 3.067-.269.919-.308 1.832.372 2.652.331.397.754.282 1.167.042.558-.328 1.069-.882 1.338-1.307 1.316-2.05 2.092-4.712 1.56-7.13-.082-.352-.168-.904-.329-1.386-.071-.229-.167-.434-.294-.543a.49.49 0 01-.073-.699c.181-.208.484-.259.698-.094.255.218.473.582.617 1.014.159.507.263 1.109.343 1.487.6 2.67-.227 5.625-1.679 7.912-.429.66-1.291 1.533-2.145 1.838-.691.267-1.395.188-1.952-.475-.845-1.031-.924-2.151-.659-3.269-.456.46-.951.842-1.518 1.02-.734.24-1.557.201-1.916-.619-.398-.898-.248-1.777.127-2.589-.445.336-.908.622-1.402.757-.378.119-.887.153-1.31.021-.335-.1-.638-.297-.818-.583-.46-.729-.379-1.589-.003-2.426.49-1.076 1.457-2.089 2.061-2.661.253-.252.527-.478.78-.731.355-.368.684-.689.969-1.038zm-65.494 1.526c-.419-.389-.871-.773-1.26-1.201-.63-.711-1.115-1.498-1.23-2.498-.162-1.57 1.451-2.856 2.882-2.651.835.117 1.595.773 2.164 1.341.864.893 1.724 1.94 2.397 2.967a.542.542 0 01-.145.704.494.494 0 01-.683-.125c-.637-.999-1.459-1.984-2.284-2.816-.422-.423-.972-.977-1.602-1.06-.853-.131-1.803.604-1.727 1.542.081.785.468 1.401.967 1.947.556.621 1.239 1.154 1.79 1.708.146.146.157.28.15.4a.443.443 0 01-.141.329.622.622 0 01-.255.178c-.082.031-.233.039-.315.069-.148.042-.278.097-.426.139-.493.149-.971.279-1.47.362-.347.074-.697.115-1.045.19-.713.135-1.919.419-2.784.97-.464.297-.838.665-.861 1.212-.004.154.107.271.217.389.165.16.375.261.565.314.535.167 1.154.115 1.788.044.701-.082 1.393-.264 2.009-.349.399-.066.813-.151 1.212-.217.033-.006.314-.069.381-.08a.502.502 0 01.474.244.479.479 0 01.061.33.592.592 0 01-.19.354.87.87 0 01-.291.15c-.133.022-.368.027-.501.049-.393.133-.802.285-1.193.452-.617.272-1.355.513-1.962.919-.513.323-.933.749-1.047 1.413-.022.14.052.229.142.299a.947.947 0 00.418.169c.93.254 1.969-.224 2.871-.525.393-.133.771-.247 1.144-.427.145-.076.29-.151.421-.206.081-.031.275-.131.309-.136a.447.447 0 01.559.247c.02.048.216.389-.166.656-.81.593-1.91 1.148-2.743 1.881-.723.629-1.252 1.379-1.131 2.446.059.517.474.652.948.676.642.029 1.368-.159 1.822-.37 2.208-1.01 4.299-2.834 5.169-5.169.124-.343.351-.857.479-1.354.066-.231.098-.457.051-.619a.496.496 0 01.319-.631c.263-.077.543.046.631.304.094.324.078.751-.037 1.195-.143.516-.384 1.082-.522 1.445-.952 2.587-3.244 4.63-5.694 5.766-.715.322-1.905.587-2.781.375-.72-.153-1.262-.606-1.367-1.473-.142-1.335.4-2.325 1.227-3.124-.628.138-1.247.189-1.816.028-.74-.2-1.403-.685-1.257-1.576.157-.977.759-1.637 1.512-2.118-.553.04-1.093.028-1.577-.13-.379-.107-.821-.357-1.101-.701-.224-.269-.369-.602-.363-.942.013-.869.547-1.552 1.314-2.052.992-.64 2.347-.966 3.159-1.117.348-.075.698-.116 1.046-.19.514-.102.943-.207 1.369-.346zm54.149-81.122c.931-2.14 2.267-4.173 2.899-6.424a.505.505 0 00-.326-.628c-.266-.092-.519.034-.595.304-.64 2.226-1.934 4.219-2.856 6.302a.53.53 0 00.26.674c.218.105.502-.002.618-.228zm5.095 4.874c3.113-1.868 6.197-4.012 9.414-5.626a.508.508 0 00.197-.679c-.129-.247-.432-.36-.664-.238-3.234 1.647-6.343 3.798-9.456 5.666a.537.537 0 00-.164.698.531.531 0 00.673.18zm1.058 6.451c2.507-.055 5.2.064 7.712.206a.472.472 0 00.498-.478c-.005-.281-.216-.533-.487-.541-2.537-.135-5.23-.254-7.769-.219-.271-.008-.463.243-.458.524.006.28.241.525.504.508zm-14.668 45.289c.527.355.777.936.897 1.603.139 1.048-.225 2.252-1.026 3.129-1.854 2.051-4.881 2.287-6.034-.024-.461-.837-.619-1.829-.584-2.948.049-1.303.374-2.394 1.093-3.61 1.727-2.846 3.746-4.217 5.795-4.511 1.874-.224 3.791.445 5.339 1.751 2.403 2.016 4.074 5.433 3.986 9.173-.141 6.361-5.014 10.221-9.962 11.106-3.298.59-6.593-.138-8.583-2.337-.186-.185-.476-.214-.644-.016a.462.462 0 00-.034.68c2.176 2.384 5.831 3.226 9.394 2.594 5.366-.94 10.665-5.168 10.801-12.096.095-4.052-1.723-7.767-4.331-9.91-1.779-1.505-3.876-2.231-6.015-1.965-2.293.28-4.615 1.806-6.505 4.976-.802 1.317-1.185 2.577-1.203 4.079-.029 1.246.18 2.38.673 3.415 1.466 2.85 5.208 2.715 7.546.126 1.706-1.91 1.785-4.9.018-6.149-.206-.128-.515-.1-.657.169-.207.311-.169.637.036.765zm91.816 29.638l-4.437 17.458c-.542 2.121-.95 4.225-1.141 6.39-.184 2.139-.233 4.261-.051 6.394l2.402 28.638.224 5.321 10.282-.971-.224-5.322.087-28.869c.001-1.369.178-2.716.402-4.05.225-1.334.617-2.62 1.065-3.919l5.922-17.041 2.305-7.65-14.538-4.004-2.298 7.625zm-20.683-7.634l-13.402 26.629c-1.368 2.7-2.159 5.65-2.174 8.682-.002 2.997.534 6.029 1.843 8.885l9.881 21.189 2.123 5.024 9.561-3.8-2.123-5.024-8.268-21.83c-.392-1.019-.438-2.123-.348-3.169.077-1.012.485-1.959 1.016-2.813l15.438-25.372 3.74-6.74-13.58-8.416-3.707 6.755z" fill="#3D248A"/><path d="M561.515 196.4l-.252-2.489-.034-3.783 7.451-.192.034 3.783-.402 4.8.034 2.631-10.534 1.999-2.442.648-1.204-4.943 2.442-.647 4.907-1.807z" fill="#FF5784"/><path d="M554.641 207.061l13.522-2.895a.818.818 0 00.638-.981.816.816 0 00-.963-.652l-13.521 2.895a.819.819 0 00-.639.981.816.816 0 00.963.652zm6.364-13.245c.592.062 1.221-.006 1.813.056a.83.83 0 00.911-.738.81.81 0 00-.714-.915c-.592-.062-1.195.008-1.787-.054a.826.826 0 00-.909.712c-.06.472.248.887.686.939zm.108 2.772c.61.168 1.217.389 1.856.533a.81.81 0 00.977-.602.799.799 0 00-.577-.984c-.613-.142-1.22-.363-1.805-.53a.852.852 0 00-1.001.573c-.136.441.116.904.55 1.01z" fill="#3D248A"/><path d="M542.316 194.696l-1.056-2.326-1.275-3.635 6.938-2.31 1.276 3.635 1.2 4.738.897 2.526-9.241 4.931-2.082 1.32-2.756-4.418 2.082-1.321 4.017-3.14z" fill="#FF5784"/><path d="M539.114 206.908l11.849-6.735c.396-.214.521-.721.281-1.14-.239-.419-.731-.569-1.126-.356l-11.849 6.735c-.395.214-.52.721-.281 1.14.239.419.761.562 1.126.356zm1.959-14.518c.58-.111 1.151-.358 1.732-.468.431-.075.716-.503.616-.978a.855.855 0 00-.975-.683c-.581.111-1.127.352-1.708.462-.431.075-.715.503-.623.952.099.476.527.79.958.715zm.952 2.621c.632-.013 1.277.027 1.928-.017.444-.022.766-.403.724-.863-.042-.459-.426-.81-.87-.787-.625.038-1.271-.002-1.878.004-.444.023-.767.403-.757.843a.856.856 0 00.853.82zM579.37 31.054l4.718-6.544a.476.476 0 00-.121-.687.474.474 0 00-.685.121l-4.718 6.544a.477.477 0 00.121.687c.242.121.524.08.685-.121zm-7.137-2.989l3.105-15.27c.04-.242-.121-.525-.363-.565-.242-.04-.524.121-.564.363l-3.105 15.27c-.041.242.121.525.363.565a.44.44 0 00.564-.363zm-8.145-1.293l-2.5-8.564c-.081-.242-.363-.404-.605-.323-.242.08-.403.363-.323.606l2.5 8.564a.484.484 0 00.605.323c.242-.081.403-.364.323-.606zm-4.919 21.858c-2.125 4.567-.593 10.227 4.349 10.572.84.057 1.755-.201 2.57-.517 1.853-.747 3.015-2.126 3.88-3.793.84-1.608 1.384-3.476 2.051-5.257.099-.259-.025-.517-.272-.632a.483.483 0 00-.618.287c-.667 1.753-1.211 3.591-2.001 5.172-.766 1.465-1.78 2.7-3.386 3.36-.667.26-1.433.49-2.15.432-4.275-.316-5.387-5.258-3.558-9.222.123-.23 0-.517-.223-.632a.484.484 0 00-.642.23z" fill="#3D248A"/><path d="M571.582 49.972c1.17-.04 2.5-.323 3.347-1.212 1.411-1.414 1.331-4.201-.726-5.009-.766-.323-1.613-.202-2.419-.121a.448.448 0 00-.444.525c0 .283.242.485.525.444.685-.04 1.371-.201 2.016.081 1.411.566 1.33 2.464.403 3.474-.686.687-1.734.889-2.661.93-.283 0-.484.242-.444.484-.081.202.161.404.403.404z" fill="#3D248A"/><path d="M573.472 42.038c0 2.1-6.694 7.19-13.871 6.827-6.492-.364-7.5-10.826 0-12.725 8.871-2.221 13.871 5.898 13.871 5.898z" fill="#3D248A"/><path d="M571.173 44.098c.646-.04 1.331.081 1.976.202 1.654.364 2.944 2.02 1.654 3.636-1.089 1.333-5.323 1.818-3.791 4.444 1.049 1.817 3.67 1.575 5.363 1.211 4.073-.97 6.976-4.403 7.581-8.361.605-3.96-2.782-8.04-6.613-8.887-3.307-.728-7.541.403-8.387 4.04l2.217 3.715zm22.102 67.37c1.152-5.228 2.187-11.328 2.951-20.048a13.45 13.45 0 00-3.891-10.79c-3.715-3.747-9.223-8.797-13.967-11.17-3.354-1.663-6.345-1.968-8.164.236-3.104 3.74-2.247 7.594.324 11.041 2.451 3.299 6.467 6.233 9.88 8.352 3.607 2.225 5.862 6.18 5.947 10.445.102 5.447.246 11.807.246 11.807.013.266.211.488.474.477.264-.01.481-.208.468-.475 0 0-.144-6.36-.246-11.806-.1-4.609-2.52-8.862-6.437-11.266-3.297-2.047-7.233-4.87-9.605-8.095-2.252-3.078-3.088-6.477-.342-9.821.749-.906 1.713-1.247 2.882-1.216 1.244.03 2.661.509 4.127 1.253 4.665 2.3 10.058 7.316 13.693 10.951 2.609 2.645 3.948 6.33 3.59 10.002-.767 8.643-1.804 14.705-2.958 19.895-.062.269.1.53.367.596.34.025.597-.137.661-.368z" fill="#3D248A"/><path d="M587.01 110.678c-3.074.981-5.755 3.123-7.074 6.272-.365.897-.664 2.538-.283 3.616.127.44.359.79.708 1.014.35.224.769.348 1.342.236 1.051-.171 1.544-.87 1.85-1.704.225-.698.298-1.521.464-2.156.356-1.463 1.271-2.64 2.661-3.153.257-.085.387-.368.318-.63s-.337-.381-.594-.297c-1.73.615-2.856 2.091-3.283 3.895-.166.635-.216 1.384-.44 2.082-.165.514-.447.913-1.054 1.015-.316.027-.537.002-.735-.097-.28-.203-.395-.559-.452-.978-.113-.838.101-1.86.337-2.474 1.19-2.866 3.648-4.792 6.429-5.699.257-.084.387-.368.353-.619-.034-.252-.29-.408-.547-.323z" fill="#3D248A"/><path d="M586.269 114.379c-1.174 2.442-1.998 5.593-.572 7.994.397.682.889 1.312 1.64 1.615 1.292.543 3.001-.085 3.101-1.712a2.13 2.13 0 00-.36-1.278c-.268-.483-.702-.934-.912-1.36-.409-.767-.393-1.651-.496-2.53a.453.453 0 00-.528-.398.521.521 0 00-.414.565c.102.999.122 2.015.577 2.877.187.378.527.761.819 1.171.211.305.374.636.385.962-.063.911-1.064 1.141-1.78.849-.576-.251-.88-.745-1.219-1.249-1.25-2.106-.44-4.857.616-7.051a.464.464 0 00-.221-.631c-.211-.183-.518-.072-.636.176z" fill="#3D248A"/><path d="M587.749 117.372c.823 1.667 1.471 2.794 3.438 3.212.474.099 1.15.054 1.661-.203a1.55 1.55 0 00.846-1.052c.085-.383-.032-.743-.268-1.097-.248-.317-.614-.629-.815-.851-.531-.645-.777-1.45-1.011-2.293-.071-.264-.331-.423-.592-.337a.532.532 0 00-.358.627c.233.964.55 1.913 1.199 2.674.165.211.449.417.674.687.106.153.259.28.211.429-.036.233-.226.34-.452.436-.309.112-.652.092-.913.056-1.647-.323-2.142-1.323-2.812-2.742a.454.454 0 00-.64-.189c-.19.107-.286.404-.168.643zm-44.87-3.153l20.254 12.436 14.655-7.2c2.38-8.041.093-12.483-4.387-16.877l-24.595-.702-5.927 12.343zm28.526-63.731c-2.1 2.431-1.68 6.452.14 8.976.98 1.356 2.894 2.712 4.62 1.87 1.54-.748 1.074-3.506.7-4.722-.093-.327-.233-.841-.513-1.075-.093-.093.14.187.233.28.094.094.187.234.28.328.234.28.42.467.7.701.794.702 2.147 1.403 3.221 1.029 1.166-.42 1.12-1.59.606-2.572-.186-.327-.42-.654-.653-.981a2.704 2.704 0 00-.373-.328c-.047-.046-.281-.093-.187-.14 1.493-.28 4.247.748 4.62-1.59.187-1.215-.933-2.244-1.913-2.664-.98-.421-2.1-.468-3.174-.561-1.12-.094-2.287-.187-3.36 0l-4.947 1.449zm-12.321-2.712c-1.307-.327-2.847-.14-4.107.281-.653.234-1.446.655-1.586 1.403-.374 1.823 2.426 2.103 3.593 1.87.14-.047-.28.14-.467.187-.373.14-.56.187-.933.374-1.027.42-2.567 1.309-2.193 2.665.233.981 1.82.7 2.473.514.28-.094.56-.187.793-.28.094-.047.234-.188.234-.14-.047.14-.42.56-.467.7-.373.515-.653 1.263-.513 1.964.14.608.7.701 1.26.514.7-.187 1.493-1.028 1.727-1.683.14-.374-.047-.841-.14-1.169-.094-.514-.094-1.075-.14-1.59-.094-1.776.186-3.786.933-5.422l-.467-.188zm-14.607 32.54c-1.494 5.517-3.501 15.428-4.854 17.766-1.633 2.758-11.714 12.483-15.168 14.446-.233.14-.326.421-.186.655.14.233.42.327.653.187 3.547-2.011 13.861-11.969 15.494-14.82 1.4-2.338 3.454-12.437 4.947-18 .094-.234-.093-.515-.326-.608-.234-.047-.514.14-.56.374z" fill="#3D248A"/><path d="M519.896 109.139c.177-.124.439-.156.744-.144.298.05.68.191 1.098.413.971.545 2.104 1.576 2.77 2.376.333.4.573.746.63.985.106.247-.05.527-.326.634-.277.106-.504-.046-.61-.293-.071-.165-.233-.384-.432-.685-.623-.754-1.678-1.657-2.557-2.148-.234-.116-.468-.231-.666-.265-.099-.016-.142-.062-.206.004l-.056.029c-.17.086-.206.272-.192.465.057.239.156.523.304.816.46.803 1.218 1.657 1.756 2.053.093.054.227.153.277.161.205-.004.34.095.46.268a.458.458 0 01-.114.593c-.432.387-1.318.736-2.346 1.023-1.354.385-2.957.729-3.644 1.111a2.36 2.36 0 00-.596.436c-.057.029-.064.066-.078.14-.007.037-.057.029-.014.074.035.082.134.099.226.153.192.07.34.095.539.128 1.049.137 3.955-.333 4.834-.645.383-.127.766-.254 1.234-.291.106-.02.213-.041.269-.069a.441.441 0 01.213-.041l.149.025a.468.468 0 01.382.408c-.014.074.007.23-.128.399-.333.403-1.042.897-1.851 1.373-1.099.658-2.354 1.328-2.808 1.825-.071.103-.191.198-.269.338a.189.189 0 00-.043.222c.042.045.142.062.241.079.198.033.404.029.666-.004 1.312-.163 3.162-1.001 3.715-1.214l.851-.432c.113-.057.163-.049.227-.115.057-.028.234-.152.234-.152.163-.049.262-.032.354.021.142.062.227.153.255.272.043.046.106.248-.092.482-.547.712-1.618 1.757-2.441 2.843-.34.44-.681.88-.809 1.28.057-.029.164-.05.22-.078 1.454-.637 4.468-2.734 7.83-6.914.128-.131.433-.386.852-.699.943-.645 2.574-1.673 4.205-2.7 1.631-1.028 3.262-2.056 4.219-2.775.362-.284.603-.473.731-.605a.464.464 0 01.68-.077c.227.153.219.457.07.7-.134.169-.446.461-.922.802-.957.72-2.645 1.776-4.276 2.804a145.324 145.324 0 00-4.155 2.708c-.355.247-.589.399-.66.502-4.037 5.024-7.625 7.177-8.851 7.431-.801.172-1.028-.248-.999-.664.078-.675.54-1.478 1.15-2.255.277-.375.603-.741.922-1.07-.886.349-2.205.817-3.204.956-.419.044-.78.06-1.071-.026-.241-.079-.474-.195-.595-.368-.29-.354-.311-.778-.134-1.169.107-.289.306-.523.497-.72.447-.461 1.482-1.053 2.468-1.653l.177-.123c-1.34.311-3.495.601-4.444.48a4.116 4.116 0 01-.922-.269c-.233-.115-.453-.305-.517-.507-.184-.375-.105-.782.164-1.12.27-.337.688-.65 1.029-.822.737-.374 2.396-.747 3.807-1.161.432-.119.872-.275 1.205-.41-.623-.487-1.424-1.386-1.877-2.226-.262-.503-.424-.989-.445-1.414-.056-.774.135-1.239.696-1.489zm46.049-23.587c-.56.748-1.167 1.45-1.727 2.197-1.914 2.572-3.827 5.19-5.88 7.621-.421.468-1.121 1.543-1.821 2.197-.373.328-.746.608-1.073.655a.46.46 0 01-.373-.047c-.094-.047-.14-.14-.187-.234-.047-.093-.093-.187-.047-.327 0-.14.094-.327.094-.42v-1.076a61.63 61.63 0 01-.094-2.945c-.046-3.133-.046-6.265-.093-9.398-.047-2.337-.14-4.628 0-6.966 0-.28.233-.467.513-.467s.467.234.467.514c-.187 2.29-.047 4.582 0 6.873.047 3.132.047 6.264.093 9.397 0 .982.047 1.963.094 2.945v.842l.326-.328c.56-.654 1.12-1.449 1.447-1.823 2.054-2.43 3.967-5.05 5.834-7.574.56-.748 1.167-1.449 1.727-2.197a6.87 6.87 0 01.513-.795c.14-.14.28-.234.373-.234a.5.5 0 01.374.047c.14.047.233.187.326.327.047.094.047.234.047.374v.281c.327 1.356.327 2.805.373 4.208l.14 4.067c.094 1.777.28 3.6.374 5.377 0 .28-.187.514-.467.514s-.513-.187-.513-.468c-.094-1.776-.28-3.6-.374-5.376-.093-1.356-.093-2.712-.14-4.068-.093-1.215-.14-2.477-.326-3.693zM207.42 129.187c-.518.119-1.048.267-1.565.334-.885.112-1.784.076-2.657-.4-1.388-.738-1.683-2.697-.825-3.712.506-.597 1.406-.84 2.143-.98a20.136 20.136 0 013.602-.289c.277.011.506.24.506.52 0 .279-.206.498-.483.487a16.22 16.22 0 00-3.404.275c-.548.103-1.245.23-1.617.655-.486.591-.32 1.728.477 2.127.69.358 1.372.364 2.068.289.775-.102 1.536-.35 2.253-.483a.52.52 0 01.423.09c.096.07.152.153.198.265a.55.55 0 01.029.295c-.013.08-.07.276-.081.305a2.99 2.99 0 01-.084.408c-.106.466-.221.909-.385 1.344-.1.311-.23.607-.33.919-.221.63-.557 1.704-.503 2.675.03.523.181 1.006.596 1.302.125.086.275.062.404.046.189-.037.371-.147.504-.267.368-.323.643-.819.841-1.339.258-.592.43-1.232.647-1.759.132-.348.263-.695.385-1.065.011-.028.101-.311.122-.369.139-.274.396-.256.465-.253a.504.504 0 01.302.129.627.627 0 01.205.339.79.79 0 01-.022.337c-.044.116-.149.302-.193.418-.073.379-.137.78-.181 1.175-.063.629-.207 1.336-.153 2.029.028.574.186 1.131.685 1.577.105.092.214.082.314.049a.805.805 0 00.336-.236c.296-.275.468-.635.572-1.05.146-.479.234-.989.32-1.449.073-.378.155-.735.159-1.117.006-.154.011-.308.026-.439.013-.081.011-.308.022-.337.102-.364.399-.359.497-.34.049.009.424.039.468.481.113.952.062 2.11.281 3.155.185.903.561 1.719 1.503 2.197.428.215.743-.014.963-.366.314-.457.497-1.125.533-1.594.192-2.269-.347-4.883-1.89-6.788-.228-.281-.548-.735-.901-1.101-.161-.176-.334-.322-.5-.395a.54.54 0 01-.363-.617.466.466 0 01.586-.343c.313.1.661.342.946.654.362.389.72.881.947 1.162 1.704 2.132 2.34 5.044 2.111 7.554-.066.731-.393 1.827-.989 2.428-.483.487-1.103.69-1.871.307-1.166-.583-1.726-1.516-2.004-2.592-.168.537-.423 1.026-.802 1.378-.512.472-1.235.759-1.935.15-.709-.63-.987-1.427-1.046-2.245-.234.432-.485.818-.822 1.106-.266.239-.68.45-1.116.491a1.59 1.59 0 01-.972-.215c-.715-.476-1.033-1.26-1.07-2.136-.069-1.119.304-2.382.546-3.07.101-.312.23-.608.331-.919.251-.387.364-.779.448-1.187z" fill="#3D248A"/><path d="M201.448 81.574c11.342 10.01 15.878 27.65 14.782 35.407-.398 3.032-.834 6.82-2.38 9.487a.464.464 0 00.177.658c.233.116.528.028.631-.169 1.599-2.788 2.048-6.701 2.5-9.852 1.077-7.971-3.501-25.996-15.103-36.253a.491.491 0 00-.658.039.482.482 0 00.051.683zm-7.183 14.499c11.101 5.015 14.632 16.732 14.958 19.903.232 2.226.561 4.967-.033 7.091a.475.475 0 00.31.594.484.484 0 00.597-.313c.636-2.249.32-5.114.072-7.462-.314-3.294-3.998-15.523-15.529-20.726-.247-.108-.522.002-.606.252-.108.283-.015.554.231.661zm-42.316-39.781s8.841 4.597 15.471-.687c6.988-5.56 3.746-10.012 1.351-10.433-7.108-1.258-16.822 11.12-16.822 11.12zm20.792 67.718l10.722 34.79.381 1.225 5.344 21.333 1.071 5.207 10.204-2.676-1.07-5.207-3.54-21.799-.375-1.921-7.806-35.725-1.997-7.591-14.914 4.802 1.98 7.562zm-19.249 2.508l1.842 26.026c.03.549.092 1.109-.021 1.641-.102.554-.203 1.108-.415 1.602l-11.587 25.247-2.398 4.649 9.389 5.362 2.398-4.648 13.683-24.048c.801-1.419 1.349-2.971 1.775-4.551.416-1.602.59-3.258.61-4.954l.303-25.975-.232-7.957-15.59-.374.243 7.98z" fill="#3D248A"/><path d="M202.023 192.277l4.792-.05 2.482-.275.814 5.099-2.483.275-7.444 1.621-2.547.289-3.141-6.648-1.433-3.572 6.864-2.531 1.433 3.573.663 2.219z" fill="#00D5FF"/><path d="M211.394 197.865l-12.892 2.127c-.436.054-.716.492-.616.964a.897.897 0 00.971.698l12.892-2.127c.436-.054.716-.492.616-.964a.87.87 0 00-.971-.698zm-10.782-9.288c-.495.263-1.046.41-1.54.673-.384.21-.522.702-.283 1.13.227.405.716.572 1.122.351.494-.263 1.045-.41 1.562-.684.384-.21.51-.725.283-1.13-.26-.417-.772-.573-1.144-.34zm.725 2.59c-.47.365-.907.742-1.376 1.106-.361.257-.432.772-.161 1.155.27.383.779.482 1.129.203.481-.341.95-.762 1.42-1.126.349-.279.398-.785.127-1.168-.281-.349-.812-.438-1.139-.17z" fill="#3D248A"/><path d="M145.195 198.597l3.372 3.296 1.93 1.533-3.187 4.14-1.93-1.533-6.374-4.038-1.986-1.569 2.72-6.839 1.632-3.501 6.64 2.998-1.632 3.5-1.185 2.013z" fill="#00D5FF"/><path d="M147.777 209.109l-10.539-7.531c-.343-.267-.859-.155-1.135.246a.869.869 0 00.164 1.171l10.539 7.532c.343.267.859.155 1.135-.247.267-.375.207-.894-.164-1.171zm-.916-14.117c-.537-.16-1.029-.441-1.567-.602-.422-.12-.879.13-1.028.597-.14.442.079.9.524 1.028.537.161 1.029.442 1.59.61.422.12.888-.153 1.028-.596.126-.475-.115-.941-.547-1.037zm-1.339 2.332c-.595-.072-1.177-.112-1.772-.183-.44-.072-.868.241-.961.698-.094.457.188.882.636.929.587.096 1.223.128 1.818.199.449.048.854-.273.948-.73.061-.441-.22-.866-.669-.913zm40.631-79.309l-18.969 8.58-12.967-2.29-.262-8.109 31.302-4.993.896 6.812zm-19.851-62.693c2.372 3.075 2.701 5.824 1.764 7.795-.934 1.941-3.102 3.076-5.647 3.075-.888-.003-1.78-.306-2.578-.662-1.884-.822-2.981-2.188-3.764-3.772-.834-1.677-1.319-3.629-1.927-5.53a.518.518 0 00-.625-.313.543.543 0 00-.32.636c.635 1.933 1.147 3.916 1.976 5.653.883 1.8 2.144 3.328 4.255 4.256.914.395 1.95.738 2.958.72 2.957.029 5.474-1.38 6.554-3.64 1.077-2.231.811-5.366-1.855-8.82a.468.468 0 00-.674-.078c-.251.162-.276.46-.117.68zm-14.587.886s6.822-5.285 8.782-7.18c5.765-5.602-3.824-11.653-7.209-3.693-1.892 4.419-1.483 8.028-1.573 10.873z" fill="#3D248A"/><path d="M155.687 61.58c-2.884-1.831-6.37-4.456-7.482-7.738-.533-1.614.144-3.819 2.215-2.721 1.626.866 2.357 2.57 3.02 4.168.682 1.675 2.247 6.29 2.247 6.29zm-22.418 73.589a3.269 3.269 0 01-.124-.297.594.594 0 01-.012-.295c.035-.138.08-.225.187-.298a.5.5 0 01.408-.126c.735.07 1.529.252 2.317.286.698.038 1.384-.049 1.995-.445.744-.488.723-1.614.155-2.158-.425-.414-1.138-.48-1.699-.535a18.17 18.17 0 00-3.435.018c-.274.035-.51-.165-.523-.461a.521.521 0 01.452-.554 16.796 16.796 0 013.634-.022c.755.075 1.687.24 2.255.784.999.935.954 2.924-.327 3.776-.798.524-1.696.66-2.594.625-.525-.023-1.054-.119-1.588-.193.147.375.315.755.489 1.112.144.301.315.583.459.884.354.691.888 1.885.978 3.002.065.868-.142 1.674-.794 2.232-.28.228-.593.327-.945.32-.42.001-.862-.173-1.161-.388-.377-.257-.682-.619-.955-1.023.056.817-.109 1.633-.728 2.32-.592.669-1.359.469-1.957.039-.428-.317-.73-.776-1-1.276-.146 1.087-.573 2.062-1.655 2.741-.712.446-1.365.321-1.916-.122-.657-.54-1.144-1.578-1.313-2.299-.576-2.496-.352-5.442 1.048-7.705.193-.321.481-.841.787-1.258.268-.353.58-.623.878-.749a.471.471 0 01.634.291.549.549 0 01-.303.662c-.149.063-.301.223-.438.411-.3.395-.555.872-.742 1.171-1.272 2.024-1.441 4.666-.91 6.908.103.462.379 1.11.777 1.543.276.306.637.535 1.034.285.872-.556 1.133-1.398 1.184-2.288.072-1.056-.143-2.202-.164-3.157-.013-.466.384-.546.431-.56a.425.425 0 01.523.291c.015.027.052.231.07.332.027.153.054.305.088.435.078.383.21.73.316 1.096.292.846.53 1.9 1.262 2.409.114.075.249.154.368.206.105.024.194.02.286-.081.435-.485.508-1.029.455-1.602-.064-.697-.287-1.382-.438-2.001a9.64 9.64 0 00-.346-1.151c-.039-.107-.192-.288-.252-.399a.801.801 0 01-.069-.333.544.544 0 01.184-.372.532.532 0 01.304-.15c.068-.009.301-.053.478.207.03.055.159.329.18.333.18.334.333.686.534 1.024.29.505.573 1.131.893 1.691.291.506.609.993 1.042 1.287.15.107.347.201.562.226a.527.527 0 00.391-.057c.392-.325.454-.822.411-1.344-.084-.97-.564-2.03-.873-2.637-.144-.301-.315-.584-.459-.885a14.3 14.3 0 01-.573-1.301 3.035 3.035 0 01-.156-.425zm46.841-88.64c2.066-.793 4.106-1.954 6.261-2.463.261-.06.436-.348.391-.613a.472.472 0 00-.576-.368c-2.188.524-4.282 1.69-6.381 2.498a.54.54 0 00-.324.639c.122.268.38.4.629.307zm-3.649-5.721c2.113-2.882 4.455-5.698 6.391-8.706.152-.236.096-.53-.125-.673-.221-.143-.509-.07-.66.167-1.916 2.961-4.258 5.778-6.34 8.645a.49.49 0 00.072.679c.19.157.489.116.662-.112zm-5.955-2.235c.426-2.403.693-4.979.945-7.398a.476.476 0 00-.422-.522c-.249-.019-.498.206-.53.464-.264 2.387-.522 4.94-.947 7.342-.042.282.119.51.38.56.271.028.511-.174.574-.446zm-26.926 75.174c1.001-2.097 3.51-3.026 5.583-2.059.583.269 1.229.534 1.814.861.971.428 2.119.496 3.12.042a3.747 3.747 0 002.139-2.263c.286-.833.899-1.446 1.713-1.775.815-.328 1.706-.308 2.42.072.454.216.908.431 1.298.649 2.205 1.079 4.904.141 5.964-2.075-.002-.059.059-.12.057-.179.472-.959 1.273-1.639 2.282-1.858a3.345 3.345 0 012.883.522c.066.056.13.053.195.109 1.046.718 2.391.953 3.587.609 1.195-.345 2.243-1.212 2.772-2.349.411-.898 1.15-1.516 2.094-1.792a3.265 3.265 0 012.752.41c.195.109.326.221.521.33 1.11.715 2.518.948 3.775.542a4.946 4.946 0 002.893-2.53c.233-.538.41-.898.41-.898.118-.24-.02-.527-.215-.636-.259-.106-.51-.037-.626.262 0 0-.177.359-.411.898a3.519 3.519 0 01-2.278 1.975c-1.007.278-2.094.149-3.008-.458-.195-.109-.326-.22-.521-.329-1.044-.66-2.325-.898-3.521-.553a4.325 4.325 0 00-2.709 2.346 3.437 3.437 0 01-2.155 1.852c-.944.276-1.969.085-2.817-.465-.066-.056-.13-.053-.195-.109-1.11-.715-2.455-.951-3.653-.665a4.579 4.579 0 00-2.897 2.413c.002.058-.059.12-.057.178-.823 1.737-2.958 2.474-4.709 1.611-.454-.216-.907-.431-1.298-.649-1.036-.483-2.184-.551-3.25-.154-1.066.398-1.861 1.254-2.264 2.327a3.053 3.053 0 01-1.652 1.714c-.751.326-1.579.303-2.355-.016-.583-.269-1.229-.534-1.814-.861-2.591-1.18-5.601-.053-6.838 2.523l.971.428z" fill="#3D248A"/><path d="M152.67 82.439c-1.769-2.284-3.623-3.433-5.369-3.98-4.09-1.186-7.69 1.226-8.996 2.099-7.413 4.96-11.848 13.408-14.109 21.817-2.299 8.417-2.345 16.778-1.001 21.479.924 3.187 1.96 7.153 3.962 9.876.181.228.436.26.649.123.203-.179.256-.459.075-.687-1.942-2.647-2.896-6.452-3.799-9.555-1.312-4.574-1.213-12.723.973-20.937 2.235-8.18 6.546-16.466 13.746-21.29 1.2-.803 4.509-3.061 8.244-1.975 1.596.447 3.235 1.554 4.862 3.602.18.228.475.251.677.072.213-.137.228-.408.086-.644z" fill="#3D248A"/><path d="M152.579 82.933c2.205 2.899 1.265 5.76-1 8.459-3.583 4.312-10.436 8.19-14.428 11.224-7.983 6.069-7.566 16.248-7.409 19.579.137 2.353.226 5.227 1.211 7.412.123.243.39.361.652.234.233-.096.344-.403.251-.646-.954-2.064-1.011-4.816-1.145-7.047-.155-3.179-.621-12.928 7.015-18.746 4.02-3.066 10.959-7.037 14.571-11.38 2.551-3.071 3.511-6.36 1.004-9.683-.151-.211-.476-.267-.677-.08-.144.155-.197.462-.045.674z" fill="#3D248A"/><path d="M346.011 187.736l1.926 2.758 2.166 2.378-4.912 4.624-2.167-2.379-5.385-4.595-2.201-2.42 4.834-8.167 2.871-4.106 7.83 5.428-2.87 4.106-2.092 2.373z" fill="#9C63FF"/><path d="M345.704 199.551l-10.636-9.744c-.315-.304-.827-.268-1.161.075-.301.363-.281.867.033 1.17l10.636 9.745c.315.303.827.267 1.161-.076.334-.343.282-.866-.033-1.17zm3.326-15.876c-.667-.304-1.216-.81-1.866-1.142a.848.848 0 00-1.114.399c-.208.418-.062.923.34 1.115.65.332 1.216.809 1.894 1.158a.85.85 0 001.114-.4c.207-.418.034-.939-.368-1.13zm-2.246 2.673c-.743-.233-1.52-.408-2.246-.67-.418-.162-.9.099-1.036.518-.179.433.055.911.462 1.029.726.261 1.503.437 2.274.685a.845.845 0 001.052-.546c.135-.42-.071-.882-.506-1.016z" fill="#3D248A"/><path d="M378.671 196.621l3.268 1.018 3.22.577-.953 6.569-3.219-.577-7.168-.397-3.273-.589-1.354-9.309-.334-4.942 9.628-.408.334 4.942-.149 3.116z" fill="#9C63FF"/><path d="M385.728 206.195l-14.51-1.29c-.439-.05-.82.287-.867.759a.876.876 0 00.762.903l14.51 1.289c.439.05.82-.286.867-.758.009-.467-.329-.889-.762-.903zm-7.191-14.631c-.717.16-1.47.091-2.192.218a.818.818 0 00-.627.981c.101.453.534.764.972.673.723-.127 1.47-.09 2.225-.222a.816.816 0 00.626-.981c-.137-.482-.566-.759-1.004-.669zm-.133 3.495c-.734.261-1.458.587-2.196.815-.433.123-.648.615-.49 1.027.132.447.619.683 1.015.532.738-.228 1.462-.554 2.227-.819a.81.81 0 00.485-1.059c-.127-.416-.614-.651-1.041-.496zm45.833-96.252h-50.964v3.07h50.964v-3.07zm7.671-21.693h-33.549l-7.702 21.692h33.549l7.702-21.692z" fill="#3D248A"/><path d="M414.845 85.585c-.389-.143-.825-.07-1.244.149-.532.316-1.014.884-1.317 1.656-.302.773-.346 1.547-.149 2.084.148.473.441.766.83.909.389.142.826.07 1.245-.149.532-.316 1.013-.884 1.316-1.656.303-.773.347-1.547.149-2.085-.164-.432-.441-.766-.83-.908zm-.35.894c.194.072.26.282.31.533.051.344.021.798-.154 1.245-.175.447-.432.818-.738 1.032-.209.156-.403.27-.597.2-.195-.072-.261-.282-.311-.533-.05-.344.012-.786.187-1.233.175-.448.432-.819.706-1.044.209-.156.435-.259.597-.2z" fill="#fff"/><path d="M393.929 73.955l-4.718-6.544c-.162-.202-.444-.282-.686-.12-.201.16-.282.443-.121.686l4.718 6.544c.161.202.444.283.686.121.241-.162.282-.444.121-.687zm7.338-2.585l-3.105-15.27c-.04-.242-.322-.444-.564-.363-.242.04-.444.323-.363.566l3.105 15.27c.04.242.323.444.564.363.242-.04.404-.323.363-.566zm8.105-.808l2.5-8.563c.081-.243-.08-.526-.322-.606-.242-.081-.524.08-.605.323l-2.5 8.563c-.081.243.081.526.323.606.282.081.564-.08.604-.323zm-13.922 36.505c.111-.485.418-.969.781-1.333.195-.202.419-.363.642-.404.14-.04.251.041.335.162.139.202.223.484.195.808-.111 1.211-1.032 1.898-1.73 2.262-2.261 1.252-4.102-.525-5.191-3.393-.084-.243-.363-.364-.614-.283-.251.081-.363.363-.279.606 1.34 3.514 3.768 5.413 6.558 3.878.921-.485 2.093-1.455 2.233-3.03.112-1.333-.837-2.222-1.73-1.979-.81.242-1.814 1.333-2.093 2.423-.056.243.083.525.362.566.196.121.447 0 .531-.283z" fill="#3D248A"/><path d="M399.334 105.944c.307-.525.754-.807 1.2-.727.112.041.168.122.224.243.139.323.139.767.027 1.09-.083.243-.251.445-.39.647a4.213 4.213 0 01-.893.767c-.168.121-.503.162-.838.162-.586.04-1.283.04-1.618 0a.478.478 0 00-.53.404c-.028.283.167.525.418.525.419.04 1.396.081 2.149-.041.363-.04.698-.161.893-.282a3.888 3.888 0 001.172-1.01c.196-.243.419-.566.531-.889.223-.565.195-1.292-.028-1.818-.196-.444-.503-.767-.921-.848-.838-.162-1.703.242-2.233 1.172a.46.46 0 00.167.646c.224.121.531.202.67-.041z" fill="#3D248A"/><path d="M402.929 105.774c.363-.445.893-.728 1.339-.485.196.121.252.363.28.606.027.485-.112 1.05-.363 1.292-.642.606-1.424.728-2.149.687-.837-.04-1.591-.242-1.954-.242a.484.484 0 00-.474.485c0 .282.223.484.502.444.335 0 1.061.202 1.87.242.949.041 2.009-.161 2.847-.969.39-.404.697-1.293.642-2.06-.056-.606-.307-1.091-.782-1.374-.865-.444-1.898-.081-2.54.727a.48.48 0 00.084.687c.251.202.558.162.698-.04zm-32.124-.137c1.694 2.423 4.274 3.272 7.137 3.231 4.113-.04 8.872-1.979 12.218-3.595.242-.121.323-.404.242-.646-.121-.243-.403-.323-.645-.243-3.266 1.576-7.823 3.434-11.815 3.515-2.54.04-4.838-.687-6.371-2.828-.161-.202-.443-.283-.685-.121a.544.544 0 00-.081.687zm-6.55-62.404c1.828 3.936.716 8.906-3.559 9.222-.716.058-1.483-.172-2.15-.43-1.606-.633-2.619-1.868-3.385-3.362-.816-1.552-1.359-3.39-2.002-5.172a.483.483 0 00-.618-.287c-.247.086-.37.374-.271.632.667 1.81 1.235 3.678 2.051 5.258.864 1.695 2.051 3.074 3.879 3.792.791.316 1.705.575 2.57.517 4.943-.345 6.475-6.004 4.349-10.572a.492.492 0 00-.642-.23c-.247.115-.321.373-.222.632z" fill="#3D248A"/><path d="M352.75 43.167c-.927-.04-2.016-.202-2.661-.93-.968-.969-1.008-2.867.403-3.473.645-.283 1.331-.122 2.016-.081a.526.526 0 00.525-.444.525.525 0 00-.444-.526c-.806-.04-1.653-.202-2.419.121-2.017.849-2.097 3.596-.726 5.01.847.888 2.137 1.171 3.347 1.211.282 0 .484-.202.484-.444-.081-.202-.283-.444-.525-.444zm5.211 99.347c-2.836-1.542-18.122-10.409-24.591-26.63-2.187-5.49-1.989-9.657-.629-12.758 3.092-7.308 12.44-9.063 12.44-9.063a.501.501 0 01.555.398c.05.27-.073.519-.367.567 0 0-8.826 1.637-11.767 8.561-1.264 2.987-1.406 6.883.638 12.037 6.973 17.543 24.515 26.316 24.515 26.316.133.043.212.178.264.267.038.157.05.27-.045.383l-14.591 28.653 10.203 6.7 15.871-27.476c2.168-3.74 2.119-8.422-.074-12.358-5.351-9.526-14.698-26.074-14.698-26.074a.487.487 0 01-.062-.382.333.333 0 01.27-.273l5.098-2.313c.242-.138.534-.006.624.241.131.223.034.517-.208.655l-4.629 2.104 14.438 25.627c2.349 4.204 2.419 9.291.088 13.304a73845.357 73845.357 0 00-16.063 27.882c-.054.091-.149.205-.296.229-.147.024-.254.025-.373-.086l-11.05-7.229c-.185-.133-.302-.424-.152-.629l14.591-28.653z" fill="#3D248A"/><path d="M380.026 183.884l-.164-34.775c-.058-9.111 2.007-20.805-3.048-37.299-.056-.252.065-.511.29-.592a.54.54 0 01.597.323c5.084 16.62 3.026 28.405 3.071 37.57l.18 35.192c.002.236-.161.424-.407.469l-10.231 1.144a.491.491 0 01-.557-.488l-1.401-21.041a.443.443 0 01.441-.488c.267-.01.481.199.503.471l1.377 20.534 9.349-1.02zM350.822 36.202c0 2.1 6.694 7.19 13.871 6.827 6.492-.364 7.5-10.826 0-12.725-8.871-2.18-13.871 5.898-13.871 5.898z" fill="#3D248A"/><path d="M353.12 38.262c-.645-.04-1.33.08-1.976.202-1.653.364-2.943 2.02-1.653 3.636 1.089 1.333 5.323 1.817 3.791 4.443-1.049 1.818-3.67 1.575-5.363 1.212-4.073-.97-6.976-4.403-7.581-8.362-.605-3.959 2.782-8.039 6.613-8.887 3.306-.727 7.54.404 8.387 4.04l-2.218 3.716z" fill="#3D248A"/><path d="M344.196 42.527c-3.846.199-7.112.993-10.063 3.574-3.319 2.928-3.793 8.387.422 10.82 3.055 1.736 7.376.942 10.115-1.043.949-.695 1.95-1.44 2.635-2.382.211-.298.421-.646.579-.993.106-.149.264-.645.211-.496-.263 1.29-.369 2.68.527 3.772 1.897 2.382 5.743.794 6.586-1.638 1.054-2.928-.422-5.36-1.686-7.891l-9.326-3.723z" fill="#3D248A"/><path d="M362.435 60.883v.243c-.04.565-.323 1.293-.726 1.777-.322.364-.766.606-1.29.606-1.129 0-1.815-.646-2.218-1.575-.524-1.212-.443-2.95-.202-3.878.081-.243.323-.404.565-.364.242.081.403.323.363.566-.202.808-.282 2.262.161 3.272.242.565.645.97 1.331.97.322 0 .524-.203.726-.445.201-.323.322-.687.363-1.05.04-.283 0-.566-.041-.808 0-.122-.121-.283-.121-.404-.04-.121 0-.243 0-.323.041-.122.121-.243.242-.283a.718.718 0 01.444-.04c.121.04.282.12.403.242.161.161.363.404.484.525.363.364.766.727 1.25.889.282.08.605.161.887.12.202-.04.403-.08.524-.242.081-.12.121-.323.041-.565-.162-.727-.605-1.05-1.049-1.575a.505.505 0 01.081-.687.502.502 0 01.685.08c.525.647 1.049 1.091 1.25 1.98.121.606.041 1.01-.201 1.333-.202.283-.524.485-.928.606a2.632 2.632 0 01-1.572-.121c-.605-.162-1.049-.485-1.452-.849z" fill="#fff"/><path d="M350.401 94.378l24.892 1.273c.262.032.468.25.424.523-.044.271-.267.494-.529.462l-25.13-1.257a.397.397 0 01-.36-.221s-7.859-13.737-9.657-23.527c-.398-2.14-.496-4.114-.208-5.699.333-1.734 1.149-3.01 2.542-3.762 5.221-2.739 9.079.153 11.817 4.683 3.541 5.848 5.109 14.48 5.442 16.195l18.059 4.459a.456.456 0 01.329.577c-.079.262-.327.438-.578.368l-18.346-4.538c-.179-.05-.288-.201-.35-.38 0 0-1.5-9.75-5.334-16.165-2.446-4.085-5.886-6.82-10.599-4.347-1.11.586-1.75 1.668-2.005 3.018-.301 1.5-.157 3.325.203 5.332 1.631 8.932 8.412 21.235 9.388 23.006z" fill="#3D248A"/><path d="M378.38 88.587c1.46-2.579 3.83-4.553 6.83-4.985.639-.073 1.665-.013 2.444.33.39.17.707.385.842.723.091.226.068.458-.063.773-.227.59-.707.77-1.197.796-.679.036-1.446-.115-2.09-.118-1.821-.056-3.473.726-4.432 2.278-.136.238-.078.543.158.684.236.141.535.086.671-.152.788-1.273 2.149-1.885 3.59-1.848.644.004 1.448.153 2.165.114.868-.047 1.64-.397 2.028-1.418.229-.55.196-1.049.058-1.426-.14-.415-.427-.746-.821-.994-.951-.641-2.59-.822-3.528-.694-3.3.486-5.924 2.628-7.517 5.484a.508.508 0 00.196.682c.233.102.53.01.666-.229z" fill="#3D248A"/><path d="M381.42 89.051c2.275-.468 5.105-.544 6.849 1.28.406.438.853.912.933 1.56.128.798-.302 1.74-1.184 1.558-.306-.06-.589-.351-.835-.645-.329-.404-.658-.808-.944-1.137-.725-.69-1.729-1.019-2.62-1.354-.234-.103-.528.028-.626.264-.098.235.035.535.269.637.813.301 1.661.562 2.306 1.179.362.326.7.882 1.105 1.282.363.364.72.613 1.142.706 1.609.335 2.529-1.21 2.283-2.654-.13-.837-.624-1.462-1.194-2.083-1.95-2.08-5.126-2.1-7.737-1.576-.262.053-.432.33-.38.557.095.302.372.479.633.426z" fill="#3D248A"/><path d="M383.036 91.074c1.161 1.047 2.002 1.804 2.002 3.525-.021.269-.073.616-.244.893-.1.196-.24.357-.506.333-.19-.028-.275-.177-.36-.325-.208-.295-.343-.632-.508-.852-.583-.848-1.409-1.377-2.273-1.904a.483.483 0 00-.666.189.505.505 0 00.195.677c.743.42 1.452.878 1.952 1.616.206.257.386.706.634 1.036.247.331.6.542.978.56.491.011.892-.201 1.17-.56.348-.44.531-1.1.537-1.597.016-2.066-.913-3.01-2.315-4.273a.472.472 0 00-.676.037c-.14.16-.12.465.08.645zm-12.263-33.807c2.339-2.908 6.238-2.62 8.46.287.741.97 1.482 3.015 2.145 5.456 1.637 5.887 2.963 14.215 3.08 16.943 0 .251.233.467.506.467s.468-.252.468-.503c-.156-2.764-1.481-11.2-3.119-17.158-.74-2.62-1.52-4.774-2.3-5.78-2.612-3.445-7.212-3.732-9.98-.322a.512.512 0 00.077.682c.195.143.507.143.663-.072zm-261.871 7.846c.103-.422.361-.811.748-1.06.388-.25.803-.344 1.238-.25l9.341 2.038c.404.088.764.352.997.737.203.377.294.805.183 1.263l-5.141 21.085c-.103.422-.361.81-.748 1.06a1.548 1.548 0 01-1.238.249l-9.341-2.037a1.569 1.569 0 01-.997-.737c-.202-.378-.294-.806-.183-1.263l5.141-21.085z" fill="#3D248A"/><path d="M110.383 66.902a1.11 1.11 0 01.468-.666c.234-.154.508-.207.777-.149l2.161.47a.97.97 0 01.629.454c.139.235.178.521.111.792l-.558 2.281a1.11 1.11 0 01-.468.666 1.009 1.009 0 01-.777.15l-2.161-.47a.97.97 0 01-.629-.455 1.06 1.06 0 01-.111-.791l.558-2.282z" fill="#fff"/><path d="M115.386 54.787c.068-.276.235-.512.468-.666a1.01 1.01 0 01.777-.15l2.161.47c.259.056.491.22.63.454.138.236.177.522.111.792l-.559 2.282a1.11 1.11 0 01-.468.666 1.008 1.008 0 01-.777.149l-2.161-.47a.97.97 0 01-.629-.454 1.064 1.064 0 01-.111-.791l.558-2.282z" fill="#00D5FF"/><path d="M109.091 73.548l-.426 1.737c-.076.311-.03.635.125.897.154.266.413.45.71.515l1.648.358c.297.064.617.005.879-.17.262-.177.453-.449.529-.755l.425-1.738c.076-.311.03-.635-.125-.896a1.082 1.082 0 00-.71-.516l-1.648-.358a1.144 1.144 0 00-.878.17 1.265 1.265 0 00-.529.756zm.92.2a.242.242 0 01.096-.136.203.203 0 01.157-.033l1.648.358a.19.19 0 01.125.094.218.218 0 01.023.161l-.425 1.738a.237.237 0 01-.096.136.201.201 0 01-.156.032l-1.648-.358a.191.191 0 01-.126-.093.228.228 0 01-.023-.162l.425-1.737z" fill="#fff"/><path d="M118.43 62.884c.108-.44.367-.823.756-1.065.37-.245.822-.323 1.234-.233l4.702 1.021c.412.09.779.357 1 .719.218.373.293.828.185 1.27l-1.21 4.942c-.108.44-.367.823-.756 1.065-.37.246-.822.323-1.234.234l-4.702-1.022a1.585 1.585 0 01-1.001-.719 1.69 1.69 0 01-.184-1.269l1.21-4.943z" fill="#C2DE0B"/><path d="M117.959 62.782l-1.21 4.943a2.149 2.149 0 00.24 1.633c.296.478.75.815 1.299.934l4.703 1.022c.548.12 1.113.004 1.601-.304a2.26 2.26 0 00.975-1.37l1.21-4.942a2.144 2.144 0 00-.24-1.633 1.992 1.992 0 00-1.298-.934l-4.703-1.022a2.137 2.137 0 00-1.602.305c-.491.32-.838.809-.975 1.368zm.921.2c.076-.31.267-.581.535-.749.268-.168.574-.239.868-.175l4.703 1.021c.294.064.559.247.699.516.163.261.208.585.132.894l-1.21 4.943c-.076.31-.266.582-.534.75a1.172 1.172 0 01-.869.175l-4.703-1.022a1.033 1.033 0 01-.699-.515 1.164 1.164 0 01-.132-.894l1.21-4.944z" fill="#C2DE0B"/><path d="M42.35 130.492l5.922 17.042c.448 1.298.84 2.584 1.064 3.918.225 1.334.401 2.681.403 4.05l.087 28.869-.225 5.322 10.282.971.225-5.321 2.401-28.638c.182-2.133.134-4.255-.05-6.394-.184-2.14-.599-4.269-1.141-6.39l-4.437-17.458-2.306-7.65-14.538 4.004 2.313 7.675zm21.663-3.268l15.438 25.372c.52.879.939 1.802 1.016 2.814.09 1.045.044 2.15-.348 3.168l-8.268 21.831-2.124 5.024 9.562 3.8 2.123-5.024 9.881-21.189c1.322-2.822 1.868-5.879 1.843-8.886-.015-3.031-.806-5.982-2.174-8.682L77.56 118.823l-3.74-6.74-13.58 8.416 3.774 6.725z" fill="#3D248A"/><path d="M56.724 200.064l4.922 1.822 2.442.647-1.204 4.942-2.442-.647-8.021-1.34-2.514-.675-.368-7.431.033-3.783 7.451.192-.033 3.783-.267 2.49z" fill="#C2DE0B"/><path d="M63.918 209.094l-13.522-2.895a.816.816 0 00-.963.652.818.818 0 00.639.98l13.521 2.895a.816.816 0 00.963-.652.83.83 0 00-.638-.98zm-6.905-13.262c-.59.089-1.195-.007-1.788.055a.826.826 0 00-.713.914c.058.446.473.791.91.738.593-.061 1.195.008 1.814-.055.438-.053.745-.468.687-.913a.831.831 0 00-.91-.739zm-.31 2.839c-.611.169-1.194.362-1.805.53a.8.8 0 00-.578.985.81.81 0 00.978.601c.612-.142 1.22-.363 1.856-.533.434-.105.686-.569.55-1.009-.136-.441-.57-.705-1.002-.574z" fill="#3D248A"/><path d="M75.939 198.371l4.026 3.158 2.082 1.321-2.756 4.418-2.082-1.32-7.097-3.579-2.14-1.367 2.097-7.264 1.276-3.635 6.938 2.31-1.276 3.635-1.068 2.323z" fill="#C2DE0B"/><path d="M79.956 209.071l-11.848-6.735c-.396-.214-.887-.063-1.127.356s-.114.925.282 1.139l11.848 6.735c.395.214.887.064 1.126-.356.232-.391.115-.925-.28-1.139zM77.497 194.4c-.588-.085-1.127-.352-1.707-.462-.431-.075-.884.233-.976.682-.092.449.185.904.616.979.58.11 1.127.351 1.733.467.43.075.858-.239.95-.688.1-.475-.16-.897-.616-.978zm-1.159 2.607c-.632-.012-1.246.008-1.878-.005-.444-.022-.828.328-.87.788-.043.46.28.84.724.863.625.038 1.271-.002 1.928.016.444.023.835-.354.852-.819a.759.759 0 00-.756-.843zm26.322-133.93l-5.293-2.073c-.266-.1-.512.03-.616.272-.088.265.05.519.293.633l5.293 2.073c.266.099.512-.03.616-.272.088-.265-.043-.558-.293-.633zm3.287-4.34l-7.758-7.775c-.189-.182-.489-.188-.662-.004a.483.483 0 00.021.67l7.759 7.775c.188.183.488.188.662.004.189-.16.182-.464-.022-.67zm4.513-3.619l-1.962-5.97a.48.48 0 00-.609-.315c-.254.066-.387.36-.289.604l1.962 5.97a.48.48 0 00.609.316.487.487 0 00.289-.605zm-37.523 1.32c.015 4.4-3.05 8.674-7.036 7.37-.67-.214-1.266-.718-1.76-1.212-1.186-1.198-1.587-2.744-1.658-4.44-.091-1.77.182-3.71.341-5.631a.456.456 0 00-.437-.503c-.259-.011-.49.214-.508.495-.15 1.958-.412 3.933-.332 5.73.076 1.924.574 3.67 1.925 5.033.581.594 1.298 1.181 2.102 1.45 4.6 1.527 8.33-3.24 8.31-8.348-.016-.263-.214-.473-.484-.457-.249.025-.48.25-.463.513z" fill="#3D248A"/><path d="M62.245 52.078c-.813-.382-1.72-.938-1.997-1.858-.466-1.267.279-3.06 1.79-3.102.692-.025 1.239.381 1.835.674a.53.53 0 00.651-.221.516.516 0 00-.18-.657c-.705-.337-1.395-.803-2.213-.786-2.15.045-3.353 2.586-2.709 4.42.392 1.146 1.429 1.89 2.493 2.377a.465.465 0 00.616-.236c.047-.204-.034-.506-.286-.61z" fill="#3D248A"/><path d="M63.455 45.084c-.874 1.987 3.058 9.315 9.693 11.667 6.017 2.094 11.277-7.424 5.29-12.037-7.054-5.418-14.983.37-14.983.37z" fill="#3D248A"/><path d="M64.492 47.587c-.561-.278-1.225-.42-1.853-.546-1.632-.275-3.47.798-2.98 2.794.425 1.655 4.019 3.686 1.563 5.578-1.689 1.314-3.937.111-5.305-.86-3.25-2.426-4.435-6.726-3.344-10.664 1.09-3.938 5.807-6.503 9.59-5.872 3.262.55 6.59 3.186 5.849 6.91l-3.52 2.66zm26.18 39.633c-4.5 2.674-9.778 5.469-17.587 8.763-3.343 1.44-7.213 1.194-10.49-.623-4.603-2.524-11.005-6.442-14.653-10.35-1.18-1.272-2.087-2.533-2.508-3.72-.398-1.11-.367-2.212.198-3.21 2.226-3.7 5.655-3.907 9.266-2.54 3.777 1.403 7.686 4.473 10.665 7.138 3.513 3.173 8.263 4.323 12.592 3.071 5.11-1.496 11.086-3.218 11.086-3.218a.441.441 0 00.291-.602c-.076-.264-.358-.433-.599-.33 0 0-5.976 1.722-11.086 3.218-4.004 1.167-8.423.093-11.668-2.826-3.048-2.769-7.123-5.877-10.994-7.337-4.037-1.498-7.873-1.225-10.398 2.917-1.428 2.438-.208 5.32 2.431 8.154 3.752 4.002 10.248 7.977 14.946 10.557 3.548 1.95 7.727 2.196 11.323.69 7.88-3.313 13.184-6.156 17.73-8.8a.494.494 0 00.151-.688c-.17-.32-.466-.405-.696-.264z" fill="#3D248A"/><path d="M89.862 81.603c-.126-2.989.835-5.928 3.142-7.862.5-.395 1.399-.877 2.238-.987.42-.055.8-.035 1.092.188.196.148.299.36.354.7.12.628-.192 1.033-.592 1.311-.554.385-1.281.654-1.827.985-1.567.9-2.551 2.435-2.543 4.275.01.277.22.51.494.51.274-.002.498-.205.487-.481-.006-1.51.821-2.748 2.058-3.465.546-.332 1.304-.622 1.889-1.028.708-.492 1.176-1.196.965-2.28-.097-.595-.386-1.01-.702-1.263-.338-.287-.754-.423-1.218-.432-1.14-.06-2.62.637-3.345 1.235-2.531 2.137-3.619 5.353-3.46 8.65.011.277.251.49.525.488a.526.526 0 00.443-.544z" fill="#3D248A"/><path d="M92.615 80.342c1.672-1.585 4.019-3.12 6.45-2.45.574.167 1.201.345 1.61.863.528.623.663 1.661-.177 1.961-.29.107-.682.003-1.044-.123-.49-.179-.98-.357-1.396-.493-.975-.22-1.995.017-2.923.19-.251.033-.43.299-.389.553a.522.522 0 00.563.411c.844-.162 1.697-.377 2.566-.179.477.094 1.056.4 1.607.535.499.126.931.156 1.335.016 1.534-.546 1.495-2.358.527-3.478-.55-.655-1.296-.938-2.104-1.18-2.74-.784-5.43.847-7.356 2.656a.498.498 0 00-.026.678c.27.19.565.22.757.04z" fill="#3D248A"/><path d="M95.035 81.267c1.529.3 2.636.518 3.54 2.003.125.242.263.569.265.896.019.221-.015.433-.25.55-.176.074-.325-.01-.475-.094-.33-.146-.62-.367-.876-.472-.937-.429-1.91-.457-2.915-.464-.272.001-.472.234-.462.508.01.275.249.485.521.484.846-.024 1.684.005 2.494.382.308.114.695.409 1.078.566.383.156.79.155 1.118-.026.42-.244.645-.635.69-1.09.062-.559-.13-1.223-.388-1.655-1.073-1.79-2.352-2.123-4.196-2.486a.46.46 0 00-.55.382c-.034.211.143.464.406.516zM75.382 117.88l-20.255 12.436-14.654-7.2c-2.38-8.041-.093-12.482 4.387-16.877l24.595-.701 5.927 12.342zM61.879 53.267c.884 3.077-1.16 6.709-3.846 8.407-1.445.911-3.73 1.473-4.937.034-1.077-1.282.487-3.706 1.327-4.712.22-.274.559-.706.908-.822.123-.053-.204.124-.326.177-.123.054-.265.15-.388.204a5.136 5.136 0 01-.921.399c-1.006.364-2.515.519-3.327-.236-.876-.833-.35-1.917.52-2.65.303-.238.649-.46.995-.68.184-.08.245-.107.472-.17.061-.026.29.017.226-.062-1.229-.823-4.135-.884-3.502-3.227.335-1.215 1.77-1.765 2.828-1.795 1.057-.03 2.085.345 3.09.659 1.048.33 2.137.679 3.026 1.257l3.855 3.217zm12.565 2.575c1.298.179 2.593.924 3.542 1.784.486.46 1.02 1.147.838 1.897-.414 1.84-3.023 1.065-3.966.414-.106-.095.192.235.339.348.275.27.422.382.678.695.742.773 1.749 2.173.86 3.3-.61.83-1.907-.02-2.413-.436a13.877 13.877 0 01-.591-.556c-.064-.078-.131-.261-.15-.217-.016.148.144.679.128.827.121.619.064 1.42-.348 2.023-.374.516-.91.396-1.333.013-.547-.433-.908-1.513-.848-2.21.029-.402.387-.769.604-1.04.294-.445.524-.969.776-1.432.811-1.623 1.386-3.604 1.392-5.408l.492-.002zm18.041 33.69c4.091.231 8.065.253 9.845-.086.268-.043.418-.295.371-.565-.047-.27-.3-.425-.569-.382-1.779.34-5.652.294-9.642.038a.498.498 0 00-.53.45c.078.306.292.558.525.545z" fill="#3D248A"/><path d="M111.955 94.69c-.061.017-.332.06-.576.127-.941.227-2.682.796-4.934 1.412-4.565 1.25-11.152 2.837-17.349 3.145-4.22.2-8.281-.138-11.459-1.55a.504.504 0 01-.221-.648c.107-.246.383-.352.646-.27 3.06 1.382 6.977 1.667 11.047 1.478 6.168-.331 12.694-1.902 17.166-3.095 2.617-.716 4.508-1.296 5.327-1.49.305-.082.483-.07.572-.063 2.853.545 5.361-.728 6.978-2.866 2.506-3.276 3.012-8.595-.381-12.784-.165-.202-.142-.516.078-.67.192-.175.487-.132.651.07 3.694 4.57 3.151 10.391.384 13.985-1.874 2.394-4.752 3.83-7.929 3.22zm-57.65 6.43c.031-.239.032-.478.063-.704.032-.89.032-1.78.095-2.67.032-.623.095-1.234 0-1.858-.032-.266.126-.518.38-.558a.515.515 0 01.568.398c.127.69.063 1.381 0 2.072-.063.89-.031 1.78-.095 2.669 0 .292-.031.571-.063.863v.199c.032.067.032.147.063.186 0 .12-.031.226-.095.319-.063.093-.19.239-.474.213-.663-.067-1.517-.611-1.928-.811-1.39-.69-2.687-1.434-3.983-2.164-.38-.213-.758-.398-1.138-.61-.063.238-.063.49-.095.73-.031.398-.063.783-.095 1.181-.063.505-.19 1.01-.252 1.514a.477.477 0 01-.538.425c-.253-.026-.442-.265-.442-.531.063-.518.19-1.036.253-1.54.063-.372.063-.757.094-1.13.032-.45.064-.902.285-1.34.032-.12.126-.293.221-.359.095-.053.19-.106.38-.093.063 0 .19.04.316.106.094.053.284.173.316.2.38.212.758.411 1.138.61 1.296.717 2.56 1.461 3.951 2.152.221.079.664.358 1.075.531zm-7.429-3.174c-.031.04-.031.106-.031.106s.031-.04.031-.106z" fill="#3D248A"/><path d="M85.202 9.93l-.427 17.427 5.12.273 5.285 9.53-.142-16.772-6.047 1.46L85.2 9.93z" fill="#FFC700"/><path d="M115.015 78.272a6.305 6.305 0 01-.607-1.262c-.186-.608-.186-1.262.094-1.73.233-.374.466-.56.793-.654.28-.094.56-.047.887.046.7.234 1.4.936 1.773 1.356.187.187.794.935.98 1.122a.567.567 0 01.094.702.565.565 0 01-.7.093c-.234-.187-.934-.982-1.12-1.215-.234-.281-.654-.702-1.121-.982-.186-.094-.373-.187-.513-.14a.818.818 0 00-.233.186c-.14.281-.094.608 0 .982.186.702.653 1.356.98 1.777.187.28.373.514.56.748a.81.81 0 00.28.28c.093.094.093.234.093.28a.672.672 0 01-.093.328c-.047.094-.187.187-.373.234-.094 0-.234 0-.421-.094-.186-.093-.466-.42-.56-.467-.373-.28-.746-.608-1.213-.655-.373-.046-.653-.046-.747.14-.14.188-.093.468.047.795.28.655.7 1.123 1.213 1.59.56.561 1.12 1.075 1.541 1.73.14.187.093.327.046.42-.046.188-.186.328-.467.328-.046 0-.093 0-.14-.047-.046 0-.186-.093-.186-.093-.094-.047-.187-.094-.234-.094-.233-.14-.513-.234-.746-.327a3.862 3.862 0 00-1.354-.28c-.326 0-.7.046-.793.42-.047.094 0 .14 0 .234.047.14.14.28.187.42.42.702 1.26 1.216 1.913 1.59.28.187.607.328.933.421.28.047.42.327.327.608-.047.28-.327.42-.607.327-.42-.093-.793-.28-1.166-.468-.84-.467-1.82-1.122-2.287-1.963-.233-.42-.467-.982-.28-1.45.233-.607.7-.888 1.307-.981.466-.094.98 0 1.446.093l-.14-.14c-.56-.561-1.12-1.169-1.4-1.917-.28-.748-.233-1.356.094-1.73.28-.374.886-.607 1.68-.467.046-.14.14-.094.233-.094z" fill="#fff"/><path d="M426.021 35.224l-3.104 13.154-9.174-7.546 12.278-5.608z" fill="#00D5FF"/><path d="M303.435 143.51l13.293.475-6.206 10.612-7.087-11.087z" fill="#FF5784"/><path d="M596.837 142.596l-9.668 8.823-3.343-11.832 13.011 3.009z" fill="#00D5FF"/><path d="M121.249 175.022l-9.668 8.823-3.343-11.832 13.011 3.009z" fill="#FFC700"/><path d="M23.992 132.599l-11.328-7.678 10.168-5.821 1.16 13.499zm401.028 29.484l-11.328-7.679 10.168-5.821 1.16 13.5z" fill="#3D248A"/><path d="M626.245 67.883l-20.304-1.44 9.983-15.9 10.321 17.34z" fill="#FF5784"/><path d="M626.19 68.366a.5.5 0 00.471-.225c.116-.185.135-.345-.005-.517l-10.283-17.402a.574.574 0 00-.417-.257c-.157-.011-.295.076-.411.261l-9.983 15.9c-.077.124-.134.346-.054.481.08.135.199.209.416.257l20.266 1.502zm-19.466-2.382l18.568 1.314-9.401-15.915-9.167 14.6z" fill="#fff"/><path d="M247.823 26.707a10.025 10.025 0 00-1.43-7.72c-1.701-2.511-2.39-5.667-1.694-8.903 1.363-6.183 7.362-10.244 13.456-8.97 6.047 1.27 9.921 7.3 8.553 13.532-.696 3.236-2.664 5.884-5.239 7.465a10.028 10.028 0 00-4.528 6.505l-9.118-1.909z" fill="#FFC700"/><path d="M254.19 32.36l-5.081-1.04-.056.277a2.73 2.73 0 00.338 1.997c.362.593.968.986 1.626 1.134.686.15 1.374-.013 1.973-.402.57-.39.992-.982 1.145-1.688.015-.155.055-.277.055-.277zm-6.919-3.072l9.186 1.952c.302.074.594-.15.661-.441a.576.576 0 00-.418-.68l-9.185-1.95c-.302-.075-.594.148-.661.44a.575.575 0 00.417.68z" fill="#3D248A"/><path d="M529.801 17.258c.412-.32.956-.39 1.397-.138.441.251.653.751.577 1.263l-1.463 8.392 6.854 4.461c.428.273.627.796.497 1.305a1.32 1.32 0 01-1.028.991l-8.263 1.538-2.373 8.223c-.151.498-.567.874-1.078.933a1.197 1.197 0 01-1.223-.638l-3.628-7.44-8.341.617a1.155 1.155 0 01-1.172-.726c-.203-.466-.081-1.01.28-1.388l6.027-6.14-2.782-7.834c-.17-.476-.014-1.03.355-1.374a1.254 1.254 0 011.393-.227l7.342 3.63 6.629-5.448z" fill="#FFC700"/><path d="M18.53 71.24a.595.595 0 01.644-.049.579.579 0 01.28.575l-.517 4.012 2.26 3.197a.627.627 0 01-.563.963l-3.934-.335-3.262 2.448a.595.595 0 01-.644.049.578.578 0 01-.28-.575l.517-4.013-2.26-3.196a.61.61 0 01-.018-.652.627.627 0 01.58-.312l3.935.335 3.262-2.448z" fill="#9C63FF"/><path d="M15.146 73.183l3.102-2.33c.349-.255.807-.296 1.16-.095.367.21.56.622.498 1.04l-.494 3.817 2.153 3.04c.235.342.254.806.038 1.174-.223.383-.64.599-1.049.555l-3.743-.32-3.097 2.352c-.348.255-.807.296-1.16.094a1.016 1.016 0 01-.498-1.039l.494-3.817-2.153-3.04a1.104 1.104 0 01-.038-1.175c.224-.382.64-.598 1.049-.554l3.738.298zm3.65-1.565a.101.101 0 01.115-.01c.041.024.052.067.049.103l-.517 4.013a.436.436 0 00.08.328l2.26 3.197c.033.037.022.087.005.116a.113.113 0 01-.104.054l-3.92-.327a.509.509 0 00-.329.096l-3.261 2.448a.098.098 0 01-.115.01c-.04-.023-.051-.067-.048-.103l.517-4.012a.436.436 0 00-.08-.329l-2.27-3.182c-.032-.038-.02-.088-.004-.116a.112.112 0 01.104-.054l3.935.335a.509.509 0 00.328-.097l3.256-2.47z" fill="#9C63FF"/><path d="M266.351 165.474a.567.567 0 01.417-.478.604.604 0 01.613.217l2.547 3.212 3.905.718a.64.64 0 01.485.452.602.602 0 01-.182.622l-3.003 2.473-.512 3.99a.567.567 0 01-.417.478.605.605 0 01-.613-.216l-2.547-3.213-3.905-.717a.64.64 0 01-.485-.453.598.598 0 01.182-.621l3.003-2.473.512-3.991z" fill="#C2DE0B"/><path d="M265.387 169.191l.486-3.797c.059-.422.352-.767.745-.867.409-.104.844.056 1.103.397l2.423 3.058 3.715.681c.413.081.762.399.878.81.121.426-.015.867-.334 1.117l-2.858 2.352-.486 3.797c-.059.421-.351.767-.745.867a1.065 1.065 0 01-1.103-.397l-2.422-3.058-3.716-.682a1.155 1.155 0 01-.878-.809c-.12-.427.015-.867.334-1.118l2.858-2.351zm1.426-3.63a.094.094 0 01.073-.086c.046-.012.085.012.109.04l2.547 3.212a.459.459 0 00.295.179l3.904.718c.05.004.078.048.087.08.014.047-.008.086-.034.11l-3.002 2.473a.481.481 0 00-.161.294l-.512 3.991c-.002.051-.043.078-.073.086-.045.011-.085-.012-.109-.04l-2.547-3.213a.459.459 0 00-.294-.179l-3.905-.718c-.049-.004-.078-.047-.087-.079a.107.107 0 01.034-.11l3.003-2.473a.49.49 0 00.16-.295l.512-3.99z" fill="#C2DE0B"/><path d="M385.555 11.532a.568.568 0 01.417-.479.606.606 0 01.613.217l2.548 3.213 3.904.717a.639.639 0 01.485.453.6.6 0 01-.181.622l-3.003 2.473-.522 3.959a.566.566 0 01-.416.478.607.607 0 01-.614-.217l-2.547-3.212-3.905-.718a.64.64 0 01-.485-.452.6.6 0 01.182-.622l3.003-2.473.521-3.96z" fill="#FF5784"/><path d="M384.591 15.248l.486-3.797c.06-.421.352-.766.745-.867.409-.104.844.057 1.103.398l2.423 3.058 3.715.68c.413.082.762.4.878.81.121.427-.015.867-.334 1.118l-2.858 2.351-.486 3.798c-.059.42-.351.766-.745.866a1.064 1.064 0 01-1.103-.397l-2.422-3.058-3.716-.68a1.157 1.157 0 01-.878-.81c-.12-.427.015-.868.334-1.118l2.858-2.352zm1.426-3.63c.002-.05.043-.078.073-.086.046-.011.085.013.109.04l2.547 3.213a.46.46 0 00.295.179l3.904.718c.05.004.078.047.087.079a.106.106 0 01-.034.11l-3.002 2.473a.483.483 0 00-.161.295l-.497 3.986a.093.093 0 01-.073.087c-.045.011-.084-.013-.109-.04l-2.547-3.213a.461.461 0 00-.294-.18l-3.904-.717c-.05-.004-.079-.048-.088-.08a.108.108 0 01.034-.11l3.003-2.473a.487.487 0 00.16-.294l.497-3.987z" fill="#FF5784"/><path d="M611.11 175.805a.567.567 0 01.416-.478.605.605 0 01.614.217l2.547 3.212 3.904.718a.637.637 0 01.485.452.6.6 0 01-.181.622l-3.003 2.473-.512 3.99a.566.566 0 01-.417.478.605.605 0 01-.613-.216l-2.548-3.213-3.904-.717a.64.64 0 01-.485-.453.598.598 0 01.182-.621l3.002-2.473.513-3.991z" fill="#FFC700"/><path d="M36.05 145.502c-11.947-1.309-26.041 6.78-32.902 16.177-3.173 4.394-3.78 8.649-2.566 12.249 1.82 5.376 7.607 9.35 14.7 10.098 5.227.561 10.221-.701 15.308-1.776 14.84-3.226 29.448-11.034 44.29-16.971 14.747-5.891 29.681-9.865 45.269-5.564.233.094.513-.093.606-.327.094-.234-.093-.514-.326-.608-15.821-4.395-30.989-.374-45.923 5.564-14.794 5.89-29.355 13.698-44.15 16.924-4.993 1.075-9.893 2.338-15.027 1.777-6.627-.749-12.134-4.395-13.814-9.491-1.12-3.366-.56-7.294 2.427-11.361 6.674-9.163 20.394-17.018 32.015-15.756.28.047.513-.14.513-.42 0-.281-.186-.515-.42-.515zm179.164 24.031c-2.333-.841-4.527-1.917-6.393-3.506-2.52-2.104-3.734-4.395-4.014-6.592-.653-5.143 3.687-10.052 8.307-11.688 2.24-.795 4.574-.842 6.441.187 1.866.981 3.313 3.038 3.733 6.498.747 5.984-1.82 10.893-6.113 14.727 1.446.421 2.893.701 4.386.982 4.574.795 9.334 1.028 13.535 1.776 10.454 1.824 19.601 6.733 26.695 14.774.793.935 1.633 1.917 2.426 2.946 5.041-3.039 10.734-5.096 16.241-7.247.234-.094.514.047.607.28.093.234-.047.515-.28.608-5.414 2.104-11.061 4.114-16.008 7.107 1.587 2.197 2.987 4.581 3.781 7.012 1.26 4.021.793 8.135-3.501 11.501-4.9 3.834-9.1 3.46-11.247 1.076-2.147-2.385-2.38-6.826.793-11.501 2.381-3.553 5.414-6.218 8.821-8.369-.793-1.028-1.587-1.964-2.333-2.852-6.954-7.854-15.868-12.67-26.135-14.446-4.154-.748-8.914-.982-13.535-1.777-1.726-.28-3.453-.701-5.133-1.169-.887.748-1.82 1.403-2.847 2.057-9.567 6.125-23.755 8.603-32.015 7.621-4.341-.514-10.454-1.777-13.488-5.376-.186-.187-.14-.515.047-.702.187-.187.513-.14.7.047 2.847 3.46 8.727 4.535 12.834 5.049 8.074.982 22.028-1.449 31.362-7.48.84-.421 1.633-.982 2.333-1.543zm48.77 21.413c-3.314 2.103-6.254 4.675-8.587 8.135-2.847 4.16-2.8 8.181-.887 10.285 1.914 2.104 5.6 2.197 9.941-1.216 3.873-3.038 4.34-6.779 3.173-10.425-.7-2.338-2.1-4.676-3.64-6.779zm-47.883-22.114c4.34-3.694 7.001-8.416 6.254-14.26-.374-3.039-1.587-4.862-3.22-5.75-1.634-.888-3.687-.795-5.694-.094-4.247 1.496-8.307 5.938-7.7 10.66.28 2.01 1.353 4.067 3.64 5.984 2.007 1.543 4.247 2.665 6.72 3.46zm122.788-13.063c-2.847-1.101-5.694-2.603-7.561-4.371-1.307-1.268-2.1-2.636-2.147-4.104 0-1.001.327-2.002 1.12-3.069.887-1.135 2.194-1.802 3.687-2.069 2.147-.4 4.667.033 6.674.968 2.38 1.101 4.014 2.869 3.874 4.837-.187 2.469-1.634 5.005-3.921 7.441 1.354.467 2.66.834 3.781 1.067 13.44 2.803 31.408 1.502 43.776 6.306 2.613 1.001 6.113 2.77 8.727 4.838 1.82 1.435 3.267 3.003 3.78 4.538.093.267-.047.534-.28.6-.233.101-.513-.033-.607-.3-.513-1.401-1.82-2.802-3.5-4.104-2.567-2.002-5.974-3.703-8.494-4.704-12.321-4.771-30.242-3.437-43.636-6.239-1.307-.267-2.8-.701-4.34-1.235a33.115 33.115 0 01-2.567 2.269c-6.02 4.871-14.561 9.042-20.721 11.11-3.5 1.168-7.841 2.403-11.808 2.069-.28-.033-.466-.267-.42-.534 0-.267.234-.467.514-.434 3.827.334 8.027-.867 11.434-2.035 6.067-2.035 14.514-6.172 20.441-10.943.793-.634 1.54-1.235 2.194-1.902zm.746-.734c2.287-2.336 3.78-4.771 3.967-7.174.047-.767-.28-1.468-.84-2.135-.607-.701-1.493-1.301-2.52-1.768-1.867-.834-4.154-1.235-6.114-.868-1.26.234-2.333.768-3.08 1.702-.653.834-.933 1.668-.933 2.469 0 1.234.746 2.369 1.82 3.436 1.913 1.769 4.853 3.27 7.7 4.338zm73.505 37.453c9.287-4.815 22.121-9.724 31.035-9.444.28 0 .467.234.467.514 0 .281-.234.468-.514.468-8.82-.281-21.421 4.582-30.568 9.35a32.32 32.32 0 011.26 2.899c1.167 3.039 1.727 6.218 1.12 9.21-1.354 6.499-9.941 10.847-14.841 5.003-2.38-2.852-1.867-5.938-.14-8.696 1.633-2.618 4.434-4.909 6.627-6.218 1.4-.842 2.94-1.73 4.667-2.618-1.633-3.086-3.64-5.938-5.274-8.322-.14-.234-.093-.515.14-.655.234-.14.514-.093.654.14 1.68 2.338 3.687 5.237 5.367 8.369zm-.42 1.262a75.97 75.97 0 00-4.574 2.619c-2.1 1.262-4.714 3.413-6.3 5.89-1.494 2.385-2.007 5.05.046 7.527 4.341 5.19 11.901 1.169 13.114-4.581.607-2.852.047-5.798-1.073-8.696-.373-.888-.793-1.823-1.213-2.759zm102.264-22.812c3.015 1.535 6.493 2.637 10.297 3.238 25.278 3.974 63.032-5.242 80.518-17.963 9.045-6.578 14.054-15.226 12.709-23.373-.881-5.409-4.638-10.551-11.781-14.692a.488.488 0 01-.186-.667.467.467 0 01.65-.167c7.467 4.34 11.27 9.749 12.244 15.392 1.392 8.448-3.664 17.463-13.079 24.308-17.672 12.855-55.751 22.137-81.261 18.131-3.989-.635-7.699-1.803-10.853-3.473-5.427 5.109-13.497 8.782-22.217 10.217a.484.484 0 01-.557-.4c-.046-.267.14-.501.418-.568 8.395-1.402 16.187-4.875 21.475-9.75-4.36-2.504-7.561-6.01-8.767-10.25-.788-2.838-.51-7.513 2.412-9.984 1.253-1.068 3.061-1.736 5.427-1.669 3.061.1 5.102 1.101 6.447 2.537 1.252 1.336 1.855 3.105 2.041 4.942.278 2.704-.418 5.576-1.299 7.546-1.02 2.404-2.644 4.641-4.638 6.645zm-.881-.468c1.994-2.003 3.617-4.207 4.684-6.578.835-1.836 1.438-4.541 1.206-7.045-.139-1.636-.696-3.205-1.809-4.374-1.206-1.302-3.015-2.137-5.751-2.237-7.096-.234-7.931 6.778-6.911 10.418 1.206 4.073 4.314 7.412 8.581 9.816z" fill="#3D248A"/></svg>