<svg width="1437" height="959" fill="none" xmlns="http://www.w3.org/2000/svg"><path d="M1125.22 222.665l-11.18 74.693-48.25-42.534 59.43-32.159z" fill="#00D5FF"/><path d="M1366.78 356.281l2.79 141.259-102.32-63.321 99.53-77.938z" fill="#FFC700"/><path d="M311.965 734.307l141.107-7.106-60.164 104.209-80.943-97.103z" fill="#00D5FF"/><path d="M1107 871.752l-67 50.554v-82.368l67 31.814z" fill="#E1E1E1"/><path d="M1155.42 48.052l194.03 49.802-117.63 133.505-76.4-183.307z" stroke="#E1E1E1" stroke-width="3"/><path d="M26.469 242.646l72.49 14.387-56.426 69.354-16.064-83.741z" fill="#FFC700"/><path d="M809.909 613.141l15.954-36.982 18.699 30.671-34.653 6.311zm-457.25-433.709l57.654-105.301 46.942 96.232-104.596 9.069z" fill="#FF5784"/></svg>