<svg width="55" height="56" viewBox="0 0 55 56" fill="none" xmlns="http://www.w3.org/2000/svg">
<path d="M28.6392 1.47477C14.2285 1.28087 2.22364 12.9909 1.79282 27.6618C1.36348 42.2825 12.6699 54.3563 27.0806 54.5502C36.3762 54.6753 45.1318 49.7339 50.0453 41.5851L38.9779 34.7741C36.5458 38.8489 32.1441 41.2942 27.5209 41.232C20.3402 41.1353 14.6624 35.0981 14.877 27.7877C15.0917 20.4773 21.1195 14.5976 28.3002 14.6942L28.6884 1.47544L28.6392 1.47477Z" fill="#3D248A"/>
<path d="M26.5706 54.599C40.9784 54.9456 53.1068 43.3636 53.6931 28.6981C54.2774 14.0827 43.0996 1.88969 28.6918 1.543C19.398 1.31937 10.5906 6.16764 5.59092 14.2639L16.5855 21.1919C19.0607 17.1432 23.488 14.7446 28.1103 14.8559C35.2896 15.0286 40.9031 21.1257 40.611 28.4334C40.3188 35.7411 34.229 41.5566 27.0497 41.3838L26.5214 54.5978L26.5706 54.599Z" fill="#3D248A"/>
</svg>
