<svg width="677" height="588" viewBox="0 0 677 588" fill="none" xmlns="http://www.w3.org/2000/svg">
<path d="M507.183 292.254C535.46 285.696 561.198 311.489 580.066 333.548C598.925 355.595 618.391 384.286 609.539 411.916C601.114 438.213 565.151 439.147 541.612 453.584C524.538 464.055 512.195 481.189 492.336 483.798C467.471 487.064 439.101 487.153 421.417 469.371C403.066 450.919 395.92 420.425 405.085 396.068C413.277 374.299 445.932 377.459 462.242 360.875C482.173 340.609 479.494 298.677 507.183 292.254Z" fill="#FFC700"/>
<path d="M52.7663 362.052C44.6117 320.801 43.823 278.32 56.9565 237.616C70.7917 194.737 92.7929 152.632 129.661 123.733C166.759 94.6557 215.024 72.5535 262.303 76.6603C308.081 80.6366 330.765 133.869 374.95 145.04C426.373 158.041 486.278 121.907 533.155 145.138C582.478 169.581 640.725 218.585 628.459 270.672C614.299 330.811 514.398 334.662 476.544 385.553C451.18 419.652 490.37 481.534 453.98 505.245C416.386 529.741 368.155 488.434 323.248 485.438C290.995 483.286 259.948 492.167 227.682 490.148C184.937 487.475 136.596 496.114 103.226 471.676C69.3368 446.858 60.6804 402.086 52.7663 362.052Z" fill="white"/>
<path d="M512.262 441.115C512.262 439.855 511.764 438.648 510.867 437.736C509.97 436.85 508.765 436.341 507.496 436.341C495.825 436.341 465.933 436.341 454.262 436.341C453.003 436.341 451.788 436.85 450.891 437.736C449.994 438.621 449.496 439.855 449.496 441.115C449.496 442.376 449.994 443.583 450.891 444.495C451.788 445.38 452.993 445.89 454.262 445.89C465.933 445.89 495.825 445.89 507.496 445.89C508.755 445.89 509.97 445.38 510.867 444.495C511.764 443.61 512.262 442.376 512.262 441.115Z" fill="white"/>
<path d="M277.526 419.241C277.526 416.613 275.391 414.467 272.764 414.467C264.564 414.467 247.879 414.467 239.679 414.467C237.046 414.467 234.917 416.613 234.917 419.241C234.917 421.87 237.052 424.016 239.679 424.016C247.879 424.016 264.564 424.016 272.764 424.016C275.391 424.016 277.526 421.897 277.526 419.241Z" fill="#E1E1E1"/>
<path d="M113.558 431.592C113.558 428.963 111.424 426.817 108.793 426.817C106.435 426.817 103.597 426.817 101.239 426.817C98.6074 426.817 96.4741 428.963 96.4741 431.592C96.4741 434.221 98.6074 436.366 101.239 436.366C103.597 436.366 106.435 436.366 108.793 436.366C111.424 436.34 113.558 434.221 113.558 431.592Z" fill="#E1E1E1"/>
<path d="M487.887 414.493C487.887 411.865 485.753 409.719 483.122 409.719C480.764 409.719 477.926 409.719 475.568 409.719C472.936 409.719 470.803 411.865 470.803 414.493C470.803 417.122 472.936 419.268 475.568 419.268C477.926 419.268 480.764 419.268 483.122 419.268C485.753 419.241 487.887 417.122 487.887 414.493Z" fill="white"/>
<path d="M234.914 447.707C234.914 446.446 234.407 445.239 233.518 444.327C232.629 443.442 231.408 442.933 230.147 442.933C217.129 442.933 181.072 442.933 168.054 442.933C166.792 442.933 165.582 443.442 164.683 444.327C163.794 445.213 163.287 446.446 163.287 447.707C163.287 448.968 163.794 450.175 164.683 451.087C165.572 451.972 166.792 452.482 168.054 452.482C181.072 452.482 217.129 452.482 230.147 452.482C231.408 452.482 232.618 451.972 233.518 451.087C234.407 450.175 234.914 448.968 234.914 447.707Z" fill="#E1E1E1"/>
<path d="M368.499 233.931H257.937V268.547H368.499V233.931Z" fill="#00D5FF"/>
<path d="M490.989 290.439H434.609V321.33H490.989V290.439Z" fill="#FF5784"/>
<path d="M308.929 327.408H230.596V391.735H308.929V327.408Z" fill="#FFC700"/>
<path d="M402.617 324.138C410.893 310.526 408.084 294.219 396.343 287.732C384.603 281.245 368.363 287.026 360.086 300.637L402.617 324.138Z" fill="#FF5784"/>
<path d="M406.406 270.311C406.406 270.311 395.728 274.818 388.56 268.27C381.011 261.359 385.198 256.569 388.031 256.266C396.362 255.417 406.406 270.311 406.406 270.311Z" fill="#3D248A"/>
<path d="M358.981 338.05L346.832 361.27C343.926 366.828 341.827 372.708 340.737 378.811C339.647 384.854 339.405 391.017 340.172 397.181L340.979 403.506L341.443 408.963L352.362 408.013L351.897 402.557L351.615 396.191C351.393 391.24 351.998 386.329 353.229 381.58C354.46 376.912 356.479 372.466 359.082 368.323L373.047 346.154L377.084 339.121L363.017 331.018L358.981 338.05Z" fill="#3D248A"/>
<path d="M378.227 351.094L378.522 371.619C378.608 377.688 380.243 383.361 383.432 387.99C386.542 392.528 390.858 396.227 396.244 398.266L403.017 400.842L407.932 402.987L412.922 392.761L408.006 390.616L401.54 387.392C398.494 385.878 396.226 383.394 394.642 380.515C393.121 377.743 392.581 374.465 392.855 371.063L394.516 350.45L394.779 342.241L378.49 342.885L378.227 351.094Z" fill="#3D248A"/>
<path d="M342.665 419.542L342.176 416.706L341.85 412.852L349.551 412.206L349.877 416.06L349.855 421.326L350.083 424.006L338.787 426.867L336.311 427.68L334.692 422.714L337.169 421.9L342.665 419.542Z" fill="#FF5784"/>
<path d="M335.6 431.467L350.247 427.459C350.688 427.33 350.957 426.877 350.835 426.425C350.712 425.972 350.247 425.714 349.806 425.843L335.159 429.851C334.718 429.98 334.448 430.432 334.571 430.885C334.693 431.337 335.159 431.596 335.6 431.467Z" fill="#3D248A"/>
<path d="M341.664 416.563C342.33 416.603 342.996 416.482 343.662 416.523C344.126 416.543 344.51 416.179 344.55 415.734C344.57 415.27 344.227 414.886 343.763 414.845C343.117 414.805 342.451 414.946 341.785 414.906C341.321 414.865 340.917 415.229 340.897 415.694C340.837 416.118 341.2 416.523 341.664 416.563Z" fill="#3D248A"/>
<path d="M341.967 419.594C342.653 419.736 343.359 419.938 344.046 420.059C344.51 420.14 344.934 419.837 345.014 419.392C345.095 418.927 344.792 418.503 344.328 418.422C343.642 418.301 342.976 418.119 342.29 417.978C341.846 417.876 341.402 418.18 341.301 418.624C341.22 419.069 341.523 419.513 341.967 419.594Z" fill="#3D248A"/>
<path d="M419.275 406.402L416.76 405.437L413.544 403.824L417.649 396.646L420.864 398.259L424.978 400.879L427.215 402L422.694 413.473L421.849 416.081L416.988 415.069L417.832 412.462L419.275 406.402Z" fill="#FF5784"/>
<path d="M424.928 418.805L430.325 404.247C430.481 403.805 430.296 403.356 429.885 403.245C429.475 403.135 429.013 403.412 428.857 403.855L423.459 418.412C423.303 418.854 423.489 419.303 423.899 419.414C424.31 419.525 424.772 419.247 424.928 418.805Z" fill="#3D248A"/>
<path d="M416.09 405.591C416.508 405.032 416.802 404.395 417.22 403.835C417.505 403.442 417.451 402.933 417.136 402.684C416.794 402.442 416.303 402.555 416.003 402.939C415.597 403.481 415.318 404.128 414.9 404.687C414.6 405.071 414.642 405.597 414.984 405.839C415.299 406.088 415.79 405.975 416.09 405.591Z" fill="#3D248A"/>
<path d="M418.809 407.015C419.319 406.484 419.887 405.965 420.381 405.424C420.714 405.058 420.73 404.541 420.437 404.255C420.128 403.959 419.626 404.018 419.292 404.384C418.798 404.925 418.27 405.419 417.76 405.949C417.423 406.288 417.395 406.823 417.677 407.127C417.97 407.412 418.488 407.363 418.809 407.015Z" fill="#3D248A"/>
<path d="M359.667 336.959L378.335 350.661L393.733 351.409L395.63 342.092L363.32 330.978L359.667 336.959Z" fill="#3D248A"/>
<path d="M388.19 318.869L377.652 312.565C377.483 312.47 377.409 312.262 377.468 312.045C377.526 311.828 377.67 311.659 377.85 311.593L392.923 306.648C393.174 306.563 393.419 306.736 393.445 307C393.471 307.264 393.294 307.558 393.044 307.644L379.144 312.211L389.789 318.598C389.958 318.693 390.032 318.901 389.973 319.118C389.915 319.335 389.771 319.504 389.56 319.565L376.474 322.684L386.084 328.337C386.253 328.432 386.327 328.64 386.268 328.857C386.209 329.074 386.066 329.243 385.855 329.303L372.365 333.195C372.115 333.281 371.869 333.108 371.852 332.813C371.826 332.548 372.002 332.255 372.253 332.169L384.507 328.644L374.813 322.943C374.644 322.848 374.57 322.641 374.629 322.424C374.687 322.207 374.839 322.006 375.042 321.977L388.19 318.869Z" fill="#3D248A"/>
<path d="M365.04 288.575C360.701 291.222 357.048 291.889 354.021 291.263C351.216 290.677 348.975 288.979 347.24 286.776C344.596 283.402 343.123 278.875 342.719 275.197C342.699 274.914 342.437 274.712 342.154 274.752C341.872 274.772 341.67 275.035 341.71 275.318C342.114 279.158 343.668 283.887 346.433 287.403C348.309 289.788 350.772 291.606 353.799 292.253C357.028 292.94 360.943 292.273 365.564 289.444C365.807 289.303 365.887 288.979 365.726 288.737C365.585 288.494 365.262 288.434 365.04 288.575Z" fill="#3D248A"/>
<path d="M340.379 270.257C340.178 267.085 339.35 263.487 337.332 260.961C336.989 260.537 336.262 259.749 335.536 259.405C334.89 259.102 334.224 259.102 333.699 259.688C333.376 260.032 333.195 260.476 333.155 260.961C333.074 261.588 333.195 262.255 333.336 262.8C333.82 264.639 334.507 266.418 334.93 268.257C334.991 268.519 335.274 268.701 335.536 268.641C335.798 268.58 335.98 268.297 335.919 268.034C335.475 266.175 334.789 264.397 334.305 262.538C334.204 262.174 334.123 261.729 334.123 261.305C334.123 260.961 334.204 260.618 334.426 260.355C334.608 260.153 334.85 260.193 335.092 260.315C335.677 260.597 336.262 261.244 336.525 261.588C338.422 263.952 339.169 267.347 339.35 270.318C339.37 270.601 339.612 270.803 339.895 270.783C340.178 270.783 340.4 270.54 340.379 270.257Z" fill="#3D248A"/>
<path d="M338.217 272.061C337.814 271.111 337.43 270.141 336.865 269.252C336.3 268.363 335.351 267.655 334.383 267.352C333.676 267.15 332.97 267.17 332.405 267.474C331.8 267.797 331.295 268.444 331.134 269.555C330.992 270.525 331.315 271.536 331.921 272.465C332.748 273.758 334.12 274.89 335.23 275.456C335.654 275.678 336.401 275.961 337.087 276.002C337.652 276.042 338.157 275.901 338.5 275.537C338.702 275.335 338.681 275.011 338.48 274.83C338.278 274.627 337.955 274.648 337.773 274.85C337.632 275.011 337.39 275.032 337.148 275.011C336.623 274.991 336.038 274.749 335.695 274.587C334.706 274.082 333.515 273.092 332.788 271.96C332.344 271.253 332.042 270.485 332.163 269.757C332.264 269.07 332.526 268.625 332.91 268.423C333.273 268.241 333.697 268.262 334.141 268.383C334.887 268.605 335.614 269.151 336.058 269.838C336.583 270.667 336.946 271.576 337.329 272.485C337.43 272.748 337.733 272.869 337.995 272.768C338.197 272.607 338.338 272.324 338.217 272.061Z" fill="#3D248A"/>
<path d="M331.537 270.929C331.093 270.869 330.629 270.788 330.165 270.849C328.591 271.01 327.925 272.728 328.268 274.102C328.53 275.194 330.044 276.931 331.638 277.72C332.829 278.285 334.04 278.326 334.887 277.437C335.089 277.235 335.069 276.911 334.867 276.729C334.665 276.527 334.343 276.548 334.161 276.75C333.616 277.315 332.849 277.174 332.082 276.81C330.77 276.164 329.479 274.769 329.257 273.88C329.055 273.072 329.338 271.98 330.286 271.879C330.649 271.839 331.033 271.92 331.396 271.96C331.679 272.001 331.921 271.798 331.961 271.536C332.022 271.212 331.82 270.97 331.537 270.929Z" fill="#3D248A"/>
<path d="M331.846 282.329C332.472 285.906 334.126 289.321 335.862 292.474C339.918 299.87 349.848 312.218 367.103 307.55C367.365 307.469 367.526 307.206 367.466 306.923C367.385 306.661 367.123 306.499 366.84 306.559C350.211 311.046 340.665 299.102 336.75 291.989C335.075 288.917 333.44 285.623 332.835 282.147C332.795 281.864 332.532 281.682 332.25 281.743C331.987 281.784 331.806 282.046 331.846 282.329Z" fill="#3D248A"/>
<path d="M389.152 267.438C385.739 271.176 385.109 274.696 386.126 277.3C387.167 279.952 389.879 281.736 393.316 281.929C394.478 282.002 395.689 281.712 396.778 281.326C399.321 280.458 400.894 278.819 402.105 276.842C403.243 274.937 404.041 272.719 404.961 270.573C405.083 270.308 404.961 270.018 404.695 269.898C404.429 269.777 404.138 269.898 404.017 270.163C403.097 272.261 402.347 274.455 401.233 276.311C400.144 278.096 398.739 279.566 396.464 280.362C395.495 280.7 394.406 280.965 393.389 280.892C390.411 280.7 387.99 279.205 387.094 276.89C386.174 274.551 386.852 271.441 389.927 268.089C390.121 267.872 390.096 267.559 389.903 267.366C389.661 267.221 389.346 267.245 389.152 267.438Z" fill="#3D248A"/>
<path d="M406.647 270.327C406.647 270.327 399.212 263.716 397.126 261.394C390.956 254.497 402.725 248.351 405.898 257.749C407.664 262.93 406.826 267.022 406.647 270.327Z" fill="#3D248A"/>
<path d="M401.513 276.204C405.045 274.345 409.379 271.617 410.986 267.959C411.768 266.161 411.198 263.574 408.681 264.665C406.715 265.534 405.7 267.414 404.77 269.192C403.776 271.071 401.513 276.204 401.513 276.204Z" fill="#3D248A"/>
<path d="M421.971 346.614C426.253 339.653 427.051 329.014 424.674 319.618C422.039 309.27 415.306 299.278 406.472 295.343C402.267 293.48 398.084 294.97 396.928 299.352C395.787 303.73 398.423 308.318 402.235 311.253C408.052 315.71 410.974 317.671 413.197 322.986C415.722 329.007 416.719 335.733 414.777 341.068C414.687 341.324 414.811 341.646 415.05 341.783C415.294 341.938 415.555 341.854 415.645 341.598C417.677 336.007 416.657 328.974 414.02 322.668C411.704 317.122 408.709 315.042 402.651 310.391C399.233 307.769 396.788 303.7 397.811 299.78C398.825 295.882 402.555 294.62 406.271 296.271C414.78 300.051 421.244 309.718 423.765 319.684C426.075 328.784 425.314 339.102 421.154 345.856C421.016 346.066 421.096 346.398 421.308 346.6C421.548 346.834 421.833 346.823 421.971 346.614Z" fill="#3D248A"/>
<path d="M408.935 347.566C408.29 347.509 407.608 347.471 406.963 347.357C405.923 347.186 404.955 346.825 404.202 346.027C403.001 344.792 403.521 342.646 404.919 341.886C405.744 341.43 406.837 341.487 407.716 341.601C409.079 341.772 410.549 342.114 411.858 342.551C412.126 342.646 412.27 342.931 412.18 343.197C412.091 343.462 411.804 343.614 411.535 343.519C410.28 343.102 408.881 342.779 407.59 342.627C406.909 342.532 406.067 342.437 405.439 342.779C404.596 343.253 404.238 344.545 404.973 345.305C405.582 345.932 406.353 346.198 407.178 346.331C408.092 346.483 409.061 346.502 409.921 346.597C410.136 346.616 410.244 346.73 410.316 346.825C410.387 346.92 410.423 347.034 410.423 347.167C410.423 347.243 410.387 347.357 410.334 347.471C410.28 347.547 410.154 347.68 410.118 347.737C410.029 347.87 409.939 348.022 409.832 348.155C409.509 348.61 409.168 349.028 408.81 349.427C408.559 349.712 408.29 349.997 408.021 350.282C407.483 350.871 406.604 351.916 406.228 352.98C406.031 353.568 405.959 354.138 406.318 354.613C406.425 354.746 406.604 354.803 406.784 354.803C407.035 354.822 407.304 354.765 407.519 354.689C408.11 354.461 408.63 354.024 409.114 353.53C409.67 352.98 410.172 352.372 410.656 351.878C410.979 351.555 411.266 351.213 411.571 350.89C411.589 350.871 411.804 350.605 411.858 350.567C412.109 350.358 412.342 350.453 412.413 350.472C412.557 350.529 412.628 350.624 412.682 350.7C412.754 350.814 412.79 350.966 412.754 351.118C412.736 351.232 412.664 351.384 412.521 351.517C412.431 351.612 412.27 351.726 412.198 351.821C411.929 352.201 411.696 352.6 411.463 352.999C411.087 353.644 410.62 354.347 410.352 355.107C410.118 355.734 410.047 356.399 410.405 357.064C410.495 357.216 410.62 357.254 410.764 357.235C410.925 357.235 411.105 357.178 411.266 357.102C412.252 356.703 412.862 355.601 413.453 354.727C413.704 354.366 413.955 353.986 414.152 353.587C414.224 353.435 414.296 353.265 414.386 353.113C414.421 353.037 414.529 352.809 414.565 352.79C414.798 352.486 415.085 352.581 415.174 352.619C415.21 352.638 415.605 352.79 415.461 353.265C415.156 354.328 414.583 355.525 414.35 356.722C414.134 357.748 414.188 358.773 415.049 359.609C415.461 360.008 415.945 359.856 416.394 359.552C416.967 359.153 417.487 358.507 417.756 358.014C419.011 355.658 419.603 352.676 418.742 350.111C418.617 349.731 418.473 349.142 418.24 348.629C418.133 348.382 418.007 348.155 417.846 348.041C417.613 347.889 417.541 347.566 417.702 347.319C417.864 347.091 418.186 347.015 418.42 347.186C418.724 347.395 418.993 347.775 419.19 348.212C419.424 348.743 419.585 349.389 419.728 349.788C420.679 352.638 420.069 355.924 418.671 358.507C418.276 359.248 417.415 360.274 416.501 360.692C415.766 361.034 414.995 361.015 414.332 360.35C413.256 359.286 413.077 358.033 413.292 356.741C412.826 357.311 412.306 357.805 411.66 358.071C410.889 358.375 409.975 358.412 409.509 357.558C408.989 356.627 409.061 355.677 409.383 354.765C409.401 354.727 409.419 354.689 409.437 354.651C408.953 355.088 408.433 355.468 407.859 355.677C407.465 355.829 406.909 355.905 406.443 355.81C406.067 355.734 405.726 355.563 405.493 355.24C404.919 354.48 404.919 353.568 405.26 352.638C405.69 351.441 406.658 350.244 407.25 349.598C407.501 349.313 407.77 349.028 408.039 348.743C408.326 348.382 408.648 347.984 408.935 347.566Z" fill="#3D248A"/>
<path d="M329.172 274.563C328.829 274.583 328.446 274.724 328.183 274.947C326.993 275.998 327.255 277.635 328.103 278.807C328.809 279.797 330.121 280.504 331.332 280.504C331.856 280.504 332.321 280.343 332.805 280.241C333.087 280.181 333.249 279.918 333.209 279.655C333.148 279.373 332.886 279.191 332.623 279.251C332.179 279.332 331.776 279.494 331.332 279.494C330.424 279.494 329.475 278.948 328.95 278.221C328.405 277.473 328.123 276.402 328.89 275.715C328.991 275.634 329.132 275.593 329.253 275.573C329.536 275.553 329.737 275.311 329.737 275.028C329.697 274.765 329.455 274.543 329.172 274.563Z" fill="#3D248A"/>
<path d="M414.549 257.348C416.265 255.408 418.364 253.69 419.817 251.528C419.978 251.306 419.917 250.982 419.675 250.821C419.453 250.659 419.13 250.72 418.969 250.962C417.536 253.084 415.478 254.782 413.782 256.681C413.601 256.883 413.621 257.207 413.823 257.389C414.045 257.57 414.368 257.55 414.549 257.348Z" fill="#3D248A"/>
<path d="M418.444 264.058C422.359 263.067 426.335 261.774 430.291 261.026C430.573 260.966 430.755 260.703 430.694 260.44C430.634 260.157 430.371 259.975 430.109 260.036C426.133 260.764 422.137 262.077 418.202 263.067C417.94 263.128 417.758 263.411 417.839 263.694C417.899 263.977 418.182 264.138 418.444 264.058Z" fill="#3D248A"/>
<path d="M417.657 271.333C420.341 271.999 423.167 272.889 425.81 273.737C426.073 273.818 426.355 273.677 426.456 273.414C426.537 273.151 426.396 272.868 426.133 272.767C423.469 271.919 420.644 271.009 417.92 270.342C417.657 270.282 417.375 270.443 417.314 270.706C417.213 270.989 417.375 271.252 417.657 271.333Z" fill="#3D248A"/>
<path d="M195.987 307.167C189.707 287.902 171.255 275.242 154.793 278.902C138.33 282.563 130.068 301.164 136.348 320.429L195.987 307.167Z" fill="#00D5FF"/>
<path d="M146.901 260.69C146.901 260.69 156.771 265.907 164.477 259.542C172.594 252.823 169.066 247.662 166.346 247.198C158.345 245.877 146.901 260.69 146.901 260.69Z" fill="#3D248A"/>
<path d="M174.756 338.538L183.342 378.301L183.822 380.803L187.727 405.042L188.39 410.422L198.376 407.089L197.713 401.709L195.521 376.899L195.138 373.635L189.396 332.745L188.012 324.924L173.336 330.71L174.756 338.538Z" fill="#3D248A"/>
<path d="M146.265 337.424L145.719 371.006L145.518 373.641L140.132 405.431L139.037 410.626L149.343 415.011L150.438 409.816L158.152 379L158.874 374.452L161.839 341.514L162.265 333.426L146.685 329.363L146.265 337.424Z" fill="#3D248A"/>
<path d="M138.586 424.795L142.321 428.667L144.1 430.158L140.615 434.738L138.836 433.247L132.2 428.83L130.365 427.294L133.889 419.32L135.795 415.515L142.124 418.248L140.218 422.053L138.586 424.795Z" fill="#00D5FF"/>
<path d="M141.692 436.85L130.245 428.255C129.904 427.987 129.359 428.155 129.056 428.587C128.744 429.042 128.785 429.61 129.126 429.879L140.574 438.474C140.914 438.742 141.46 438.574 141.762 438.142C142.075 437.687 142.033 437.119 141.692 436.85Z" fill="#3D248A"/>
<path d="M140.99 420.574C140.377 420.428 139.854 420.116 139.25 419.949C138.827 419.838 138.343 420.169 138.156 420.668C137.969 421.166 138.178 421.645 138.602 421.755C139.214 421.901 139.747 422.24 140.368 422.364C140.792 422.475 141.276 422.143 141.463 421.645C141.622 421.162 141.422 420.662 140.99 420.574Z" fill="#3D248A"/>
<path d="M139.47 423.27C138.8 423.226 138.131 423.23 137.471 423.164C137.024 423.119 136.562 423.5 136.439 423.987C136.317 424.475 136.569 424.937 137.006 424.956C137.685 425.027 138.38 425.007 139.05 425.051C139.478 425.091 139.94 424.71 140.054 424.196C140.168 423.729 139.907 423.288 139.47 423.27Z" fill="#3D248A"/>
<path d="M185.492 331.008L163.862 342.238L149.408 340.239L150.647 329.953L184.041 323.961L185.492 331.008Z" fill="#3D248A"/>
<path d="M163.57 258.971C166.175 262.582 166.459 265.816 165.326 268.174C164.196 270.506 161.679 271.914 158.768 271.953C157.774 271.974 156.749 271.618 155.845 271.244C153.724 270.328 152.507 268.715 151.675 266.823C150.78 264.852 150.299 262.556 149.666 260.35C149.579 260.071 149.311 259.932 149.039 260.041C148.767 260.151 148.64 260.444 148.704 260.721C149.355 262.978 149.88 265.302 150.769 267.322C151.697 269.418 153.063 271.19 155.431 272.219C156.447 272.649 157.586 273.036 158.722 273.024C162.058 272.983 164.913 271.294 166.22 268.647C167.5 266.023 167.286 262.369 164.395 258.343C164.232 258.109 163.926 258.093 163.693 258.279C163.442 258.415 163.407 258.737 163.57 258.971Z" fill="#3D248A"/>
<path d="M146.589 260.464C146.589 260.464 154.367 254.155 156.601 251.911C163.21 245.246 152.729 238.397 148.685 247.755C146.439 252.932 146.782 257.123 146.589 260.464Z" fill="#3D248A"/>
<path d="M150.87 266.47C147.699 264.392 143.857 261.387 142.726 257.581C142.178 255.71 143.012 253.108 145.297 254.352C147.081 255.34 147.843 257.305 148.535 259.164C149.276 261.128 150.87 266.47 150.87 266.47Z" fill="#3D248A"/>
<path d="M119.779 359.914C119.572 361.275 119.042 362.532 117.745 363.431C116.951 363.997 116.268 363.862 115.715 363.404C115.033 362.816 114.602 361.618 114.465 360.787C114.043 357.88 114.515 354.407 116.215 351.669C116.449 351.282 116.791 350.649 117.178 350.147C117.487 349.734 117.843 349.392 118.178 349.231C118.431 349.116 118.7 349.23 118.773 349.492C118.845 349.754 118.682 350.072 118.423 350.206C118.245 350.295 118.063 350.507 117.892 350.741C117.533 351.207 117.218 351.804 116.99 352.172C115.43 354.669 115.041 357.808 115.428 360.441C115.514 360.993 115.76 361.743 116.162 362.254C116.466 362.644 116.848 362.884 117.337 362.547C118.364 361.821 118.722 360.799 118.847 359.71C119.003 358.463 118.87 357.117 118.927 355.974C118.941 355.482 119.343 355.376 119.381 355.363C119.472 355.339 119.756 355.292 119.869 355.644C119.879 355.666 119.904 355.919 119.928 356.006C119.961 356.177 119.956 356.362 119.988 356.533C120.04 356.976 120.146 357.409 120.257 357.823C120.512 358.821 120.713 360.056 121.465 360.637C121.59 360.723 121.732 360.813 121.869 360.86C121.996 360.885 122.129 360.891 122.24 360.748C122.757 360.148 122.898 359.455 122.891 358.752C122.88 357.946 122.69 357.126 122.555 356.398C122.471 355.949 122.387 355.5 122.266 355.063C122.232 354.954 122.124 354.809 122.073 354.696C121.993 354.515 121.97 354.366 121.99 354.246C122.021 354.088 122.078 353.955 122.182 353.831C122.253 353.762 122.362 353.681 122.491 353.644C122.566 353.618 122.796 353.58 122.955 353.838C122.99 353.886 123.099 354.196 123.109 354.219C123.28 354.603 123.439 355.026 123.616 355.39C123.893 355.981 124.151 356.691 124.474 357.352C124.751 357.943 125.087 358.503 125.532 358.818C125.683 358.93 125.904 359.035 126.148 359.062C126.313 359.074 126.484 359.066 126.62 358.949C127.085 358.525 127.203 357.909 127.203 357.291C127.197 356.135 126.74 354.912 126.445 354.215C126.31 353.879 126.159 353.54 126.009 353.201C125.814 352.73 125.646 352.223 125.495 351.719C125.456 351.567 125.402 351.412 125.369 351.241C125.345 351.154 125.269 351.015 125.261 350.931C125.232 350.802 125.251 350.682 125.275 350.604C125.316 350.468 125.383 350.357 125.476 350.272C125.568 350.188 125.693 350.109 125.896 350.108C126.688 350.16 127.553 350.309 128.41 350.313C129.183 350.32 129.948 350.182 130.682 349.646C131.562 349.015 131.649 347.609 131.048 346.976C130.597 346.516 129.804 346.464 129.186 346.446C127.973 346.393 126.655 346.464 125.413 346.673C125.146 346.724 124.938 346.518 124.94 346.23C124.943 345.942 125.164 345.656 125.426 345.624C126.721 345.405 128.13 345.311 129.391 345.373C130.206 345.409 131.193 345.541 131.784 346.152C132.784 347.193 132.567 349.48 131.143 350.52C130.22 351.184 129.25 351.385 128.285 351.401C127.677 351.406 127.061 351.326 126.471 351.272C126.613 351.753 126.76 352.215 126.945 352.664C127.08 352.999 127.231 353.338 127.381 353.677C127.701 354.461 128.207 355.859 128.209 357.138C128.208 358.148 127.937 359.105 127.2 359.764C126.9 360.034 126.539 360.17 126.182 360.182C125.723 360.195 125.27 360.024 124.967 359.799C124.538 359.488 124.194 359.008 123.884 358.473C123.888 358.515 123.892 358.557 123.896 358.599C123.901 359.59 123.672 360.576 122.924 361.439C122.247 362.233 121.448 362.035 120.858 361.59C120.326 361.176 120.017 360.579 119.779 359.914Z" fill="#3D248A"/>
<path d="M234.36 278.277C234.782 277.975 235.186 277.655 235.571 277.335C235.861 277.086 236.15 276.819 236.44 276.552C237.193 275.894 241.036 272.386 243.79 270.743C244.556 270.283 245.241 269.986 245.77 269.885C246.261 269.783 246.671 269.879 246.928 270.099C247.221 270.338 247.398 270.684 247.462 271.065C247.541 271.554 247.449 272.095 247.287 272.491C247.124 272.904 246.403 273.78 245.433 274.797C244.23 276.063 242.625 277.614 241.33 278.825C241.368 278.808 241.424 278.79 241.463 278.773C242.374 278.46 243.314 278.401 244.218 278.937C245.049 279.419 244.984 280.34 244.66 281.113C244.377 281.76 243.873 282.277 243.296 282.739C244.579 282.54 245.813 282.719 246.831 283.836C247.468 284.514 247.444 285.291 247.103 286.027C246.662 286.943 245.622 287.778 244.878 288.184C242.263 289.539 238.997 290.109 236.228 289.13C235.838 288.998 235.204 288.827 234.686 288.567C234.261 288.362 233.893 288.086 233.696 287.776C233.553 287.539 233.619 287.214 233.85 287.055C234.08 286.895 234.397 286.972 234.559 287.209C234.666 287.373 234.888 287.503 235.128 287.615C235.609 287.856 236.206 288.009 236.578 288.141C239.104 289.044 242.051 288.488 244.417 287.255C244.914 286.991 245.567 286.494 245.98 285.903C246.294 285.456 246.459 284.97 246.077 284.549C245.258 283.67 244.265 283.602 243.245 283.805C242.074 284.023 240.855 284.585 239.794 284.877C239.339 285.016 239.182 284.616 239.164 284.58C239.13 284.489 239.045 284.198 239.352 283.968C239.371 283.95 239.6 283.844 239.677 283.791C239.83 283.703 240 283.651 240.153 283.563C240.553 283.37 240.936 283.122 241.301 282.874C242.182 282.29 243.29 281.69 243.714 280.702C243.776 280.54 243.837 280.36 243.861 280.198C243.865 280.053 243.851 279.908 243.703 279.834C243.076 279.464 242.416 279.527 241.771 279.753C241.031 280.014 240.303 280.474 239.653 280.844C239.252 281.074 238.85 281.303 238.467 281.569C238.371 281.64 238.253 281.801 238.157 281.89C238.002 282.033 237.868 282.103 237.755 282.12C237.605 282.136 237.474 282.116 237.344 282.042C237.271 281.986 237.18 281.895 237.127 281.768C237.092 281.695 237.024 281.459 237.238 281.209C237.277 281.155 237.547 280.942 237.566 280.924C237.895 280.621 238.261 280.319 238.57 280.016C239.267 279.339 242.57 276.312 244.665 274.099C245.499 273.225 246.141 272.493 246.303 272.133C246.384 271.936 246.448 271.665 246.438 271.394C246.424 271.213 246.392 271.032 246.264 270.922C246.209 270.885 246.153 270.884 246.078 270.883C245.965 270.881 245.851 270.916 245.7 270.95C245.283 271.071 244.806 271.317 244.252 271.635C241.555 273.243 237.789 276.679 237.055 277.32C236.766 277.569 236.476 277.836 236.187 278.103C235.781 278.459 235.339 278.796 234.898 279.116C234.763 279.204 234.629 279.311 234.476 279.399C234.399 279.452 234.283 279.577 234.206 279.612C234.092 279.683 233.978 279.699 233.903 279.698C233.772 279.697 233.66 279.659 233.569 279.585C233.477 279.512 233.386 279.402 233.355 279.185C233.288 278.316 233.299 277.34 233.176 276.416C233.07 275.583 232.831 274.803 232.23 274.18C231.52 273.429 230.214 273.772 229.719 274.615C229.362 275.243 229.429 276.111 229.503 276.781C229.632 278.103 229.89 279.498 230.265 280.769C230.351 281.041 230.192 281.328 229.926 281.415C229.66 281.501 229.364 281.353 229.298 281.081C228.906 279.756 228.613 278.269 228.485 276.894C228.399 276.007 228.377 274.904 228.852 274.079C229.665 272.68 231.801 272.204 232.967 273.413C233.713 274.2 234.04 275.181 234.197 276.214C234.325 276.938 234.342 277.626 234.36 278.277Z" fill="#3D248A"/>
<path d="M137.339 326.713C137.339 326.713 137.526 326.31 137.806 325.705C138.69 323.738 140.921 322.869 142.88 323.798C143.834 324.262 144.894 324.774 145.899 325.237C147.064 325.794 148.36 325.85 149.524 325.365C150.689 324.879 151.571 323.906 152.025 322.649C152.34 321.695 153.077 320.926 153.939 320.599C154.851 320.221 155.837 320.287 156.739 320.754C157.535 321.175 158.332 321.595 159.074 321.968C161.25 323.087 163.791 322.208 164.815 319.939C164.955 319.637 165.092 319.284 165.284 318.98C165.797 317.87 166.738 317.044 167.861 316.759C168.984 316.473 170.235 316.68 171.201 317.393C171.31 317.488 171.415 317.534 171.524 317.63C172.704 318.485 174.166 318.784 175.542 318.391C176.918 317.997 178.007 317.017 178.611 315.656C179.073 314.548 180.014 313.722 181.085 313.438C182.206 313.103 183.405 313.311 184.369 313.975C185.119 314.496 185.869 315.018 186.564 315.491C187.42 316.059 188.462 316.223 189.43 315.942C190.399 315.662 191.19 314.94 191.556 313.984C192.204 312.473 192.803 311.012 192.803 311.012C192.894 310.761 192.773 310.417 192.562 310.325C192.296 310.185 192.043 310.293 191.903 310.595C191.903 310.595 191.304 312.056 190.656 313.567C190.381 314.272 189.786 314.788 189.123 314.959C188.41 315.181 187.68 315.057 187.09 314.629C186.394 314.156 185.644 313.634 184.895 313.113C183.663 312.26 182.203 312.01 180.827 312.404C179.451 312.797 178.313 313.828 177.709 315.19C177.245 316.248 176.355 317.072 175.284 317.356C174.212 317.64 173.013 317.432 172.101 316.767C171.993 316.671 171.887 316.625 171.779 316.529C170.545 315.626 169.03 315.329 167.603 315.724C166.175 316.119 165.035 317.101 164.382 318.513C164.244 318.866 164.104 319.168 163.912 319.473C163.119 321.188 161.139 321.899 159.491 321.01C158.749 320.638 157.899 320.169 157.156 319.797C156.04 319.188 154.745 319.132 153.58 319.617C152.415 320.103 151.531 321.027 151.128 322.282C150.762 323.237 150.079 324.055 149.168 324.433C148.256 324.811 147.221 324.795 146.319 324.329C145.365 323.864 144.306 323.353 143.3 322.89C140.864 321.729 138.073 322.765 136.955 325.236C136.675 325.841 136.489 326.245 136.489 326.245C136.398 326.496 136.467 326.842 136.73 326.932C136.944 327.074 137.248 326.965 137.339 326.713Z" fill="#3D248A"/>
<path d="M144.954 290.843C142.859 288.081 140.755 286.564 138.804 285.884C134.283 284.228 130.526 286.868 129.176 287.805C121.477 293.198 117.276 302.929 115.5 312.721C113.695 322.52 114.305 332.345 116.122 337.984C117.363 341.775 118.818 346.505 121.21 349.85C121.372 350.082 121.681 350.174 121.846 349.992C122.051 349.839 122.045 349.501 121.883 349.269C119.563 346.061 118.179 341.468 116.988 337.742C115.214 332.246 114.666 322.635 116.416 313.073C118.166 303.511 122.232 293.957 129.785 288.705C131.027 287.827 134.509 285.314 138.681 286.849C140.464 287.486 142.378 288.889 144.311 291.418C144.473 291.651 144.771 291.707 144.976 291.554C145.122 291.413 145.146 291.07 144.954 290.843Z" fill="#3D248A"/>
<path d="M147.313 291.097C149.867 294.487 148.823 297.824 146.262 300.98C142.212 305.953 134.412 310.425 129.873 313.93C120.842 320.916 121.379 332.678 121.603 336.498C121.772 339.194 121.912 342.541 123.045 345.05C123.17 345.298 123.457 345.42 123.69 345.292C123.924 345.189 124.034 344.888 123.933 344.639C122.849 342.229 122.737 339.032 122.572 336.461C122.352 332.79 121.779 321.454 130.463 314.747C135.025 311.216 142.894 306.669 147.013 301.645C149.896 298.11 150.951 294.349 148.078 290.537C147.907 290.314 147.598 290.268 147.39 290.446C147.181 290.573 147.142 290.899 147.313 291.097Z" fill="#3D248A"/>
<path d="M171.73 278.317C173.685 274.822 178.629 274.415 182.208 276.078C186.266 277.944 191.985 280.557 202.906 285.545C205.414 286.699 208.772 286.936 212.498 286.529C217.995 285.918 224.378 283.95 230.023 281.473C230.281 281.371 230.392 281.066 230.281 280.828C230.171 280.591 229.875 280.455 229.617 280.557C224.083 283 217.811 284.968 212.387 285.545C208.846 285.918 205.673 285.715 203.311 284.663C192.428 279.675 186.672 277.062 182.614 275.195C178.592 273.363 173.058 273.94 170.844 277.876C170.697 278.114 170.807 278.419 171.029 278.555C171.287 278.623 171.582 278.555 171.73 278.317Z" fill="#3D248A"/>
<path d="M197.988 302.953C208.696 304.48 219.506 301.257 227.639 294.097C231.332 290.839 234.416 288.125 234.416 288.125C234.619 287.955 234.653 287.616 234.45 287.412C234.28 287.208 233.941 287.174 233.738 287.378C233.738 287.378 230.654 290.093 226.961 293.35C219.065 300.306 208.526 303.462 198.123 301.969C198.157 301.969 197.988 302.953 197.988 302.953Z" fill="#3D248A"/>
<path d="M204.392 417.819L210.143 418.069L212.599 417.944L213.8 423.345L211.344 423.47L203.1 424.722L200.569 424.851L196.674 417.09L194.975 413.242L201.652 411.031L203.35 414.88L204.392 417.819Z" fill="#00D5FF"/>
<path d="M215.492 424.357L200.675 425.971C200.224 426.011 199.972 426.481 200.097 426.972C200.233 427.485 200.709 427.845 201.16 427.805L215.978 426.19C216.428 426.15 216.68 425.68 216.555 425.189C216.419 424.676 215.943 424.317 215.492 424.357Z" fill="#3D248A"/>
<path d="M203.063 413.224C202.514 413.521 201.898 413.647 201.339 413.923C200.953 414.122 200.873 414.662 201.137 415.123C201.4 415.584 201.928 415.776 202.314 415.577C202.862 415.28 203.507 415.167 204.044 414.85C204.431 414.651 204.51 414.111 204.246 413.65C203.959 413.225 203.432 413.033 203.063 413.224Z" fill="#3D248A"/>
<path d="M203.885 416.215C203.378 416.617 202.908 417.051 202.389 417.433C202.038 417.69 202.015 418.249 202.317 418.662C202.619 419.075 203.166 419.229 203.49 418.96C204.025 418.57 204.502 418.108 205.009 417.706C205.344 417.456 205.367 416.897 205.037 416.472C204.745 416.079 204.237 415.957 203.885 416.215Z" fill="#3D248A"/>
<path d="M320.59 317.773H343.497C343.759 317.773 344.022 317.566 344.022 317.29C344.022 317.014 343.825 316.808 343.497 316.808H320.59C320.327 316.808 320.065 317.014 320.065 317.29C320.065 317.566 320.262 317.773 320.59 317.773Z" fill="#3D248A"/>
<path d="M320.59 328.273H343.497C343.759 328.273 344.022 328.066 344.022 327.79C344.022 327.514 343.825 327.308 343.497 327.308H320.59C320.327 327.308 320.065 327.514 320.065 327.79C320.065 328.066 320.262 328.273 320.59 328.273Z" fill="#3D248A"/>
<path d="M320.582 338.74H332.036C332.298 338.74 332.528 338.533 332.528 338.257C332.528 337.981 332.298 337.774 332.036 337.774H320.582C320.32 337.774 320.09 337.981 320.09 338.257C320.057 338.533 320.287 338.74 320.582 338.74Z" fill="#3D248A"/>
<path d="M385.804 190.872L394.216 201.999L380.556 202.976L385.804 190.872Z" fill="#3D248A"/>
<path d="M113.317 272.853L121.73 283.979L108.069 284.956L113.317 272.853Z" fill="#3D248A"/>
<path d="M274.171 256.241L314.798 280.802L276.314 301.997L274.171 256.241Z" fill="#FF5784"/>
<path d="M200.41 252.769L204.603 257.204C204.787 257.416 204.787 257.736 204.586 257.913C204.385 258.09 204.066 258.09 203.881 257.878L199.37 253.124C199.186 252.947 199.186 252.627 199.37 252.45L203.881 247.696C204.066 247.484 204.385 247.484 204.586 247.661C204.787 247.838 204.787 248.158 204.603 248.37L200.41 252.769Z" fill="#3D248A"/>
<path d="M190.742 252.769L194.935 257.204C195.119 257.416 195.119 257.736 194.918 257.913C194.717 258.09 194.398 258.09 194.213 257.878L189.702 253.124C189.518 252.947 189.518 252.627 189.702 252.45L194.213 247.696C194.398 247.484 194.717 247.484 194.918 247.661C195.119 247.838 195.119 248.158 194.935 248.37L190.742 252.769Z" fill="#3D248A"/>
<path d="M181.057 252.769L185.249 257.204C185.434 257.416 185.434 257.736 185.233 257.913C185.031 258.09 184.713 258.09 184.528 257.878L180.017 253.124C179.832 252.947 179.832 252.627 180.017 252.45L184.528 247.696C184.713 247.484 185.031 247.484 185.233 247.661C185.434 247.838 185.434 248.158 185.249 248.37L181.057 252.769Z" fill="#3D248A"/>
<path d="M448.718 379.016H219.019C218.529 379.016 218.039 378.592 218.039 378.025V307.601C218.039 307.318 218.284 307.106 218.529 307.106C218.774 307.106 219.019 307.318 219.019 307.601V378.025H448.718V218.986H219.019V279.785C219.019 280.068 218.774 280.281 218.529 280.281C218.284 280.281 218.039 280.068 218.039 279.785V218.986C218.039 218.42 218.529 217.996 219.019 217.996H448.718C449.208 217.996 449.698 218.42 449.698 218.986V378.025C449.698 378.592 449.208 379.016 448.718 379.016Z" fill="#3D248A"/>
<path d="M121.106 297.401C126.37 303.152 131.755 308.603 137.737 313.695C137.977 313.875 138.276 313.875 138.455 313.636C138.635 313.396 138.635 313.096 138.395 312.917C132.473 307.884 127.148 302.493 121.883 296.742C121.704 296.562 121.405 296.502 121.165 296.682C120.926 296.861 120.926 297.161 121.106 297.401Z" fill="#3D248A"/>
<path d="M333.368 291.11C336 289.732 338.034 287.696 340.427 285.898C342.581 284.281 344.854 282.843 346.948 281.166C347.188 280.986 347.188 280.686 347.008 280.447C346.829 280.207 346.53 280.207 346.29 280.387C344.196 282.064 341.923 283.502 339.769 285.12C337.436 286.857 335.462 288.834 332.889 290.212C332.65 290.332 332.53 290.631 332.71 290.871C332.829 291.17 333.129 291.23 333.368 291.11Z" fill="#3D248A"/>
<path d="M411.501 333.765C416.287 335.921 421.252 338.018 425.859 340.534C426.098 340.654 426.397 340.594 426.517 340.354C426.636 340.115 426.577 339.815 426.337 339.695C421.731 337.179 416.705 335.083 411.919 332.926C411.68 332.806 411.381 332.926 411.261 333.166C411.142 333.345 411.261 333.645 411.501 333.765Z" fill="#3D248A"/>
<path d="M188.41 289.014C190.205 285.359 192.299 281.645 194.692 278.35C194.871 278.111 194.811 277.811 194.572 277.631C194.333 277.452 194.034 277.512 193.854 277.751C191.461 281.106 189.367 284.88 187.513 288.535C187.393 288.774 187.513 289.074 187.752 289.194C187.991 289.373 188.29 289.253 188.41 289.014Z" fill="#3D248A"/>
<path d="M164.76 229.651C165.875 227.524 166.687 225.06 168.089 223.161C168.232 222.95 168.184 222.625 167.975 222.402C167.756 222.204 167.465 222.201 167.298 222.395C165.866 224.323 165.05 226.832 163.906 228.988C163.788 229.216 163.88 229.554 164.11 229.727C164.347 229.921 164.642 229.879 164.76 229.651Z" fill="#3D248A"/>
<path d="M157.462 227.052C157.049 222.973 156.879 218.772 156.241 214.702C156.203 214.411 155.959 214.189 155.734 214.198C155.487 214.192 155.331 214.42 155.385 214.708C156.017 218.758 156.197 222.935 156.588 226.998C156.62 227.269 156.837 227.519 157.075 227.549C157.322 227.556 157.484 227.347 157.462 227.052Z" fill="#3D248A"/>
<path d="M150.057 229.405C148.657 226.824 147.027 224.189 145.497 221.702C145.348 221.457 145.072 221.37 144.865 221.503C144.675 221.633 144.648 221.94 144.802 222.206C146.326 224.672 147.933 227.291 149.327 229.852C149.458 230.101 149.747 230.228 149.938 230.099C150.144 229.965 150.189 229.654 150.057 229.405Z" fill="#3D248A"/>
<path d="M309.639 314.475C295.228 314.281 283.224 325.991 282.793 340.662C282.363 355.283 293.67 367.356 308.081 367.55C317.376 367.675 326.132 362.734 331.045 354.585L319.978 347.774C317.546 351.849 313.144 354.294 308.521 354.232C301.34 354.135 295.662 348.098 295.877 340.788C296.092 333.477 302.119 327.598 309.3 327.694L309.688 314.475L309.639 314.475Z" fill="#3D248A"/>
<path d="M309.639 314.475C295.228 314.281 283.224 325.991 282.793 340.662C282.363 355.283 293.67 367.356 308.081 367.55C317.376 367.675 326.132 362.734 331.045 354.585L319.978 347.774C317.546 351.849 313.144 354.294 308.521 354.232C301.34 354.135 295.662 348.098 295.877 340.788C296.092 333.477 302.119 327.598 309.3 327.694L309.688 314.475L309.639 314.475Z" fill="#3D248A"/>
<path d="M269.893 356.529C269.653 354.612 268.816 352.635 268.218 350.838C267.859 349.76 267.38 348.682 267.021 347.663C266.004 345.087 264.748 342.631 263.791 339.995C263.671 339.755 263.85 339.456 264.09 339.336C264.329 339.216 264.628 339.396 264.748 339.636C265.705 342.212 266.961 344.728 267.978 347.244C268.397 348.322 268.816 349.4 269.175 350.479C269.953 352.695 271.029 355.331 271.029 357.788C271.029 358.027 270.91 358.147 270.85 358.207C270.73 358.327 270.551 358.387 270.371 358.327C270.312 358.327 270.192 358.267 270.072 358.147C269.953 358.027 269.773 357.728 269.653 357.608C269.414 357.368 269.175 357.129 268.936 356.889C267.739 355.631 266.782 354.193 265.705 352.875C263.671 350.419 261.637 347.963 259.423 345.626C258.047 344.129 256.611 342.092 254.817 340.953C254.936 341.553 255.235 342.631 255.355 342.99C255.953 345.027 256.671 347.004 257.509 348.981C259.543 353.894 262.295 358.986 263.252 364.198C263.312 364.497 263.192 364.617 263.132 364.677C263.073 364.797 262.953 364.857 262.833 364.857C262.773 364.857 262.654 364.857 262.474 364.797C262.415 364.797 262.295 364.677 262.235 364.557C262.056 364.377 261.816 363.958 261.637 363.778C261.338 363.419 261.039 363.059 260.739 362.7C259.304 361.082 257.868 359.465 256.492 357.847C253.142 353.774 249.672 349.76 246.082 345.866C245.723 345.506 244.527 344.069 243.51 343.35C243.33 343.23 243.21 343.17 243.091 343.05C243.091 343.11 243.151 343.17 243.151 343.23C243.27 343.47 243.39 343.769 243.45 344.009C243.809 345.806 244.287 347.603 244.766 349.4C246.68 356.23 250.748 363.958 250.569 371.147C250.569 371.387 250.449 371.506 250.39 371.566C250.27 371.686 250.09 371.686 249.911 371.686C249.851 371.686 249.731 371.626 249.672 371.506C249.612 371.446 249.492 371.267 249.432 371.147C249.073 370.787 248.296 369.829 247.996 369.469C246.381 367.313 244.766 365.036 243.21 362.88C240.518 359.105 237.826 355.271 235.313 351.317C235.194 351.078 235.254 350.778 235.493 350.599C235.732 350.479 236.031 350.539 236.211 350.778C238.664 354.672 241.356 358.506 244.048 362.281C245.544 364.437 247.219 366.714 248.834 368.87C249.014 369.05 249.313 369.469 249.612 369.829C249.313 363.119 245.603 355.99 243.809 349.7C243.33 347.903 242.792 346.046 242.433 344.248C242.373 344.069 242.253 343.769 242.134 343.53C242.014 343.29 241.954 343.05 241.954 342.871C241.954 342.631 242.014 342.451 242.134 342.271C242.193 342.152 242.373 342.092 242.493 342.032C242.672 341.972 242.911 341.972 243.151 342.032C243.39 342.092 243.749 342.271 244.048 342.511C245.125 343.29 246.441 344.788 246.8 345.207C250.39 349.101 253.859 353.175 257.269 357.248C258.645 358.926 260.021 360.483 261.457 362.101C261.577 362.221 261.637 362.34 261.756 362.46C260.56 357.967 258.227 353.594 256.492 349.4C255.654 347.424 254.936 345.387 254.338 343.29C254.218 342.871 253.859 341.493 253.74 341.013C253.68 340.834 253.5 340.474 253.441 340.295C253.381 340.115 253.381 339.995 253.441 339.935C253.5 339.755 253.56 339.636 253.74 339.576C253.859 339.516 253.979 339.456 254.218 339.576C256.611 340.594 258.406 343.11 260.141 344.967C262.295 347.364 264.389 349.76 266.423 352.276C267.5 353.594 268.457 354.972 269.653 356.23C269.653 356.35 269.773 356.47 269.893 356.529Z" fill="white"/>
<path d="M256.193 251.332C260.859 241.987 269.833 233.36 280.003 230.425C282.456 229.706 284.849 229.766 287.362 229.586C287.661 229.586 287.84 229.346 287.84 229.047C287.84 228.747 287.601 228.567 287.302 228.567C284.73 228.747 282.217 228.687 279.704 229.406C269.294 232.401 260.081 241.268 255.295 250.853C255.176 251.093 255.295 251.392 255.535 251.512C255.774 251.692 256.073 251.572 256.193 251.332Z" fill="white"/>
<path d="M324.215 229.226C320.924 229.226 317.753 230.065 314.882 231.742C312.908 232.88 310.933 234.198 309.258 235.816C308.002 237.014 306.985 238.332 306.267 239.89C302.558 247.797 306.865 254.148 312.668 259.719C315.66 262.595 319.488 265.171 321.163 269.124C322.779 272.959 321.941 277.452 321.343 281.406C321.283 281.705 321.463 281.945 321.762 282.005C322.061 282.064 322.3 281.885 322.36 281.585C323.018 277.452 323.856 272.779 322.121 268.765C320.386 264.691 316.497 261.936 313.386 259C307.882 253.788 303.694 247.797 307.164 240.369C307.822 238.931 308.779 237.733 309.916 236.595C311.531 235.037 313.386 233.779 315.301 232.641C317.993 231.083 321.044 230.304 324.155 230.245C324.454 230.245 324.633 230.005 324.633 229.765C324.753 229.406 324.514 229.226 324.215 229.226Z" fill="white"/>
<path d="M328.163 229.645C326.129 233.419 327.266 237.613 329.838 240.848C332.351 244.023 336.359 246.3 340.008 246.479C343.419 246.599 346.589 245.221 349.222 243.005C353.17 239.71 356.102 234.678 357.298 230.364C357.358 230.125 357.238 229.825 356.939 229.765C356.7 229.705 356.401 229.825 356.341 230.125C355.144 234.258 352.333 239.111 348.564 242.286C346.111 244.383 343.179 245.701 340.008 245.581C336.598 245.461 332.949 243.304 330.556 240.309C328.223 237.373 327.206 233.659 329 230.244C329.12 230.005 329.06 229.705 328.821 229.585C328.582 229.286 328.283 229.406 328.163 229.645Z" fill="white"/>
<path d="M375.007 239.889C364.298 239.83 353.11 248.696 352.393 259.839C352.034 265.23 353.29 270.922 355.982 275.654C356.102 275.894 356.401 275.954 356.64 275.834C356.879 275.714 356.939 275.415 356.82 275.175C354.187 270.622 353.051 265.111 353.35 259.899C354.068 249.235 364.776 240.788 374.947 240.848C375.246 240.848 375.425 240.608 375.425 240.369C375.485 240.129 375.306 239.889 375.007 239.889Z" fill="white"/>
<path d="M253.979 264.392C254.697 261.097 256.91 258.341 259.124 255.885C266.662 247.678 278.328 246.479 288.618 249.714C298.848 252.89 307.643 262.654 312.01 272.18C312.13 272.419 312.429 272.539 312.668 272.419C312.907 272.3 313.027 272 312.907 271.76C308.421 262.055 299.387 252.051 288.917 248.816C278.268 245.521 266.183 246.779 258.406 255.286C256.073 257.862 253.74 260.797 253.022 264.272C252.962 264.571 253.141 264.811 253.381 264.871C253.68 264.811 253.919 264.691 253.979 264.392Z" fill="white"/>
<path d="M462.782 280.765C461.465 289.095 468.605 297.634 476.647 299.022C481.153 299.786 485.798 298.467 490.165 297.426C493.493 296.593 496.543 296.176 498.554 293.26C498.692 293.052 498.623 292.705 498.415 292.566C498.207 292.427 497.86 292.497 497.722 292.705C495.85 295.343 492.938 295.69 489.888 296.454C485.659 297.495 481.222 298.814 476.786 298.05C469.229 296.731 462.505 288.679 463.752 280.904C463.822 280.626 463.614 280.348 463.337 280.348C463.129 280.279 462.851 280.487 462.782 280.765Z" fill="white"/>
<path d="M459.454 326.929C458.553 324.429 457.999 320.611 458.761 317.487C459.246 315.474 460.286 313.739 462.158 312.767C463.683 312.003 465.347 311.656 467.011 311.379C468.675 311.101 470.338 311.17 472.002 311.517C473.943 311.934 475.884 312.698 477.41 313.878C481.43 317.071 482.956 323.388 482.54 328.317C482.54 328.595 482.748 328.803 483.025 328.872C483.302 328.872 483.51 328.664 483.579 328.386C484.065 323.18 482.401 316.516 478.103 313.114C476.439 311.795 474.359 310.962 472.28 310.546C470.546 310.198 468.675 310.129 466.941 310.407C465.139 310.684 463.406 311.101 461.811 311.934C459.662 313.045 458.484 315.058 457.929 317.349C457.167 320.681 457.721 324.707 458.692 327.345C458.761 327.623 459.038 327.762 459.316 327.623C459.385 327.484 459.524 327.206 459.454 326.929Z" fill="white"/>
<path d="M496.058 318.321C493.077 318.598 488.917 317.418 486.214 315.058C484.481 313.531 483.302 311.518 483.579 309.157C483.649 308.741 483.857 308.394 484.134 308.047C484.689 307.422 485.382 306.936 485.867 306.519C489.333 303.743 492.73 302.84 496.82 304.853C497.098 304.992 497.375 304.853 497.514 304.645C497.652 304.367 497.514 304.09 497.306 303.951C492.869 301.729 489.125 302.701 485.313 305.756C484.827 306.172 483.995 306.728 483.441 307.422C483.025 307.908 482.678 308.463 482.609 309.088C482.332 311.865 483.579 314.156 485.59 315.891C488.501 318.39 492.938 319.709 496.127 319.431C496.405 319.431 496.613 319.154 496.613 318.876C496.543 318.46 496.335 318.321 496.058 318.321Z" fill="white"/>
<path d="M430.892 315.267C436.577 314.989 439.766 311.657 441.222 307.075C443.44 300.48 442.123 291.247 440.598 285.694C440.529 285.416 440.251 285.277 439.974 285.347C439.697 285.416 439.558 285.694 439.627 285.972C441.153 291.386 442.4 300.341 440.251 306.728C438.865 310.893 436.022 313.948 430.823 314.225C430.546 314.225 430.338 314.503 430.338 314.781C430.338 315.058 430.615 315.267 430.892 315.267Z" fill="white"/>
<path d="M287.182 370.967C286.943 371.207 286.704 371.447 286.524 371.626C285.148 372.645 283.772 373.603 282.396 374.562C278.866 377.018 275.636 379.834 271.986 382.05C271.448 382.35 270.91 382.889 270.371 383.189C269.893 383.428 269.414 383.608 268.876 383.488C268.636 383.428 268.457 383.308 268.397 383.189C268.277 383.009 268.217 382.769 268.277 382.47C268.337 382.23 268.517 381.93 268.696 381.631C268.935 381.271 269.234 380.912 269.294 380.612C270.072 378.755 270.85 376.838 271.807 375.041C274.021 370.728 276.533 366.594 278.747 362.281C278.866 362.041 279.166 361.921 279.405 362.041C279.644 362.161 279.764 362.46 279.644 362.7C277.431 367.013 274.918 371.147 272.704 375.46C271.807 377.258 271.029 379.115 270.251 380.972C270.072 381.331 269.713 381.871 269.414 382.35C269.414 382.41 269.354 382.41 269.354 382.47C269.593 382.41 269.893 382.29 270.132 382.11C270.61 381.811 271.029 381.451 271.448 381.152C275.097 378.935 278.328 376.119 281.798 373.663C283.174 372.705 284.55 371.746 285.926 370.728C286.225 370.488 286.763 369.949 287.122 369.589C287.362 369.35 287.601 369.23 287.78 369.23C288.02 369.17 288.199 369.29 288.319 369.41C288.379 369.53 288.498 369.649 288.439 369.949C287.84 373.543 286.464 377.018 285.088 380.373C284.789 381.032 284.49 381.751 284.191 382.41C287.601 380.553 290.832 377.497 293.763 375.101C294.84 374.202 295.917 373.244 296.934 372.225C297.173 371.986 297.592 371.387 297.891 371.027C298.13 370.788 298.31 370.608 298.43 370.548C298.669 370.488 298.848 370.548 298.968 370.668C299.028 370.728 299.207 370.907 299.147 371.207C299.088 373.723 297.652 377.018 296.814 379.295C296.216 380.912 295.677 382.53 294.96 384.087C294.84 384.327 294.541 384.447 294.302 384.327C294.062 384.207 293.943 383.907 294.062 383.668C294.78 382.17 295.319 380.553 295.917 378.995C296.575 377.138 297.652 374.622 298.071 372.465C297.891 372.645 297.771 372.884 297.652 372.944C296.635 373.963 295.558 374.921 294.421 375.88C291.071 378.636 287.362 382.17 283.473 383.907C283.234 384.027 283.054 383.967 282.994 383.907C282.815 383.847 282.755 383.728 282.695 383.488C282.695 383.428 282.695 383.308 282.755 383.129C282.815 382.949 283.054 382.649 283.114 382.47C283.473 381.631 283.832 380.792 284.191 379.954C285.328 377.198 286.524 374.083 287.182 370.967Z" fill="white"/>
<path d="M262.355 277.332C260.5 279.189 259.184 281.346 257.868 283.622C249.612 298.539 258.825 314.534 271.508 323.101C271.747 323.281 272.046 323.221 272.226 322.981C272.405 322.742 272.345 322.442 272.106 322.263C259.842 313.995 250.808 298.539 258.825 284.101C260.021 281.885 261.338 279.788 263.132 277.991C263.312 277.811 263.312 277.452 263.132 277.272C262.893 277.152 262.534 277.152 262.355 277.332Z" fill="#3D248A"/>
<path d="M271.209 322.143L269.713 314.954C269.653 314.655 269.833 314.415 270.132 314.355C270.431 314.295 270.67 314.475 270.73 314.775L272.346 322.563C272.405 322.682 272.346 322.862 272.226 322.982C272.106 323.102 271.987 323.162 271.867 323.162H263.432C263.132 323.162 262.953 322.922 262.953 322.682C262.953 322.383 263.192 322.203 263.432 322.203H271.209V322.143Z" fill="#3D248A"/>
<path d="M342.463 211.242C342.796 201.296 351.448 193.198 360.327 192.028C365.481 191.389 370.313 192.759 375.301 194.695C375.538 194.76 375.827 194.655 375.943 194.398C375.983 194.147 375.861 193.826 375.612 193.679C370.549 191.749 365.48 190.315 360.176 190.965C350.921 192.164 341.864 200.622 341.526 211.065C341.497 211.398 341.758 211.626 341.995 211.691C342.157 211.761 342.435 211.575 342.463 211.242Z" fill="#3D248A"/>
<path d="M341.587 210.551L348.201 206.01C348.401 205.834 348.72 205.971 348.903 206.2C349.085 206.429 348.983 206.76 348.784 206.937L341.685 211.756C341.549 211.847 341.401 211.858 341.315 211.784C341.155 211.715 341.07 211.641 340.973 211.486L337.255 202.792C337.146 202.557 337.248 202.226 337.459 202.129C337.67 202.033 337.989 202.17 338.098 202.405L341.587 210.551Z" fill="#3D248A"/>
<path d="M477.643 331.763C473.224 359.425 465.07 389.498 446.419 413.744C424.492 442.331 385.331 449.191 367.318 427.203C367.186 427.011 366.838 427.015 366.623 427.212C366.408 427.408 366.377 427.718 366.51 427.91C384.85 450.32 424.758 443.373 447.104 414.278C465.858 389.875 474.104 359.53 478.625 331.712C478.656 331.402 478.523 331.21 478.236 331.252C477.95 331.295 477.622 331.531 477.643 331.763Z" fill="#3D248A"/>
<path d="M367.819 424.121L369.045 437.371C369.066 437.604 368.859 437.919 368.631 438C368.342 438.043 368.156 437.928 368.073 437.656L366.734 423.784C366.723 423.667 366.765 423.471 366.868 423.314C366.972 423.156 367.085 423.116 367.261 423.114L377.707 423.134C377.945 423.17 378.142 423.401 378.1 423.597C378.069 423.91 377.852 424.107 377.5 424.112L367.819 424.121Z" fill="#3D248A"/>
</svg>
