<svg width="1437" height="959" viewBox="0 0 1437 959" fill="none" xmlns="http://www.w3.org/2000/svg">
<path d="M1125.22 222.665L1114.04 297.358L1065.79 254.824L1125.22 222.665Z" fill="#00D5FF"/>
<path d="M1366.78 356.281L1369.57 497.54L1267.25 434.219L1366.78 356.281Z" fill="#FFC700"/>
<path d="M311.965 734.307L453.072 727.201L392.908 831.41L311.965 734.307Z" fill="#00D5FF"/>
<path d="M1107 871.752L1040 922.306L1040 839.938L1107 871.752Z" fill="#E1E1E1"/>
<path d="M1155.42 48.0524L1349.45 97.8536L1231.82 231.359L1155.42 48.0524Z" stroke="#E1E1E1" stroke-width="3"/>
<path d="M26.4686 242.646L98.9599 257.033L42.5327 326.387L26.4686 242.646Z" fill="#FFC700"/>
<path d="M809.909 613.141L825.863 576.159L844.562 606.83L809.909 613.141Z" fill="#FF5784"/>
<path d="M352.659 179.432L410.313 74.1307L457.255 170.363L352.659 179.432Z" fill="#FF5784"/>
</svg>
